<svg xmlns="http://www.w3.org/2000/svg" xmlns:xlink="http://www.w3.org/1999/xlink" width="1030" height="243" viewBox="0 0 1030 243">
  <defs>
    <clipPath id="clip-path">
      <path id="Trazado_963946" data-name="Trazado 963946" d="M14.826,0H1015.174C1023.362,0,1030,4.077,1030,9.107V233.893c0,5.029-6.638,9.107-14.826,9.107H14.826C6.638,243,0,238.923,0,233.893V9.107C0,4.077,6.638,0,14.826,0Z" transform="translate(-1166.105 -10078.102)" fill="#f6f6f6"/>
    </clipPath>
    <clipPath id="clip-path-2">
      <path id="Trazado_963927" data-name="Trazado 963927" d="M0,0,916.561,139.439l126.36,568.89L126.36,568.891Z" fill="#fff"/>
    </clipPath>
    <clipPath id="clip-path-3">
      <path id="Trazado_963932" data-name="Trazado 963932" d="M458.637-14.505c-168.5-3.152-318.313,33.756-412.518,108.5C22.134,113.034,1.423,134.969-4.3,162.76s5.482,62.365,37.872,91.224c41.814,37.257,106.651,56.346,174.228,76.048-18.793,3.212-23.752,19.723-14.224,35.239,20.359,33.163,75.119,47.786,119.343,53.624,147.389,19.451,273.68-10.148,378.6-52.985,55.117-22.506,106.612-49.146,140.493-86.574,22.261-24.59,36.319-63.424-10.42-96.781-21.561-15.389-54.993-23.309-72.866-12.933,27.891-19.738,19.851-60-11.758-92.88S654.658,18.551,604.815,4.477A460.268,460.268,0,0,0,548.953-7.5c-30.734-4.684-60.991-6.461-90.315-7.009" fill="#fff"/>
    </clipPath>
    <clipPath id="clip-path-4">
      <path id="Trazado_963934" data-name="Trazado 963934" d="M106.525,127.008l946-100.365L961.579,568.85l-946,100.365Z" fill="#fff"/>
    </clipPath>
    <clipPath id="clip-path-5">
      <path id="Trazado_963939" data-name="Trazado 963939" d="M599.626,38.332C416.658,79.527,237.99,156.324,104.885,256.747c-33.893,25.58-65.373,53.225-82.817,82.844S2.945,401.235,26.738,421.9c30.714,26.676,93.918,28.908,159.873,31.038-21.842,8.2-33.913,26.208-29.745,39.394,8.9,28.185,62.889,28.554,108.893,22.811C419.08,496,569.086,432.788,701.053,361.819c69.329-37.285,136.362-77.8,188.48-124.584,34.243-30.739,65.254-73.726,27.584-95.159-17.377-9.889-50.742-9.094-74.463,6.11,38.445-27.314,45.87-65.927,24.551-90.861S800.641,20.14,751.811,19.031a440.9,440.9,0,0,0-56.257,2.6c-31.718,3.357-64.085,9.529-95.927,16.7" fill="#fff"/>
    </clipPath>
    <filter id="Trazado_26514" x="218.986" y="44.856" width="335.22" height="149.287" filterUnits="userSpaceOnUse">
      <feOffset dy="3" input="SourceAlpha"/>
      <feGaussianBlur stdDeviation="3" result="blur"/>
      <feFlood flood-opacity="0.161"/>
      <feComposite operator="in" in2="blur"/>
      <feComposite in="SourceGraphic"/>
    </filter>
    <filter id="Trazado_26514-2" x="515.035" y="44.856" width="335.22" height="149.287" filterUnits="userSpaceOnUse">
      <feOffset dy="3" input="SourceAlpha"/>
      <feGaussianBlur stdDeviation="3" result="blur-2"/>
      <feFlood flood-opacity="0.161"/>
      <feComposite operator="in" in2="blur-2"/>
      <feComposite in="SourceGraphic"/>
    </filter>
  </defs>
  <g id="Grupo_1101165" data-name="Grupo 1101165" transform="translate(-285 -12915)">
    <g id="Enmascarar_grupo_1098791" data-name="Enmascarar grupo 1098791" transform="translate(148.895 3079.898) rotate(180)" clip-path="url(#clip-path)">
      <path id="Trazado_963925" data-name="Trazado 963925" d="M14.826,0H1015.174C1023.362,0,1030,5.551,1030,12.4V318.442c0,6.847-6.638,12.4-14.826,12.4H14.826C6.638,330.84,0,325.289,0,318.442V12.4C0,5.551,6.638,0,14.826,0Z" transform="translate(-1166.105 -10110.904)" fill="#f6f6f6"/>
      <g id="Grupo_1101108" data-name="Grupo 1101108" transform="matrix(-0.927, 0.375, -0.375, -0.927, 340.746, -9793.404)" opacity="0.49" style="isolation: isolate">
        <g id="Grupo_1101105" data-name="Grupo 1101105" transform="translate(0 0)">
          <g id="Grupo_1101104" data-name="Grupo 1101104" clip-path="url(#clip-path-2)">
            <path id="Trazado_963926" data-name="Trazado 963926" d="M748.726,169.625c27.891-19.738,19.843-60-11.757-92.88S654.65,18.554,604.815,4.481,505.6-13.627,458.636-14.507C290.136-17.653,140.316,19.254,46.119,94,22.133,113.032,1.414,134.972-4.3,162.764s5.481,62.359,37.871,91.218c41.805,37.256,106.652,56.352,174.23,76.053-18.8,3.211-23.753,19.717-14.225,35.239,20.359,33.163,75.11,47.785,119.335,53.623,147.4,19.452,273.687-10.152,378.6-52.985C746.629,343.405,798.124,316.766,832,279.337c22.268-24.594,36.328-63.423-10.413-96.786-21.559-15.383-54.992-23.3-72.865-12.927" transform="translate(118.757 159.871)" fill="#fff"/>
          </g>
        </g>
        <g id="Grupo_1101107" data-name="Grupo 1101107" transform="translate(118.757 159.875)">
          <g id="Grupo_1101106" data-name="Grupo 1101106" transform="translate(0 0)" clip-path="url(#clip-path-3)">
            <path id="Trazado_963928" data-name="Trazado 963928" d="M-5.917,181.749S467.174,312.7,316.425-11.046" transform="translate(-38.815 -27.513)" fill="#fff"/>
            <path id="Trazado_963929" data-name="Trazado 963929" d="M-9.282,285.137s431.2,155.806,488.516-301.866" transform="translate(-8.484 -9.827)" fill="#fff"/>
            <path id="Trazado_963930" data-name="Trazado 963930" d="M-14.96,459.542s270.284,60.082,376.607-148.927,73.935-325.82,73.935-325.82" transform="translate(177.435 -30.355)" fill="#fff"/>
            <path id="Trazado_963931" data-name="Trazado 963931" d="M249.665-8.715S282.51,198.257-9.4,288.893" transform="translate(547.799 141.947)" fill="#fff"/>
          </g>
        </g>
      </g>
      <ellipse id="Elipse_11633" data-name="Elipse 11633" cx="259.577" cy="152.22" rx="259.577" ry="152.22" transform="translate(-1151.154 -10207.748)" fill="#e8e8e8" opacity="0.37" style="mix-blend-mode: multiply;isolation: isolate"/>
      <ellipse id="Elipse_11634" data-name="Elipse 11634" cx="259.748" cy="152.565" rx="259.748" ry="152.565" transform="translate(-1411.049 -9996.92)" fill="#fff" opacity="0.65"/>
      <ellipse id="Elipse_11635" data-name="Elipse 11635" cx="259.748" cy="152.565" rx="259.748" ry="152.565" transform="translate(-591.178 -10207.748)" fill="#fff" opacity="0.65"/>
      <g id="Grupo_1101113" data-name="Grupo 1101113" transform="translate(-577.522 -9546.441) rotate(-165)" opacity="0.3" style="isolation: isolate">
        <g id="Grupo_1101110" data-name="Grupo 1101110" transform="translate(0 0)">
          <g id="Grupo_1101109" data-name="Grupo 1101109" clip-path="url(#clip-path-4)">
            <path id="Trazado_963933" data-name="Trazado 963933" d="M842.653,148.185C881.1,120.872,888.515,82.259,867.2,57.324S800.632,20.141,751.811,19.031s-101.19,7.816-152.184,19.3c-182.969,41.2-361.646,118-494.742,218.42C70.992,282.321,39.5,309.972,22.067,339.591s-19.122,61.639,4.671,82.3c30.705,26.677,93.918,28.914,159.872,31.044-21.851,8.2-33.912,26.2-29.745,39.394,8.9,28.185,62.88,28.555,108.884,22.812C419.079,496,569.086,432.783,701.044,361.82c69.329-37.285,136.362-77.8,188.48-124.584,34.253-30.745,65.263-73.727,27.593-95.166-17.378-9.883-50.742-9.088-74.464,6.116" transform="translate(79.674 83.646)" fill="#fff"/>
          </g>
        </g>
        <g id="Grupo_1101112" data-name="Grupo 1101112" transform="translate(79.673 83.646)">
          <g id="Grupo_1101111" data-name="Grupo 1101111" transform="translate(0 0)" clip-path="url(#clip-path-5)">
            <path id="Trazado_963935" data-name="Trazado 963935" d="M6.772,290.995s464.536,7.857,430.092-279.936" transform="translate(-25.484 50.623)" fill="#fff"/>
            <path id="Trazado_963936" data-name="Trazado 963936" d="M10.494,450.907S419.217,494.943,666.206,16.863" transform="translate(-48.483 6.088)" fill="#fff"/>
            <path id="Trazado_963937" data-name="Trazado 963937" d="M14.35,616.6s271.33-10.414,471.758-249.854S698.167,17.672,698.167,17.672" transform="translate(82.764 -51.419)" fill="#fff"/>
            <path id="Trazado_963938" data-name="Trazado 963938" d="M411.96,10.428S364.518,211.15,8.837,379.728" transform="translate(498.639 88.109)" fill="#fff"/>
          </g>
        </g>
      </g>
      <g id="Grupo_1101114" data-name="Grupo 1101114" transform="translate(-1292.681 -10347.141)">
        <path id="Trazado_963940" data-name="Trazado 963940" d="M602.451,437.3S433.478,73.911,0,0" transform="translate(516.659 630.373) rotate(-43)" fill="none" stroke="#e8e8e8" stroke-linecap="round" stroke-linejoin="round" stroke-width="1"/>
        <path id="Trazado_963941" data-name="Trazado 963941" d="M38.406-1.864S-70.175,69.251,62.667,178.025" transform="translate(1015.12 365.983) rotate(-43)" fill="none" stroke="#e8e8e8" stroke-linecap="round" stroke-linejoin="round" stroke-width="1"/>
        <path id="Trazado_963942" data-name="Trazado 963942" d="M448.553,82.321c15.571,111.093-20.361,113.406-97.8,99.324S309.2,251.271,167.577,162.013,0,0,0,0" transform="translate(0 329.677) rotate(-43)" fill="none" stroke="#e8e8e8" stroke-linecap="round" stroke-linejoin="round" stroke-width="1"/>
        <path id="Trazado_963943" data-name="Trazado 963943" d="M121.583-5.9s99.048,94.591,58.423,120.691S-.264,5.481-.264,5.481" transform="translate(99.986 268.51) rotate(-43)" fill="none" stroke="#e8e8e8" stroke-linecap="round" stroke-linejoin="round" stroke-width="1"/>
        <path id="Trazado_963944" data-name="Trazado 963944" d="M241.469,170.115C224.166,84.145,95.551-26.082-.164,3.411" transform="translate(674.758 605.734) rotate(-43)" fill="none" stroke="#e8e8e8" stroke-linecap="round" stroke-linejoin="round" stroke-width="1"/>
        <path id="Trazado_963945" data-name="Trazado 963945" d="M232.117-11.232c-27.414.526-48.44,14.082-48.8,38.724s23.787,60.172,49.351,76.08c-35.575-17.6-71.464-35.326-106.8-46.982s-70.541-16.927-96.21-8.827S-10.588,78.994-1.862,109.816C8.268,145.593,45.41,182.777,81.38,214.531,186.366,307.211,304.841,387.844,425.5,445.878c38.331,18.435,80.523,35.149,109.092,27.636,27.306-7.178,34.945-36.125,25.979-67.827s-32.106-65.6-58.354-97.107-56-61.555-83.176-91.458c18.7,5.286,37.617,10.612,54.86,11.807s32.912-2.148,40.262-12.665c8.773-12.553,4.373-33.9-7.371-54.261s-30.017-39.868-49.4-57.665c-40-36.722-86.338-68.1-133.258-90.217C305.914,5.532,287.316-1.727,269.594-6.25c-13.143-3.355-25.8-5.205-37.477-4.981" transform="translate(442.482 489.181) rotate(-43)" fill="none"/>
      </g>
    </g>
    <g id="Grupo_1010582" data-name="Grupo 1010582" transform="translate(230 832.937)">
      <g id="Grupo_16896" data-name="Grupo 16896" transform="translate(285 12135.893)">
        <g id="Grupo_16895" data-name="Grupo 16895" transform="translate(0)">
          <g transform="matrix(1, 0, 0, 1, -230, -53.83)" filter="url(#Trazado_26514)">
            <path id="Trazado_26514-3" data-name="Trazado 26514" d="M247.265-48.617l-47.543-62.671v13.206H-66.686l37.53,49.466L-66.686.854H199.722v13.2Z" transform="translate(296.69 165.12)" fill="#a0c9f6" stroke="#fff" stroke-width="2"/>
          </g>
        </g>
      </g>
      <g id="Grupo_16915" data-name="Grupo 16915" transform="translate(581.049 12135.893)">
        <g id="Grupo_16895-2" data-name="Grupo 16895" transform="translate(0)">
          <g transform="matrix(1, 0, 0, 1, -526.05, -53.83)" filter="url(#Trazado_26514-2)">
            <path id="Trazado_26514-4" data-name="Trazado 26514" d="M247.265-48.617l-47.543-62.671v13.206H-66.686l37.53,49.466L-66.686.854H199.722v13.2Z" transform="translate(592.74 165.12)" fill="#b7d1c2" stroke="#fff" stroke-width="2"/>
          </g>
        </g>
      </g>
      <g id="Grupo_1101337" data-name="Grupo 1101337">
        <g id="Grupo_1101336" data-name="Grupo 1101336">
          <path id="Trazado_964657" data-name="Trazado 964657" d="M9.094,16.531A6.571,6.571,0,0,1,6,17.188a4.989,4.989,0,0,1-3.828-1.539A5.679,5.679,0,0,1,.734,11.609,5.952,5.952,0,0,1,2.352,7.266a5.489,5.489,0,0,1,4.1-1.656,6.576,6.576,0,0,1,2.641.461v1.4A5.355,5.355,0,0,0,6.438,6.8,4.076,4.076,0,0,0,3.309,8.086a4.856,4.856,0,0,0-1.2,3.445A4.621,4.621,0,0,0,3.23,14.793a3.815,3.815,0,0,0,2.941,1.215,5.518,5.518,0,0,0,2.922-.75ZM16.93,17H15.648V15.75h-.031a2.682,2.682,0,0,1-2.461,1.438,2.63,2.63,0,0,1-1.871-.633,2.192,2.192,0,0,1-.676-1.68q0-2.242,2.641-2.609l2.4-.336q0-2.039-1.648-2.039a3.938,3.938,0,0,0-2.609.984V9.563a4.958,4.958,0,0,1,2.719-.75q2.82,0,2.82,2.984Zm-1.281-4.047-1.93.266a3.133,3.133,0,0,0-1.344.441,1.273,1.273,0,0,0-.453,1.121,1.221,1.221,0,0,0,.418.957,1.615,1.615,0,0,0,1.113.371,2.056,2.056,0,0,0,1.574-.668,2.387,2.387,0,0,0,.621-1.691Zm5.008,2.891h-.031V20.68H19.344V9h1.281v1.406h.031a3.03,3.03,0,0,1,2.766-1.594,2.93,2.93,0,0,1,2.414,1.074,4.449,4.449,0,0,1,.867,2.879,4.959,4.959,0,0,1-.977,3.215,3.251,3.251,0,0,1-2.672,1.207A2.676,2.676,0,0,1,20.656,15.844Zm-.031-3.227v1.117a2.379,2.379,0,0,0,.645,1.684,2.3,2.3,0,0,0,3.461-.2,4.086,4.086,0,0,0,.66-2.477,3.225,3.225,0,0,0-.617-2.094A2.043,2.043,0,0,0,23.1,9.891a2.27,2.27,0,0,0-1.8.777A2.854,2.854,0,0,0,20.625,12.617ZM34.477,17H33.2V15.75h-.031A2.682,2.682,0,0,1,30.7,17.188a2.63,2.63,0,0,1-1.871-.633,2.192,2.192,0,0,1-.676-1.68q0-2.242,2.641-2.609l2.4-.336q0-2.039-1.648-2.039a3.938,3.938,0,0,0-2.609.984V9.563a4.958,4.958,0,0,1,2.719-.75q2.82,0,2.82,2.984ZM33.2,12.953l-1.93.266a3.133,3.133,0,0,0-1.344.441,1.273,1.273,0,0,0-.453,1.121,1.221,1.221,0,0,0,.418.957A1.615,1.615,0,0,0,31,16.109a2.056,2.056,0,0,0,1.574-.668A2.387,2.387,0,0,0,33.2,13.75Zm9.148,3.68a4.163,4.163,0,0,1-2.187.555,3.622,3.622,0,0,1-2.762-1.113,4.035,4.035,0,0,1-1.051-2.887,4.435,4.435,0,0,1,1.133-3.176,3.963,3.963,0,0,1,3.023-1.2,4.209,4.209,0,0,1,1.859.391v1.313a3.258,3.258,0,0,0-1.906-.625,2.576,2.576,0,0,0-2.012.879,3.335,3.335,0,0,0-.785,2.309,3.176,3.176,0,0,0,.738,2.219,2.545,2.545,0,0,0,1.98.813,3.211,3.211,0,0,0,1.969-.7Zm2.594-9.664a.812.812,0,0,1-.586-.234.791.791,0,0,1-.242-.594.821.821,0,0,1,.828-.836.827.827,0,0,1,.6.238.835.835,0,0,1,0,1.184A.82.82,0,0,1,44.938,6.969ZM45.563,17H44.281V9h1.281Zm9.422,0H53.7V15.641h-.031a2.958,2.958,0,0,1-2.75,1.547,2.988,2.988,0,0,1-2.41-1.074,4.407,4.407,0,0,1-.9-2.926,4.794,4.794,0,0,1,1-3.18,3.3,3.3,0,0,1,2.664-1.2,2.564,2.564,0,0,1,2.4,1.3H53.7V5.156h1.281ZM53.7,13.383V12.2a2.289,2.289,0,0,0-.641-1.641,2.149,2.149,0,0,0-1.625-.672,2.212,2.212,0,0,0-1.844.859,3.766,3.766,0,0,0-.672,2.375,3.387,3.387,0,0,0,.645,2.184,2.107,2.107,0,0,0,1.73.8,2.188,2.188,0,0,0,1.738-.773A2.882,2.882,0,0,0,53.7,13.383ZM63.3,17H62.023V15.75h-.031a2.682,2.682,0,0,1-2.461,1.438,2.63,2.63,0,0,1-1.871-.633,2.192,2.192,0,0,1-.676-1.68q0-2.242,2.641-2.609l2.4-.336q0-2.039-1.648-2.039a3.938,3.938,0,0,0-2.609.984V9.563a4.958,4.958,0,0,1,2.719-.75q2.82,0,2.82,2.984Zm-1.281-4.047-1.93.266a3.133,3.133,0,0,0-1.344.441,1.273,1.273,0,0,0-.453,1.121,1.221,1.221,0,0,0,.418.957,1.615,1.615,0,0,0,1.113.371,2.056,2.056,0,0,0,1.574-.668,2.387,2.387,0,0,0,.621-1.691ZM72.547,17H71.266V15.641h-.031a2.958,2.958,0,0,1-2.75,1.547,2.988,2.988,0,0,1-2.41-1.074,4.407,4.407,0,0,1-.9-2.926,4.794,4.794,0,0,1,1-3.18,3.3,3.3,0,0,1,2.664-1.2,2.564,2.564,0,0,1,2.4,1.3h.031V5.156h1.281Zm-1.281-3.617V12.2a2.289,2.289,0,0,0-.641-1.641A2.149,2.149,0,0,0,69,9.891a2.212,2.212,0,0,0-1.844.859,3.766,3.766,0,0,0-.672,2.375,3.387,3.387,0,0,0,.645,2.184,2.107,2.107,0,0,0,1.73.8,2.188,2.188,0,0,0,1.738-.773A2.882,2.882,0,0,0,71.266,13.383ZM80.8,17H79.523V5.156H80.8Zm3.25-10.031a.812.812,0,0,1-.586-.234.791.791,0,0,1-.242-.594.821.821,0,0,1,.828-.836.827.827,0,0,1,.6.238.835.835,0,0,1,0,1.184A.82.82,0,0,1,84.055,6.969ZM84.68,17H83.4V9H84.68Zm13.953,0H97.352V12.406a3.466,3.466,0,0,0-.41-1.922,1.555,1.555,0,0,0-1.379-.594,1.708,1.708,0,0,0-1.395.75,2.869,2.869,0,0,0-.574,1.8V17H92.313V12.25q0-2.359-1.82-2.359A1.686,1.686,0,0,0,89.1,10.6a2.923,2.923,0,0,0-.547,1.84V17H87.273V9h1.281v1.266h.031A2.718,2.718,0,0,1,91.07,8.813a2.311,2.311,0,0,1,2.266,1.656,2.855,2.855,0,0,1,2.656-1.656q2.641,0,2.641,3.258Zm3.078-10.031a.812.812,0,0,1-.586-.234.791.791,0,0,1-.242-.594.821.821,0,0,1,.828-.836.827.827,0,0,1,.6.238.835.835,0,0,1,0,1.184A.82.82,0,0,1,101.711,6.969ZM102.336,17h-1.281V9h1.281Zm6.3-.078a2.47,2.47,0,0,1-1.2.25q-2.1,0-2.1-2.344V10.094h-1.375V9h1.375V7.047l1.281-.414V9h2.016v1.094h-2.016V14.6a1.869,1.869,0,0,0,.273,1.148,1.091,1.091,0,0,0,.906.344,1.347,1.347,0,0,0,.836-.266Zm7.438.078H114.8V15.75h-.031a2.682,2.682,0,0,1-2.461,1.438,2.63,2.63,0,0,1-1.871-.633,2.192,2.192,0,0,1-.676-1.68q0-2.242,2.641-2.609l2.4-.336q0-2.039-1.648-2.039a3.938,3.938,0,0,0-2.609.984V9.563a4.958,4.958,0,0,1,2.719-.75q2.82,0,2.82,2.984ZM114.8,12.953l-1.93.266a3.133,3.133,0,0,0-1.344.441,1.273,1.273,0,0,0-.453,1.121,1.221,1.221,0,0,0,.418.957,1.615,1.615,0,0,0,1.113.371,2.056,2.056,0,0,0,1.574-.668,2.387,2.387,0,0,0,.621-1.691ZM125.32,17h-1.281V15.641h-.031a2.958,2.958,0,0,1-2.75,1.547,2.988,2.988,0,0,1-2.41-1.074,4.407,4.407,0,0,1-.9-2.926,4.794,4.794,0,0,1,1-3.18,3.3,3.3,0,0,1,2.664-1.2,2.564,2.564,0,0,1,2.4,1.3h.031V5.156h1.281Zm-1.281-3.617V12.2a2.289,2.289,0,0,0-.641-1.641,2.149,2.149,0,0,0-1.625-.672,2.212,2.212,0,0,0-1.844.859,3.766,3.766,0,0,0-.672,2.375,3.387,3.387,0,0,0,.645,2.184,2.107,2.107,0,0,0,1.73.8,2.188,2.188,0,0,0,1.738-.773A2.882,2.882,0,0,0,124.039,13.383Zm9.6,3.617h-1.281V15.75h-.031a2.682,2.682,0,0,1-2.461,1.438A2.63,2.63,0,0,1,128,16.555a2.192,2.192,0,0,1-.676-1.68q0-2.242,2.641-2.609l2.4-.336q0-2.039-1.648-2.039a3.938,3.938,0,0,0-2.609.984V9.563a4.958,4.958,0,0,1,2.719-.75q2.82,0,2.82,2.984Zm-1.281-4.047-1.93.266a3.133,3.133,0,0,0-1.344.441,1.273,1.273,0,0,0-.453,1.121,1.221,1.221,0,0,0,.418.957,1.615,1.615,0,0,0,1.113.371,2.056,2.056,0,0,0,1.574-.668,2.387,2.387,0,0,0,.621-1.691ZM147.266,17h-1.281V15.641h-.031a2.958,2.958,0,0,1-2.75,1.547,2.988,2.988,0,0,1-2.41-1.074,4.407,4.407,0,0,1-.9-2.926,4.794,4.794,0,0,1,1-3.18,3.3,3.3,0,0,1,2.664-1.2,2.564,2.564,0,0,1,2.4,1.3h.031V5.156h1.281Zm-1.281-3.617V12.2a2.289,2.289,0,0,0-.641-1.641,2.149,2.149,0,0,0-1.625-.672,2.212,2.212,0,0,0-1.844.859,3.766,3.766,0,0,0-.672,2.375,3.387,3.387,0,0,0,.645,2.184,2.107,2.107,0,0,0,1.73.8,2.188,2.188,0,0,0,1.738-.773A2.882,2.882,0,0,0,145.984,13.383Zm10.3-.062h-5.648a2.992,2.992,0,0,0,.719,2.063,2.478,2.478,0,0,0,1.891.727,3.931,3.931,0,0,0,2.484-.891v1.2a4.643,4.643,0,0,1-2.789.766,3.381,3.381,0,0,1-2.664-1.09,4.461,4.461,0,0,1-.969-3.066,4.374,4.374,0,0,1,1.059-3.043A3.394,3.394,0,0,1,153,8.813a3.008,3.008,0,0,1,2.43,1.016,4.234,4.234,0,0,1,.859,2.82Zm-1.312-1.086a2.607,2.607,0,0,0-.535-1.727,1.823,1.823,0,0,0-1.465-.617,2.07,2.07,0,0,0-1.539.648,2.943,2.943,0,0,0-.781,1.7ZM8.766,37H6.3V32.555Q6.3,30.7,4.977,30.7a1.318,1.318,0,0,0-1.055.492,1.875,1.875,0,0,0-.414,1.25V37H1.039V29H3.508v1.266h.031A2.829,2.829,0,0,1,6.109,28.8q2.656,0,2.656,3.3Zm9.141-3.3H12.688q.125,1.742,2.2,1.742a4.286,4.286,0,0,0,2.32-.625V36.6a6.1,6.1,0,0,1-2.883.594,4.058,4.058,0,0,1-3.008-1.074,4.058,4.058,0,0,1-1.07-3A4.281,4.281,0,0,1,11.4,29.969,3.852,3.852,0,0,1,14.242,28.8a3.5,3.5,0,0,1,2.707,1.039,4,4,0,0,1,.957,2.82Zm-2.289-1.516q0-1.719-1.391-1.719a1.328,1.328,0,0,0-1.027.492,2.234,2.234,0,0,0-.527,1.227Zm11.6,3.9a4.526,4.526,0,0,1-1.289,3.449A5.224,5.224,0,0,1,22.2,40.758a5.919,5.919,0,0,1-2.562-.461V38.219a4.907,4.907,0,0,0,2.492.719,2.684,2.684,0,0,0,1.938-.66,2.369,2.369,0,0,0,.688-1.793v-.633h-.031A2.757,2.757,0,0,1,22.227,37.2a3,3,0,0,1-2.43-1.078,4.372,4.372,0,0,1-.9-2.891A4.87,4.87,0,0,1,19.9,30a3.265,3.265,0,0,1,2.633-1.2,2.429,2.429,0,0,1,2.188,1.125h.031V29h2.469Zm-2.437-2.93v-.633a1.945,1.945,0,0,0-.449-1.293,1.453,1.453,0,0,0-1.168-.535,1.51,1.51,0,0,0-1.289.641,3.012,3.012,0,0,0-.469,1.8,2.543,2.543,0,0,0,.445,1.582,1.451,1.451,0,0,0,1.219.582,1.511,1.511,0,0,0,1.238-.59A2.418,2.418,0,0,0,24.781,33.156ZM33.094,37.2a4.3,4.3,0,0,1-3.145-1.121A4.064,4.064,0,0,1,28.8,33.031a4.065,4.065,0,0,1,1.188-3.105A4.487,4.487,0,0,1,33.2,28.8a4.249,4.249,0,0,1,3.125,1.121,3.985,3.985,0,0,1,1.133,2.965,4.23,4.23,0,0,1-1.168,3.148A4.348,4.348,0,0,1,33.094,37.2Zm.063-6.5a1.647,1.647,0,0,0-1.359.6,2.653,2.653,0,0,0-.484,1.7q0,2.3,1.859,2.3,1.773,0,1.773-2.367Q34.945,30.7,33.156,30.7Zm11.969,6.016a4.881,4.881,0,0,1-2.414.484,4.083,4.083,0,0,1-2.984-1.117A3.859,3.859,0,0,1,38.586,33.2a4.251,4.251,0,0,1,1.223-3.215,4.518,4.518,0,0,1,3.27-1.176,4.2,4.2,0,0,1,2.047.375v2.094A2.814,2.814,0,0,0,43.4,30.7a2.275,2.275,0,0,0-1.684.621,2.317,2.317,0,0,0-.621,1.715,2.28,2.28,0,0,0,.594,1.668,2.182,2.182,0,0,0,1.633.605,3.258,3.258,0,0,0,1.8-.578Zm2.867-8.977a1.442,1.442,0,0,1-1.023-.371,1.2,1.2,0,0,1-.4-.91,1.153,1.153,0,0,1,.4-.906,1.671,1.671,0,0,1,2.051,0,1.158,1.158,0,0,1,.395.906,1.191,1.191,0,0,1-.395.922A1.466,1.466,0,0,1,47.992,27.734ZM49.211,37H46.742V29h2.469Zm8.734,0H55.609V35.852h-.031A2.607,2.607,0,0,1,53.2,37.2a2.492,2.492,0,0,1-1.832-.66,2.366,2.366,0,0,1-.668-1.762q0-2.328,2.758-2.687l2.172-.289q0-1.312-1.422-1.312a4.853,4.853,0,0,0-2.719.852V29.477a6.116,6.116,0,0,1,1.41-.469,7.413,7.413,0,0,1,1.629-.2q3.422,0,3.422,3.414Zm-2.32-3.25v-.539l-1.453.188q-1.2.156-1.2,1.086a.9.9,0,0,0,.293.691,1.126,1.126,0,0,0,.793.27,1.462,1.462,0,0,0,1.133-.48A1.735,1.735,0,0,0,55.625,33.75Zm10.336,2.961a4.881,4.881,0,0,1-2.414.484,4.083,4.083,0,0,1-2.984-1.117A3.859,3.859,0,0,1,59.422,33.2a4.251,4.251,0,0,1,1.223-3.215,4.518,4.518,0,0,1,3.27-1.176,4.2,4.2,0,0,1,2.047.375v2.094a2.814,2.814,0,0,0-1.727-.578,2.275,2.275,0,0,0-1.684.621,2.317,2.317,0,0,0-.621,1.715,2.28,2.28,0,0,0,.594,1.668,2.182,2.182,0,0,0,1.633.605,3.258,3.258,0,0,0,1.8-.578Zm2.867-8.977a1.442,1.442,0,0,1-1.023-.371,1.2,1.2,0,0,1-.4-.91,1.153,1.153,0,0,1,.4-.906,1.671,1.671,0,0,1,2.051,0,1.158,1.158,0,0,1,.395.906,1.191,1.191,0,0,1-.395.922A1.466,1.466,0,0,1,68.828,27.734ZM70.047,37H67.578V29h2.469Zm5.891.2a4.3,4.3,0,0,1-3.145-1.121,4.064,4.064,0,0,1-1.145-3.043,4.065,4.065,0,0,1,1.188-3.105A4.487,4.487,0,0,1,76.047,28.8a4.249,4.249,0,0,1,3.125,1.121A3.985,3.985,0,0,1,80.3,32.891a4.23,4.23,0,0,1-1.168,3.148A4.348,4.348,0,0,1,75.938,37.2ZM76,30.7a1.647,1.647,0,0,0-1.359.6,2.653,2.653,0,0,0-.484,1.7q0,2.3,1.859,2.3,1.773,0,1.773-2.367Q77.789,30.7,76,30.7Zm2.648-5.484L76.2,27.734H74.422l2.031-2.523ZM89.625,37H87.164V32.555q0-1.859-1.328-1.859a1.318,1.318,0,0,0-1.055.492,1.875,1.875,0,0,0-.414,1.25V37H81.9V29h2.469v1.266H84.4a2.829,2.829,0,0,1,2.57-1.461q2.656,0,2.656,3.3Zm14.2,0h-2.469V35.9h-.031a2.768,2.768,0,0,1-2.477,1.3,3.033,3.033,0,0,1-2.414-1.059,4.382,4.382,0,0,1-.914-2.957A4.77,4.77,0,0,1,96.523,30a3.287,3.287,0,0,1,2.641-1.2,2.246,2.246,0,0,1,2.156,1.109h.031V25.156h2.469ZM101.4,33.109v-.6a1.893,1.893,0,0,0-.453-1.3,1.6,1.6,0,0,0-2.461.129,2.993,2.993,0,0,0-.461,1.77,2.59,2.59,0,0,0,.445,1.625,1.581,1.581,0,0,0,2.457-.031A2.507,2.507,0,0,0,101.4,33.109Zm11.688.594h-5.219q.125,1.742,2.2,1.742a4.286,4.286,0,0,0,2.32-.625V36.6a6.1,6.1,0,0,1-2.883.594,3.724,3.724,0,0,1-4.078-4.07,4.281,4.281,0,0,1,1.156-3.156,3.852,3.852,0,0,1,2.844-1.164,3.5,3.5,0,0,1,2.707,1.039,4,4,0,0,1,.957,2.82ZM110.8,32.188q0-1.719-1.391-1.719a1.328,1.328,0,0,0-1.027.492,2.234,2.234,0,0,0-.527,1.227Zm10.672,3.883h-.031V37h-2.469V25.156h2.469V30.2h.031a2.929,2.929,0,0,1,2.6-1.4,2.855,2.855,0,0,1,2.383,1.063,4.582,4.582,0,0,1,.836,2.906,4.962,4.962,0,0,1-.977,3.211A3.181,3.181,0,0,1,123.7,37.2,2.521,2.521,0,0,1,121.469,36.07ZM121.4,32.7v.82a1.872,1.872,0,0,0,.445,1.281,1.449,1.449,0,0,0,1.141.508,1.514,1.514,0,0,0,1.309-.652,3.15,3.15,0,0,0,.465-1.848,2.506,2.506,0,0,0-.426-1.551,1.437,1.437,0,0,0-1.215-.559,1.569,1.569,0,0,0-1.23.555A2.107,2.107,0,0,0,121.4,32.7Zm8.742-4.961a1.442,1.442,0,0,1-1.023-.371,1.2,1.2,0,0,1-.4-.91,1.153,1.153,0,0,1,.4-.906,1.671,1.671,0,0,1,2.051,0,1.158,1.158,0,0,1,.395.906,1.191,1.191,0,0,1-.395.922A1.466,1.466,0,0,1,130.141,27.734ZM131.359,37h-2.469V29h2.469Zm9.266-3.3h-5.219q.125,1.742,2.2,1.742a4.286,4.286,0,0,0,2.32-.625V36.6a6.1,6.1,0,0,1-2.883.594,3.724,3.724,0,0,1-4.078-4.07,4.281,4.281,0,0,1,1.156-3.156,3.852,3.852,0,0,1,2.844-1.164,3.5,3.5,0,0,1,2.707,1.039,4,4,0,0,1,.957,2.82Zm-2.289-1.516q0-1.719-1.391-1.719a1.328,1.328,0,0,0-1.027.492,2.234,2.234,0,0,0-.527,1.227ZM149.82,37h-2.461V32.555q0-1.859-1.328-1.859a1.318,1.318,0,0,0-1.055.492,1.875,1.875,0,0,0-.414,1.25V37h-2.469V29h2.469v1.266h.031a2.829,2.829,0,0,1,2.57-1.461q2.656,0,2.656,3.3Zm9.141-3.3h-5.219q.125,1.742,2.2,1.742a4.286,4.286,0,0,0,2.32-.625V36.6a6.1,6.1,0,0,1-2.883.594,3.724,3.724,0,0,1-4.078-4.07,4.281,4.281,0,0,1,1.156-3.156A3.852,3.852,0,0,1,155.3,28.8,3.5,3.5,0,0,1,158,29.844a4,4,0,0,1,.957,2.82Zm-2.289-1.516q0-1.719-1.391-1.719a1.328,1.328,0,0,0-1.027.492,2.234,2.234,0,0,0-.527,1.227Zm3.234,4.6v-2a5.256,5.256,0,0,0,1.215.547,4.028,4.028,0,0,0,1.145.18,2.455,2.455,0,0,0,1.035-.18.581.581,0,0,0,.379-.547.506.506,0,0,0-.172-.391,1.6,1.6,0,0,0-.441-.273,5.009,5.009,0,0,0-.59-.211q-.32-.094-.617-.211a5.914,5.914,0,0,1-.84-.387,2.427,2.427,0,0,1-.609-.48,1.889,1.889,0,0,1-.375-.633,2.525,2.525,0,0,1-.129-.852A2.192,2.192,0,0,1,160.2,30.2a2.393,2.393,0,0,1,.781-.793,3.57,3.57,0,0,1,1.117-.453,5.825,5.825,0,0,1,1.309-.145,7.261,7.261,0,0,1,1.078.082,8.047,8.047,0,0,1,1.078.238v1.906a3.9,3.9,0,0,0-1-.41,4.235,4.235,0,0,0-1.051-.137,2.328,2.328,0,0,0-.457.043,1.505,1.505,0,0,0-.379.125.7.7,0,0,0-.258.211.486.486,0,0,0-.094.293.541.541,0,0,0,.141.375,1.221,1.221,0,0,0,.367.27,3.625,3.625,0,0,0,.5.2q.277.09.551.184a7.161,7.161,0,0,1,.891.375,2.848,2.848,0,0,1,.684.477,1.871,1.871,0,0,1,.438.641,2.563,2.563,0,0,1-.156,2.09,2.471,2.471,0,0,1-.82.82,3.72,3.72,0,0,1-1.18.461,6.54,6.54,0,0,1-1.387.145A7.149,7.149,0,0,1,159.906,36.789ZM179.5,29l-3.25,8.641q-1.172,3.117-3.531,3.117a4.524,4.524,0,0,1-1.477-.2V38.586a2.076,2.076,0,0,0,1.07.289,1.337,1.337,0,0,0,1.328-.9l.422-.992L170.813,29h2.734l1.492,4.867a6.324,6.324,0,0,1,.219,1.07h.031a7.463,7.463,0,0,1,.258-1.055L177.055,29Zm7.234-3.2-5.461,13.063h-2.2L184.508,25.8ZM191.4,37.2a4.3,4.3,0,0,1-3.145-1.121,4.064,4.064,0,0,1-1.145-3.043,4.065,4.065,0,0,1,1.188-3.105,4.487,4.487,0,0,1,3.211-1.121,4.249,4.249,0,0,1,3.125,1.121,3.985,3.985,0,0,1,1.133,2.965,4.23,4.23,0,0,1-1.168,3.148A4.348,4.348,0,0,1,191.4,37.2Zm.063-6.5a1.647,1.647,0,0,0-1.359.6,2.653,2.653,0,0,0-.484,1.7q0,2.3,1.859,2.3,1.773,0,1.773-2.367Q193.25,30.7,191.461,30.7ZM.516,56.789v-2a5.256,5.256,0,0,0,1.215.547,4.028,4.028,0,0,0,1.145.18,2.455,2.455,0,0,0,1.035-.18.581.581,0,0,0,.379-.547.506.506,0,0,0-.172-.391,1.6,1.6,0,0,0-.441-.273,5.009,5.009,0,0,0-.59-.211q-.32-.094-.617-.211a5.914,5.914,0,0,1-.84-.387,2.427,2.427,0,0,1-.609-.48A1.889,1.889,0,0,1,.645,52.2a2.525,2.525,0,0,1-.129-.852A2.192,2.192,0,0,1,.809,50.2,2.393,2.393,0,0,1,1.59,49.4a3.57,3.57,0,0,1,1.117-.453A5.825,5.825,0,0,1,4.016,48.8a7.261,7.261,0,0,1,1.078.082,8.047,8.047,0,0,1,1.078.238v1.906a3.9,3.9,0,0,0-1-.41,4.235,4.235,0,0,0-1.051-.137,2.328,2.328,0,0,0-.457.043,1.505,1.505,0,0,0-.379.125.7.7,0,0,0-.258.211.486.486,0,0,0-.094.293.541.541,0,0,0,.141.375,1.221,1.221,0,0,0,.367.27,3.625,3.625,0,0,0,.5.2q.277.09.551.184a7.161,7.161,0,0,1,.891.375,2.848,2.848,0,0,1,.684.477,1.871,1.871,0,0,1,.438.641,2.563,2.563,0,0,1-.156,2.09,2.471,2.471,0,0,1-.82.82,3.72,3.72,0,0,1-1.18.461,6.54,6.54,0,0,1-1.387.145A7.149,7.149,0,0,1,.516,56.789ZM15.266,53.7H10.047q.125,1.742,2.2,1.742a4.286,4.286,0,0,0,2.32-.625V56.6a6.1,6.1,0,0,1-2.883.594,4.058,4.058,0,0,1-3.008-1.074,4.058,4.058,0,0,1-1.07-3,4.281,4.281,0,0,1,1.156-3.156A3.852,3.852,0,0,1,11.6,48.8a3.5,3.5,0,0,1,2.707,1.039,4,4,0,0,1,.957,2.82Zm-2.289-1.516q0-1.719-1.391-1.719a1.328,1.328,0,0,0-1.027.492,2.234,2.234,0,0,0-.527,1.227Zm8.977-.961a2.142,2.142,0,0,0-1.039-.242,1.5,1.5,0,0,0-1.258.59A2.573,2.573,0,0,0,19.2,53.18V57H16.734V49H19.2v1.484h.031a2.136,2.136,0,0,1,2.109-1.625,1.59,1.59,0,0,1,.609.094ZM31.359,49l-2.977,8H25.57l-2.836-8h2.641l1.391,4.93a7.2,7.2,0,0,1,.273,1.422h.031a8.069,8.069,0,0,1,.289-1.375L28.781,49Zm2.3-1.266a1.442,1.442,0,0,1-1.023-.371,1.2,1.2,0,0,1-.4-.91,1.153,1.153,0,0,1,.4-.906,1.671,1.671,0,0,1,2.051,0,1.158,1.158,0,0,1,.395.906,1.191,1.191,0,0,1-.395.922A1.466,1.466,0,0,1,33.664,47.734ZM34.883,57H32.414V49h2.469Zm8.141-.289a4.881,4.881,0,0,1-2.414.484,4.083,4.083,0,0,1-2.984-1.117A3.859,3.859,0,0,1,36.484,53.2a4.251,4.251,0,0,1,1.223-3.215,4.518,4.518,0,0,1,3.27-1.176,4.2,4.2,0,0,1,2.047.375v2.094A2.814,2.814,0,0,0,41.3,50.7a2.275,2.275,0,0,0-1.684.621,2.317,2.317,0,0,0-.621,1.715,2.28,2.28,0,0,0,.594,1.668,2.182,2.182,0,0,0,1.633.605,3.258,3.258,0,0,0,1.8-.578Zm2.867-8.977a1.442,1.442,0,0,1-1.023-.371,1.2,1.2,0,0,1-.4-.91,1.153,1.153,0,0,1,.4-.906,1.671,1.671,0,0,1,2.051,0,1.158,1.158,0,0,1,.395.906,1.191,1.191,0,0,1-.395.922A1.466,1.466,0,0,1,45.891,47.734ZM47.109,57H44.641V49h2.469ZM53,57.2a4.3,4.3,0,0,1-3.145-1.121,4.636,4.636,0,0,1,.043-6.148A4.487,4.487,0,0,1,53.109,48.8a4.249,4.249,0,0,1,3.125,1.121,3.985,3.985,0,0,1,1.133,2.965A4.23,4.23,0,0,1,56.2,56.039,4.348,4.348,0,0,1,53,57.2Zm.063-6.5a1.647,1.647,0,0,0-1.359.6,2.653,2.653,0,0,0-.484,1.7q0,2.3,1.859,2.3,1.773,0,1.773-2.367Q54.852,50.7,53.063,50.7Zm5.383,6.094v-2a5.256,5.256,0,0,0,1.215.547,4.028,4.028,0,0,0,1.145.18,2.455,2.455,0,0,0,1.035-.18.581.581,0,0,0,.379-.547.506.506,0,0,0-.172-.391,1.6,1.6,0,0,0-.441-.273,5.009,5.009,0,0,0-.59-.211q-.32-.094-.617-.211a5.914,5.914,0,0,1-.84-.387,2.427,2.427,0,0,1-.609-.48,1.889,1.889,0,0,1-.375-.633,2.525,2.525,0,0,1-.129-.852,2.192,2.192,0,0,1,.293-1.156,2.393,2.393,0,0,1,.781-.793,3.57,3.57,0,0,1,1.117-.453,5.825,5.825,0,0,1,1.309-.145,7.261,7.261,0,0,1,1.078.082,8.047,8.047,0,0,1,1.078.238v1.906a3.9,3.9,0,0,0-1-.41,4.235,4.235,0,0,0-1.051-.137,2.328,2.328,0,0,0-.457.043,1.505,1.505,0,0,0-.379.125.7.7,0,0,0-.258.211.486.486,0,0,0-.094.293.541.541,0,0,0,.141.375,1.221,1.221,0,0,0,.367.27,3.625,3.625,0,0,0,.5.2q.277.09.551.184a7.161,7.161,0,0,1,.891.375,2.848,2.848,0,0,1,.684.477,1.872,1.872,0,0,1,.438.641,2.563,2.563,0,0,1-.156,2.09,2.471,2.471,0,0,1-.82.82,3.72,3.72,0,0,1-1.18.461,6.54,6.54,0,0,1-1.387.145A7.149,7.149,0,0,1,58.445,56.789Zm8.664.406a1.44,1.44,0,0,1-1.016-.375,1.206,1.206,0,0,1-.406-.922,1.161,1.161,0,0,1,.418-.922,1.543,1.543,0,0,1,1.043-.359,1.486,1.486,0,0,1,1.035.363,1.258,1.258,0,0,1-.008,1.852A1.549,1.549,0,0,1,67.109,57.2Z" transform="translate(638.16 12168.893)" fill="#12263f"/>
          <path id="Trazado_964656" data-name="Trazado 964656" d="M1.469,17V5.8H4.563q5.922,0,5.922,5.461A5.5,5.5,0,0,1,8.84,15.426,6.1,6.1,0,0,1,4.438,17ZM2.781,6.984v8.828H4.453a4.745,4.745,0,0,0,3.43-1.18,4.422,4.422,0,0,0,1.227-3.344q0-4.3-4.578-4.3ZM18.945,13.32H13.3a2.992,2.992,0,0,0,.719,2.063,2.478,2.478,0,0,0,1.891.727,3.931,3.931,0,0,0,2.484-.891v1.2a4.643,4.643,0,0,1-2.789.766,3.381,3.381,0,0,1-2.664-1.09,4.461,4.461,0,0,1-.969-3.066,4.375,4.375,0,0,1,1.059-3.043,3.394,3.394,0,0,1,2.629-1.176,3.008,3.008,0,0,1,2.43,1.016,4.234,4.234,0,0,1,.859,2.82Zm-1.312-1.086a2.607,2.607,0,0,0-.535-1.727,1.823,1.823,0,0,0-1.465-.617,2.07,2.07,0,0,0-1.539.648,2.943,2.943,0,0,0-.781,1.7ZM20.4,16.711V15.336a3.792,3.792,0,0,0,2.3.773q1.688,0,1.688-1.125a.976.976,0,0,0-.145-.543,1.44,1.44,0,0,0-.391-.395,3.007,3.007,0,0,0-.578-.309q-.332-.137-.715-.285a9.207,9.207,0,0,1-.934-.426,2.82,2.82,0,0,1-.672-.484,1.8,1.8,0,0,1-.406-.613,2.17,2.17,0,0,1-.137-.8,1.912,1.912,0,0,1,.258-1,2.286,2.286,0,0,1,.688-.727,3.206,3.206,0,0,1,.98-.441,4.349,4.349,0,0,1,1.137-.148,4.59,4.59,0,0,1,1.859.359v1.3A3.624,3.624,0,0,0,23.3,9.891a2.374,2.374,0,0,0-.648.082,1.587,1.587,0,0,0-.5.23,1.065,1.065,0,0,0-.32.355.936.936,0,0,0-.113.457,1.1,1.1,0,0,0,.113.523,1.152,1.152,0,0,0,.332.375,2.538,2.538,0,0,0,.531.3q.313.133.711.289a9.9,9.9,0,0,1,.953.418,3.269,3.269,0,0,1,.719.484,1.893,1.893,0,0,1,.457.621,2,2,0,0,1,.16.836,1.971,1.971,0,0,1-.262,1.031,2.243,2.243,0,0,1-.7.727,3.2,3.2,0,0,1-1.008.43,4.976,4.976,0,0,1-1.2.141A4.539,4.539,0,0,1,20.4,16.711Zm12.727-.078a4.163,4.163,0,0,1-2.187.555,3.622,3.622,0,0,1-2.762-1.113,4.035,4.035,0,0,1-1.051-2.887,4.435,4.435,0,0,1,1.133-3.176,3.963,3.963,0,0,1,3.023-1.2,4.209,4.209,0,0,1,1.859.391v1.313a3.258,3.258,0,0,0-1.906-.625,2.576,2.576,0,0,0-2.012.879,3.335,3.335,0,0,0-.785,2.309,3.176,3.176,0,0,0,.738,2.219,2.545,2.545,0,0,0,1.98.813,3.211,3.211,0,0,0,1.969-.7Zm5.281.555a3.711,3.711,0,0,1-2.832-1.121,4.153,4.153,0,0,1-1.059-2.973,4.326,4.326,0,0,1,1.1-3.148,3.96,3.96,0,0,1,2.977-1.133,3.588,3.588,0,0,1,2.793,1.1,4.368,4.368,0,0,1,1,3.055,4.3,4.3,0,0,1-1.082,3.066A3.791,3.791,0,0,1,38.406,17.188Zm.094-7.3a2.437,2.437,0,0,0-1.953.84,3.449,3.449,0,0,0-.719,2.316,3.262,3.262,0,0,0,.727,2.242,2.469,2.469,0,0,0,1.945.82,2.342,2.342,0,0,0,1.91-.8,3.492,3.492,0,0,0,.668-2.289A3.552,3.552,0,0,0,40.41,10.7,2.332,2.332,0,0,0,38.5,9.891ZM51.078,17H49.8V12.438q0-2.547-1.859-2.547a2.017,2.017,0,0,0-1.59.723,2.679,2.679,0,0,0-.629,1.824V17H44.438V9h1.281v1.328h.031a2.887,2.887,0,0,1,2.625-1.516,2.448,2.448,0,0,1,2.008.848,3.776,3.776,0,0,1,.7,2.449Zm5.758.188A3.711,3.711,0,0,1,54,16.066a4.153,4.153,0,0,1-1.059-2.973,4.326,4.326,0,0,1,1.1-3.148,3.96,3.96,0,0,1,2.977-1.133,3.588,3.588,0,0,1,2.793,1.1,4.368,4.368,0,0,1,1,3.055,4.3,4.3,0,0,1-1.082,3.066A3.791,3.791,0,0,1,56.836,17.188Zm.094-7.3a2.437,2.437,0,0,0-1.953.84,3.449,3.449,0,0,0-.719,2.316,3.262,3.262,0,0,0,.727,2.242,2.469,2.469,0,0,0,1.945.82,2.342,2.342,0,0,0,1.91-.8,3.492,3.492,0,0,0,.668-2.289A3.552,3.552,0,0,0,58.84,10.7,2.332,2.332,0,0,0,56.93,9.891ZM68.32,16.633a4.163,4.163,0,0,1-2.187.555,3.622,3.622,0,0,1-2.762-1.113,4.035,4.035,0,0,1-1.051-2.887,4.435,4.435,0,0,1,1.133-3.176,3.963,3.963,0,0,1,3.023-1.2,4.209,4.209,0,0,1,1.859.391v1.313a3.258,3.258,0,0,0-1.906-.625,2.576,2.576,0,0,0-2.012.879,3.335,3.335,0,0,0-.785,2.309,3.176,3.176,0,0,0,.738,2.219,2.545,2.545,0,0,0,1.98.813,3.211,3.211,0,0,0,1.969-.7Zm2.594-9.664a.812.812,0,0,1-.586-.234.791.791,0,0,1-.242-.594.821.821,0,0,1,.828-.836.827.827,0,0,1,.6.238.835.835,0,0,1,0,1.184A.82.82,0,0,1,70.914,6.969ZM71.539,17H70.258V9h1.281Zm13.953,0H84.211V12.406a3.466,3.466,0,0,0-.41-1.922,1.555,1.555,0,0,0-1.379-.594,1.708,1.708,0,0,0-1.395.75,2.869,2.869,0,0,0-.574,1.8V17H79.172V12.25q0-2.359-1.82-2.359a1.686,1.686,0,0,0-1.391.707,2.923,2.923,0,0,0-.547,1.84V17H74.133V9h1.281v1.266h.031A2.718,2.718,0,0,1,77.93,8.813,2.311,2.311,0,0,1,80.2,10.469a2.855,2.855,0,0,1,2.656-1.656q2.641,0,2.641,3.258ZM88.57,6.969a.812.812,0,0,1-.586-.234.791.791,0,0,1-.242-.594A.821.821,0,0,1,88.57,5.3a.827.827,0,0,1,.6.238.835.835,0,0,1,0,1.184A.82.82,0,0,1,88.57,6.969ZM89.2,17H87.914V9H89.2Zm9.023-3.68H92.57a2.992,2.992,0,0,0,.719,2.063,2.478,2.478,0,0,0,1.891.727,3.931,3.931,0,0,0,2.484-.891v1.2a4.643,4.643,0,0,1-2.789.766,3.381,3.381,0,0,1-2.664-1.09,4.461,4.461,0,0,1-.969-3.066A4.375,4.375,0,0,1,92.3,9.988,3.394,3.394,0,0,1,94.93,8.813a3.008,3.008,0,0,1,2.43,1.016,4.234,4.234,0,0,1,.859,2.82Zm-1.312-1.086a2.607,2.607,0,0,0-.535-1.727,1.823,1.823,0,0,0-1.465-.617,2.07,2.07,0,0,0-1.539.648,2.943,2.943,0,0,0-.781,1.7ZM106.8,17h-1.281V12.438q0-2.547-1.859-2.547a2.017,2.017,0,0,0-1.59.723,2.679,2.679,0,0,0-.629,1.824V17h-1.281V9h1.281v1.328h.031a2.887,2.887,0,0,1,2.625-1.516,2.448,2.448,0,0,1,2.008.848,3.776,3.776,0,0,1,.7,2.449Zm6.125-.078a2.47,2.47,0,0,1-1.2.25q-2.1,0-2.1-2.344V10.094H108.25V9h1.375V7.047l1.281-.414V9h2.016v1.094h-2.016V14.6a1.869,1.869,0,0,0,.273,1.148,1.091,1.091,0,0,0,.906.344,1.347,1.347,0,0,0,.836-.266Zm5.055.266a3.711,3.711,0,0,1-2.832-1.121,4.153,4.153,0,0,1-1.059-2.973,4.326,4.326,0,0,1,1.1-3.148,3.96,3.96,0,0,1,2.977-1.133,3.588,3.588,0,0,1,2.793,1.1,4.368,4.368,0,0,1,1,3.055,4.3,4.3,0,0,1-1.082,3.066A3.791,3.791,0,0,1,117.977,17.188Zm.094-7.3a2.437,2.437,0,0,0-1.953.84,3.449,3.449,0,0,0-.719,2.316,3.262,3.262,0,0,0,.727,2.242,2.469,2.469,0,0,0,1.945.82,2.342,2.342,0,0,0,1.91-.8,3.492,3.492,0,0,0,.668-2.289,3.552,3.552,0,0,0-.668-2.312A2.332,2.332,0,0,0,118.07,9.891ZM135.219,17h-1.281V15.641h-.031a2.958,2.958,0,0,1-2.75,1.547,2.988,2.988,0,0,1-2.41-1.074,4.407,4.407,0,0,1-.9-2.926,4.794,4.794,0,0,1,1-3.18,3.3,3.3,0,0,1,2.664-1.2,2.564,2.564,0,0,1,2.4,1.3h.031V5.156h1.281Zm-1.281-3.617V12.2a2.289,2.289,0,0,0-.641-1.641,2.149,2.149,0,0,0-1.625-.672,2.212,2.212,0,0,0-1.844.859,3.766,3.766,0,0,0-.672,2.375,3.387,3.387,0,0,0,.645,2.184,2.107,2.107,0,0,0,1.73.8,2.188,2.188,0,0,0,1.738-.773A2.882,2.882,0,0,0,133.938,13.383Zm10.3-.062h-5.648a2.992,2.992,0,0,0,.719,2.063,2.478,2.478,0,0,0,1.891.727,3.931,3.931,0,0,0,2.484-.891v1.2a4.643,4.643,0,0,1-2.789.766,3.381,3.381,0,0,1-2.664-1.09,4.461,4.461,0,0,1-.969-3.066,4.374,4.374,0,0,1,1.059-3.043,3.394,3.394,0,0,1,2.629-1.176,3.008,3.008,0,0,1,2.43,1.016,4.234,4.234,0,0,1,.859,2.82Zm-1.312-1.086a2.607,2.607,0,0,0-.535-1.727,1.823,1.823,0,0,0-1.465-.617,2.07,2.07,0,0,0-1.539.648,2.943,2.943,0,0,0-.781,1.7ZM151.844,17h-1.281V5.156h1.281Zm8.32,0h-1.281V15.75h-.031a2.682,2.682,0,0,1-2.461,1.438,2.63,2.63,0,0,1-1.871-.633,2.192,2.192,0,0,1-.676-1.68q0-2.242,2.641-2.609l2.4-.336q0-2.039-1.648-2.039a3.938,3.938,0,0,0-2.609.984V9.563a4.958,4.958,0,0,1,2.719-.75q2.82,0,2.82,2.984Zm-1.281-4.047-1.93.266a3.133,3.133,0,0,0-1.344.441,1.273,1.273,0,0,0-.453,1.121,1.221,1.221,0,0,0,.418.957,1.615,1.615,0,0,0,1.113.371,2.056,2.056,0,0,0,1.574-.668,2.387,2.387,0,0,0,.621-1.691Zm3.211,3.758V15.336a3.792,3.792,0,0,0,2.3.773q1.688,0,1.688-1.125a.976.976,0,0,0-.145-.543,1.44,1.44,0,0,0-.391-.395,3.007,3.007,0,0,0-.578-.309q-.332-.137-.715-.285a9.207,9.207,0,0,1-.934-.426,2.82,2.82,0,0,1-.672-.484,1.8,1.8,0,0,1-.406-.613,2.17,2.17,0,0,1-.137-.8,1.912,1.912,0,0,1,.258-1,2.286,2.286,0,0,1,.688-.727,3.206,3.206,0,0,1,.98-.441,4.349,4.349,0,0,1,1.137-.148,4.59,4.59,0,0,1,1.859.359v1.3A3.624,3.624,0,0,0,165,9.891a2.374,2.374,0,0,0-.648.082,1.587,1.587,0,0,0-.5.23,1.065,1.065,0,0,0-.32.355.936.936,0,0,0-.113.457,1.1,1.1,0,0,0,.113.523,1.152,1.152,0,0,0,.332.375,2.538,2.538,0,0,0,.531.3q.312.133.711.289a9.894,9.894,0,0,1,.953.418,3.269,3.269,0,0,1,.719.484,1.893,1.893,0,0,1,.457.621,2,2,0,0,1,.16.836,1.971,1.971,0,0,1-.262,1.031,2.243,2.243,0,0,1-.7.727,3.2,3.2,0,0,1-1.008.43,4.976,4.976,0,0,1-1.2.141A4.539,4.539,0,0,1,162.094,16.711ZM5.25,26.281A1.707,1.707,0,0,0,4.4,26.07q-1.344,0-1.344,1.7V29H4.93v1.094H3.055V37H1.781V30.094H.414V29H1.781V27.7a2.7,2.7,0,0,1,.727-1.988,2.453,2.453,0,0,1,1.813-.73,2.511,2.511,0,0,1,.93.141ZM12.773,37H11.492V35.734h-.031a2.631,2.631,0,0,1-2.469,1.453q-2.859,0-2.859-3.406V29H7.406v4.578q0,2.531,1.938,2.531a1.96,1.96,0,0,0,1.543-.691,2.645,2.645,0,0,0,.605-1.809V29h1.281Zm9.016-3.68H16.141a2.992,2.992,0,0,0,.719,2.063,2.478,2.478,0,0,0,1.891.727,3.931,3.931,0,0,0,2.484-.891v1.2a4.643,4.643,0,0,1-2.789.766,3.381,3.381,0,0,1-2.664-1.09,4.461,4.461,0,0,1-.969-3.066,4.375,4.375,0,0,1,1.059-3.043A3.394,3.394,0,0,1,18.5,28.813a3.008,3.008,0,0,1,2.43,1.016,4.234,4.234,0,0,1,.859,2.82Zm-1.312-1.086a2.607,2.607,0,0,0-.535-1.727,1.823,1.823,0,0,0-1.465-.617,2.07,2.07,0,0,0-1.539.648,2.943,2.943,0,0,0-.781,1.7ZM30.367,37H29.086V32.438q0-2.547-1.859-2.547a2.017,2.017,0,0,0-1.59.723,2.679,2.679,0,0,0-.629,1.824V37H23.727V29h1.281v1.328h.031a2.887,2.887,0,0,1,2.625-1.516,2.448,2.448,0,0,1,2.008.848,3.776,3.776,0,0,1,.7,2.449Zm6.125-.078a2.47,2.47,0,0,1-1.2.25q-2.1,0-2.1-2.344V30.094H31.82V29H33.2V27.047l1.281-.414V29h2.016v1.094H34.477V34.6a1.869,1.869,0,0,0,.273,1.148,1.091,1.091,0,0,0,.906.344,1.347,1.347,0,0,0,.836-.266Zm8.141-3.6H38.984a2.992,2.992,0,0,0,.719,2.063,2.478,2.478,0,0,0,1.891.727,3.931,3.931,0,0,0,2.484-.891v1.2a4.643,4.643,0,0,1-2.789.766,3.381,3.381,0,0,1-2.664-1.09,4.461,4.461,0,0,1-.969-3.066,4.375,4.375,0,0,1,1.059-3.043,3.394,3.394,0,0,1,2.629-1.176,3.008,3.008,0,0,1,2.43,1.016,4.234,4.234,0,0,1,.859,2.82ZM43.32,32.234a2.607,2.607,0,0,0-.535-1.727,1.823,1.823,0,0,0-1.465-.617,2.07,2.07,0,0,0-1.539.648,2.943,2.943,0,0,0-.781,1.7Zm2.766,4.477V35.336a3.792,3.792,0,0,0,2.3.773q1.688,0,1.688-1.125a.976.976,0,0,0-.145-.543,1.44,1.44,0,0,0-.391-.395,3.007,3.007,0,0,0-.578-.309q-.332-.137-.715-.285a9.206,9.206,0,0,1-.934-.426,2.82,2.82,0,0,1-.672-.484,1.8,1.8,0,0,1-.406-.613,2.17,2.17,0,0,1-.137-.8,1.912,1.912,0,0,1,.258-1,2.286,2.286,0,0,1,.688-.727,3.206,3.206,0,0,1,.98-.441,4.349,4.349,0,0,1,1.137-.148,4.59,4.59,0,0,1,1.859.359v1.3a3.624,3.624,0,0,0-2.031-.578,2.374,2.374,0,0,0-.648.082,1.587,1.587,0,0,0-.5.23,1.065,1.065,0,0,0-.32.355.936.936,0,0,0-.113.457,1.1,1.1,0,0,0,.113.523,1.152,1.152,0,0,0,.332.375,2.538,2.538,0,0,0,.531.3q.312.133.711.289a9.894,9.894,0,0,1,.953.418,3.269,3.269,0,0,1,.719.484,1.893,1.893,0,0,1,.457.621,2,2,0,0,1,.16.836,1.971,1.971,0,0,1-.262,1.031,2.243,2.243,0,0,1-.7.727,3.2,3.2,0,0,1-1.008.43,4.976,4.976,0,0,1-1.2.141A4.539,4.539,0,0,1,46.086,36.711ZM64.57,37H63.289V35.641h-.031a2.958,2.958,0,0,1-2.75,1.547,2.988,2.988,0,0,1-2.41-1.074,4.407,4.407,0,0,1-.9-2.926,4.794,4.794,0,0,1,1-3.18,3.3,3.3,0,0,1,2.664-1.2,2.564,2.564,0,0,1,2.4,1.3h.031V25.156H64.57Zm-1.281-3.617V32.2a2.289,2.289,0,0,0-.641-1.641,2.149,2.149,0,0,0-1.625-.672,2.212,2.212,0,0,0-1.844.859,3.766,3.766,0,0,0-.672,2.375,3.387,3.387,0,0,0,.645,2.184,2.107,2.107,0,0,0,1.73.8,2.188,2.188,0,0,0,1.738-.773A2.882,2.882,0,0,0,63.289,33.383Zm10.3-.062H67.945a2.992,2.992,0,0,0,.719,2.063,2.478,2.478,0,0,0,1.891.727,3.931,3.931,0,0,0,2.484-.891v1.2a4.643,4.643,0,0,1-2.789.766,3.381,3.381,0,0,1-2.664-1.09,4.461,4.461,0,0,1-.969-3.066,4.375,4.375,0,0,1,1.059-3.043A3.394,3.394,0,0,1,70.3,28.813a3.008,3.008,0,0,1,2.43,1.016,4.234,4.234,0,0,1,.859,2.82Zm-1.312-1.086a2.607,2.607,0,0,0-.535-1.727,1.823,1.823,0,0,0-1.465-.617,2.07,2.07,0,0,0-1.539.648,2.943,2.943,0,0,0-.781,1.7Zm8.656-4.5a1.442,1.442,0,0,1-1.023-.371,1.2,1.2,0,0,1-.4-.91,1.153,1.153,0,0,1,.4-.906,1.671,1.671,0,0,1,2.051,0,1.158,1.158,0,0,1,.395.906,1.191,1.191,0,0,1-.395.922A1.466,1.466,0,0,1,80.938,27.734ZM82.156,37H79.688V29h2.469Zm9.8,0H89.5V32.555q0-1.859-1.328-1.859a1.318,1.318,0,0,0-1.055.492,1.875,1.875,0,0,0-.414,1.25V37H84.234V29H86.7v1.266h.031A2.829,2.829,0,0,1,89.3,28.8q2.656,0,2.656,3.3Zm7.172-9.953a2.494,2.494,0,0,0-.914-.187q-1.187,0-1.187,1.289V29h1.828v1.82H97.031V37H94.57V30.82H93.227V29H94.57v-.992a2.88,2.88,0,0,1,.891-2.2,3.4,3.4,0,0,1,2.422-.836,4.253,4.253,0,0,1,1.25.156ZM103.859,37.2a4.3,4.3,0,0,1-3.145-1.121,4.064,4.064,0,0,1-1.145-3.043,4.065,4.065,0,0,1,1.188-3.105,4.487,4.487,0,0,1,3.211-1.121,4.249,4.249,0,0,1,3.125,1.121,3.985,3.985,0,0,1,1.133,2.965,4.23,4.23,0,0,1-1.168,3.148A4.348,4.348,0,0,1,103.859,37.2Zm.063-6.5a1.647,1.647,0,0,0-1.359.6,2.653,2.653,0,0,0-.484,1.7q0,2.3,1.859,2.3,1.773,0,1.773-2.367Q105.711,30.7,103.922,30.7Zm11.125.531a2.141,2.141,0,0,0-1.039-.242,1.5,1.5,0,0,0-1.258.59,2.573,2.573,0,0,0-.453,1.605V37h-2.469V29H112.3v1.484h.031a2.136,2.136,0,0,1,2.109-1.625,1.59,1.59,0,0,1,.609.094ZM128.945,37h-2.461V32.438q0-1.742-1.281-1.742a1.177,1.177,0,0,0-.992.523,2.151,2.151,0,0,0-.383,1.3V37h-2.469V32.391q0-1.7-1.258-1.7a1.206,1.206,0,0,0-1.012.5,2.2,2.2,0,0,0-.379,1.359V37h-2.469V29h2.469v1.25h.031a3.031,3.031,0,0,1,2.586-1.445,2.3,2.3,0,0,1,2.32,1.492,2.959,2.959,0,0,1,2.688-1.492q2.609,0,2.609,3.219Zm8.609,0h-2.336V35.852h-.031A2.607,2.607,0,0,1,132.8,37.2a2.492,2.492,0,0,1-1.832-.66,2.366,2.366,0,0,1-.668-1.762q0-2.328,2.758-2.687l2.172-.289q0-1.312-1.422-1.312a4.853,4.853,0,0,0-2.719.852V29.477a6.116,6.116,0,0,1,1.41-.469,7.413,7.413,0,0,1,1.629-.2q3.422,0,3.422,3.414Zm-2.32-3.25v-.539l-1.453.188q-1.2.156-1.2,1.086a.9.9,0,0,0,.293.691,1.126,1.126,0,0,0,.793.27,1.462,1.462,0,0,0,1.133-.48A1.735,1.735,0,0,0,135.234,33.75Zm10.336,2.961a4.881,4.881,0,0,1-2.414.484,4.083,4.083,0,0,1-2.984-1.117,3.859,3.859,0,0,1-1.141-2.883,4.251,4.251,0,0,1,1.223-3.215,4.518,4.518,0,0,1,3.27-1.176,4.2,4.2,0,0,1,2.047.375v2.094a2.814,2.814,0,0,0-1.727-.578,2.275,2.275,0,0,0-1.684.621,2.317,2.317,0,0,0-.621,1.715,2.28,2.28,0,0,0,.594,1.668,2.182,2.182,0,0,0,1.633.605,3.258,3.258,0,0,0,1.8-.578Zm2.867-8.977a1.442,1.442,0,0,1-1.023-.371,1.2,1.2,0,0,1-.4-.91,1.153,1.153,0,0,1,.4-.906,1.671,1.671,0,0,1,2.051,0,1.158,1.158,0,0,1,.395.906,1.191,1.191,0,0,1-.395.922A1.466,1.466,0,0,1,148.438,27.734ZM149.656,37h-2.469V29h2.469Zm5.891.2a4.3,4.3,0,0,1-3.145-1.121,4.064,4.064,0,0,1-1.145-3.043,4.065,4.065,0,0,1,1.188-3.105,4.487,4.487,0,0,1,3.211-1.121,4.249,4.249,0,0,1,3.125,1.121,3.985,3.985,0,0,1,1.133,2.965,4.23,4.23,0,0,1-1.168,3.148A4.348,4.348,0,0,1,155.547,37.2Zm.063-6.5a1.647,1.647,0,0,0-1.359.6,2.653,2.653,0,0,0-.484,1.7q0,2.3,1.859,2.3,1.773,0,1.773-2.367Q157.4,30.7,155.609,30.7Zm2.648-5.484-2.445,2.523h-1.781l2.031-2.523ZM169.234,37h-2.461V32.555q0-1.859-1.328-1.859a1.318,1.318,0,0,0-1.055.492,1.875,1.875,0,0,0-.414,1.25V37h-2.469V29h2.469v1.266h.031a2.829,2.829,0,0,1,2.57-1.461q2.656,0,2.656,3.3Zm14.2,0h-2.469V35.9h-.031a2.768,2.768,0,0,1-2.477,1.3,3.033,3.033,0,0,1-2.414-1.059,4.382,4.382,0,0,1-.914-2.957A4.77,4.77,0,0,1,176.133,30a3.287,3.287,0,0,1,2.641-1.2,2.246,2.246,0,0,1,2.156,1.109h.031V25.156h2.469Zm-2.422-3.891v-.6a1.893,1.893,0,0,0-.453-1.3,1.6,1.6,0,0,0-2.461.129,2.993,2.993,0,0,0-.461,1.77,2.59,2.59,0,0,0,.445,1.625,1.581,1.581,0,0,0,2.457-.031A2.507,2.507,0,0,0,181.008,33.109ZM192.7,33.7h-5.219q.125,1.742,2.2,1.742a4.286,4.286,0,0,0,2.32-.625V36.6a6.1,6.1,0,0,1-2.883.594,3.724,3.724,0,0,1-4.078-4.07,4.281,4.281,0,0,1,1.156-3.156,3.852,3.852,0,0,1,2.844-1.164,3.5,3.5,0,0,1,2.707,1.039,4,4,0,0,1,.957,2.82Zm-2.289-1.516q0-1.719-1.391-1.719a1.328,1.328,0,0,0-1.027.492,2.234,2.234,0,0,0-.527,1.227ZM3.539,56.07H3.508V60.68H1.039V49H3.508v1.2h.031a2.9,2.9,0,0,1,2.57-1.4,2.892,2.892,0,0,1,2.4,1.066,4.54,4.54,0,0,1,.848,2.9,4.922,4.922,0,0,1-.988,3.211A3.222,3.222,0,0,1,5.742,57.2,2.491,2.491,0,0,1,3.539,56.07Zm-.07-3.281v.641a2.037,2.037,0,0,0,.438,1.352,1.424,1.424,0,0,0,1.148.523,1.514,1.514,0,0,0,1.309-.652A3.15,3.15,0,0,0,6.828,52.8q0-2.109-1.641-2.109a1.541,1.541,0,0,0-1.238.574A2.29,2.29,0,0,0,3.469,52.789ZM16.18,51.227a2.142,2.142,0,0,0-1.039-.242,1.5,1.5,0,0,0-1.258.59,2.573,2.573,0,0,0-.453,1.605V57H10.961V49H13.43v1.484h.031a2.136,2.136,0,0,1,2.109-1.625,1.59,1.59,0,0,1,.609.094ZM24.453,53.7H19.234q.125,1.742,2.2,1.742a4.286,4.286,0,0,0,2.32-.625V56.6a6.1,6.1,0,0,1-2.883.594,4.058,4.058,0,0,1-3.008-1.074,4.058,4.058,0,0,1-1.07-3,4.281,4.281,0,0,1,1.156-3.156A3.852,3.852,0,0,1,20.789,48.8,3.5,3.5,0,0,1,23.5,49.844a4,4,0,0,1,.957,2.82Zm-2.289-1.516q0-1.719-1.391-1.719a1.328,1.328,0,0,0-1.027.492,2.234,2.234,0,0,0-.527,1.227Zm9.82,4.523a4.881,4.881,0,0,1-2.414.484,4.083,4.083,0,0,1-2.984-1.117A3.859,3.859,0,0,1,25.445,53.2a4.251,4.251,0,0,1,1.223-3.215,4.518,4.518,0,0,1,3.27-1.176,4.2,4.2,0,0,1,2.047.375v2.094a2.814,2.814,0,0,0-1.727-.578,2.275,2.275,0,0,0-1.684.621,2.317,2.317,0,0,0-.621,1.715,2.28,2.28,0,0,0,.594,1.668,2.182,2.182,0,0,0,1.633.605,3.258,3.258,0,0,0,1.8-.578Zm2.867-8.977a1.442,1.442,0,0,1-1.023-.371,1.2,1.2,0,0,1-.4-.91,1.153,1.153,0,0,1,.4-.906,1.671,1.671,0,0,1,2.051,0,1.158,1.158,0,0,1,.395.906,1.191,1.191,0,0,1-.395.922A1.466,1.466,0,0,1,34.852,47.734ZM36.07,57H33.6V49H36.07Zm5.891.2a4.3,4.3,0,0,1-3.145-1.121,4.636,4.636,0,0,1,.043-6.148A4.487,4.487,0,0,1,42.07,48.8,4.249,4.249,0,0,1,45.2,49.926a3.985,3.985,0,0,1,1.133,2.965,4.23,4.23,0,0,1-1.168,3.148A4.348,4.348,0,0,1,41.961,57.2Zm.063-6.5a1.647,1.647,0,0,0-1.359.6A2.653,2.653,0,0,0,40.18,53q0,2.3,1.859,2.3,1.773,0,1.773-2.367Q43.813,50.7,42.023,50.7Zm5.383,6.094v-2a5.256,5.256,0,0,0,1.215.547,4.028,4.028,0,0,0,1.145.18,2.455,2.455,0,0,0,1.035-.18.581.581,0,0,0,.379-.547.506.506,0,0,0-.172-.391,1.6,1.6,0,0,0-.441-.273,5.009,5.009,0,0,0-.59-.211q-.32-.094-.617-.211a5.914,5.914,0,0,1-.84-.387,2.427,2.427,0,0,1-.609-.48,1.889,1.889,0,0,1-.375-.633,2.525,2.525,0,0,1-.129-.852A2.192,2.192,0,0,1,47.7,50.2a2.393,2.393,0,0,1,.781-.793,3.57,3.57,0,0,1,1.117-.453,5.825,5.825,0,0,1,1.309-.145,7.261,7.261,0,0,1,1.078.082,8.047,8.047,0,0,1,1.078.238v1.906a3.9,3.9,0,0,0-1-.41,4.235,4.235,0,0,0-1.051-.137,2.328,2.328,0,0,0-.457.043,1.505,1.505,0,0,0-.379.125.7.7,0,0,0-.258.211.486.486,0,0,0-.094.293.541.541,0,0,0,.141.375,1.221,1.221,0,0,0,.367.27,3.625,3.625,0,0,0,.5.2q.277.09.551.184a7.161,7.161,0,0,1,.891.375,2.848,2.848,0,0,1,.684.477,1.871,1.871,0,0,1,.438.641,2.563,2.563,0,0,1-.156,2.09,2.471,2.471,0,0,1-.82.82,3.72,3.72,0,0,1-1.18.461,6.54,6.54,0,0,1-1.387.145A7.149,7.149,0,0,1,47.406,56.789Zm19.8.211H64.742V55.9h-.031a2.768,2.768,0,0,1-2.477,1.3,3.033,3.033,0,0,1-2.414-1.059,4.382,4.382,0,0,1-.914-2.957A4.77,4.77,0,0,1,59.914,50a3.287,3.287,0,0,1,2.641-1.2,2.246,2.246,0,0,1,2.156,1.109h.031V45.156h2.469Zm-2.422-3.891v-.6a1.893,1.893,0,0,0-.453-1.3,1.6,1.6,0,0,0-2.461.129,2.993,2.993,0,0,0-.461,1.77,2.59,2.59,0,0,0,.445,1.625,1.581,1.581,0,0,0,2.457-.031A2.507,2.507,0,0,0,64.789,53.109Zm11.688.594H71.258q.125,1.742,2.2,1.742a4.286,4.286,0,0,0,2.32-.625V56.6a6.1,6.1,0,0,1-2.883.594,3.724,3.724,0,0,1-4.078-4.07,4.281,4.281,0,0,1,1.156-3.156A3.852,3.852,0,0,1,72.813,48.8a3.5,3.5,0,0,1,2.707,1.039,4,4,0,0,1,.957,2.82Zm-2.289-1.516q0-1.719-1.391-1.719a1.328,1.328,0,0,0-1.027.492,2.234,2.234,0,0,0-.527,1.227ZM95.063,57H92.6V52.438q0-1.742-1.281-1.742a1.177,1.177,0,0,0-.992.523,2.151,2.151,0,0,0-.383,1.3V57H87.477V52.391q0-1.7-1.258-1.7a1.206,1.206,0,0,0-1.012.5,2.2,2.2,0,0,0-.379,1.359V57H82.359V49h2.469v1.25h.031A3.031,3.031,0,0,1,87.445,48.8a2.3,2.3,0,0,1,2.32,1.492A2.959,2.959,0,0,1,92.453,48.8q2.609,0,2.609,3.219Zm9.141-3.3H98.984q.125,1.742,2.2,1.742a4.286,4.286,0,0,0,2.32-.625V56.6a6.1,6.1,0,0,1-2.883.594,3.724,3.724,0,0,1-4.078-4.07A4.281,4.281,0,0,1,97.7,49.969a3.852,3.852,0,0,1,2.844-1.164,3.5,3.5,0,0,1,2.707,1.039,4,4,0,0,1,.957,2.82Zm-2.289-1.516q0-1.719-1.391-1.719a1.328,1.328,0,0,0-1.027.492,2.234,2.234,0,0,0-.527,1.227Zm8.977-.961a2.142,2.142,0,0,0-1.039-.242,1.5,1.5,0,0,0-1.258.59,2.573,2.573,0,0,0-.453,1.605V57h-2.469V49h2.469v1.484h.031a2.136,2.136,0,0,1,2.109-1.625,1.59,1.59,0,0,1,.609.094Zm7.148,5.484a4.881,4.881,0,0,1-2.414.484,4.083,4.083,0,0,1-2.984-1.117A3.859,3.859,0,0,1,111.5,53.2a4.251,4.251,0,0,1,1.223-3.215,4.518,4.518,0,0,1,3.27-1.176,4.2,4.2,0,0,1,2.047.375v2.094a2.814,2.814,0,0,0-1.727-.578,2.275,2.275,0,0,0-1.684.621,2.317,2.317,0,0,0-.621,1.715A2.28,2.28,0,0,0,114.6,54.7a2.182,2.182,0,0,0,1.633.605,3.258,3.258,0,0,0,1.8-.578Zm8.273.289h-2.336V55.852h-.031a2.607,2.607,0,0,1-2.383,1.344,2.492,2.492,0,0,1-1.832-.66,2.366,2.366,0,0,1-.668-1.762q0-2.328,2.758-2.687l2.172-.289q0-1.312-1.422-1.312a4.853,4.853,0,0,0-2.719.852V49.477a6.117,6.117,0,0,1,1.41-.469,7.413,7.413,0,0,1,1.629-.2q3.422,0,3.422,3.414Zm-2.32-3.25v-.539l-1.453.188q-1.2.156-1.2,1.086a.9.9,0,0,0,.293.691,1.126,1.126,0,0,0,.793.27,1.462,1.462,0,0,0,1.133-.48A1.735,1.735,0,0,0,123.992,53.75Zm12.1,3.25h-2.469V55.9h-.031a2.768,2.768,0,0,1-2.477,1.3,3.033,3.033,0,0,1-2.414-1.059,4.382,4.382,0,0,1-.914-2.957A4.77,4.77,0,0,1,128.8,50a3.287,3.287,0,0,1,2.641-1.2,2.246,2.246,0,0,1,2.156,1.109h.031V45.156h2.469Zm-2.422-3.891v-.6a1.893,1.893,0,0,0-.453-1.3,1.6,1.6,0,0,0-2.461.129,2.993,2.993,0,0,0-.461,1.77,2.59,2.59,0,0,0,.445,1.625A1.581,1.581,0,0,0,133.2,54.7,2.507,2.507,0,0,0,133.672,53.109Zm8.313,4.086a4.3,4.3,0,0,1-3.145-1.121,4.636,4.636,0,0,1,.043-6.148,4.487,4.487,0,0,1,3.211-1.121,4.249,4.249,0,0,1,3.125,1.121,3.985,3.985,0,0,1,1.133,2.965,4.23,4.23,0,0,1-1.168,3.148A4.348,4.348,0,0,1,141.984,57.2Zm.063-6.5a1.647,1.647,0,0,0-1.359.6A2.653,2.653,0,0,0,140.2,53q0,2.3,1.859,2.3,1.773,0,1.773-2.367Q143.836,50.7,142.047,50.7Zm7.008,6.5a1.44,1.44,0,0,1-1.016-.375,1.206,1.206,0,0,1-.406-.922,1.161,1.161,0,0,1,.418-.922,1.543,1.543,0,0,1,1.043-.359,1.486,1.486,0,0,1,1.035.363,1.258,1.258,0,0,1-.008,1.852A1.549,1.549,0,0,1,149.055,57.2Z" transform="translate(363 12168.893)" fill="#12263f"/>
        </g>
      </g>
    </g>
  </g>
</svg>
