<svg xmlns="http://www.w3.org/2000/svg" xmlns:xlink="http://www.w3.org/1999/xlink" width="332.5" height="238" viewBox="0 0 332.5 238">
  <defs>
    <clipPath id="clip-path">
      <path id="Trazado_963923" data-name="Trazado 963923" d="M4.786,0H327.714c2.643,0,4.786,3.993,4.786,8.919V229.081c0,4.926-2.143,8.919-4.786,8.919H4.786C2.143,238,0,234.007,0,229.081V8.919C0,3.993,2.143,0,4.786,0Z" transform="translate(-1166.105 -10140.5)" fill="#f6f6f6"/>
    </clipPath>
    <clipPath id="clip-path-2">
      <path id="Trazado_963904" data-name="Trazado 963904" d="M0,0,890.3,193.617l175.456,443.411-890.3-193.617Z" fill="#fff"/>
    </clipPath>
    <clipPath id="clip-path-3">
      <path id="Trazado_963909" data-name="Trazado 963909" d="M428.152,13.084C266.635-5.466,126.841,8.147,43.877,55.776,22.756,67.912,5.044,82.555,2.238,103.076s11.226,47.806,44.984,72.792C90.8,208.123,154.665,228.813,221.21,250.231c-17.673.633-20.833,12.675-10.23,25.351,22.659,27.095,76.453,43.433,119.325,52.1,142.881,28.882,260.872,18.554,357.143-3.86,50.576-11.776,97.289-27.034,126.115-52.16,18.94-16.507,28.666-44.6-19.252-74.372-22.1-13.735-54.85-22.945-70.955-16.793,24.792-12.289,13.238-43.585-20.157-71.543s-84.332-52.009-133.37-67.46c-18.414-5.8-36.64-10.526-54.595-14.435a878.3,878.3,0,0,0-87.082-13.976" fill="#fff"/>
    </clipPath>
    <clipPath id="clip-path-4">
      <path id="Trazado_963911" data-name="Trazado 963911" d="M119.593,126.711,1050.777-12.65,924.487,393.711-6.7,533.073Z" fill="#fff"/>
    </clipPath>
    <clipPath id="clip-path-5">
      <path id="Trazado_963916" data-name="Trazado 963916" d="M597.091,16.1C415.486,59.126,235.624,128.126,98.647,211.414,63.767,232.629,31.1,255.2,12.015,278.26s-22.938,46.806-1.119,60.41c28.166,17.563,89.764,14.847,154.055,11.866-21.906,7.558-34.943,21.679-31.781,31.122,6.754,20.182,59.472,16.728,104.814,9.315C389.1,366.261,540.023,309.267,673.855,247.79c70.309-32.3,138.6-66.818,192.747-104.939,35.578-25.045,68.844-58.906,33.518-72.12-16.295-6.1-48.947-3.207-73.173,9.649,39.447-22.808,49.367-51.813,30.259-68.739S794.741-11.2,747.11-8.649c-17.885.957-36.367,3-55.144,5.8C660.746,1.821,628.7,8.61,597.091,16.1" fill="#fff"/>
    </clipPath>
    <filter id="Trazado_26514" x="45.231" y="19.806" width="68.145" height="116.477" filterUnits="userSpaceOnUse">
      <feOffset dy="3" input="SourceAlpha"/>
      <feGaussianBlur stdDeviation="3" result="blur"/>
      <feFlood flood-opacity="0.161"/>
      <feComposite operator="in" in2="blur"/>
      <feComposite in="SourceGraphic"/>
    </filter>
    <filter id="Trazado_26514-2" x="42.915" y="115.379" width="72.777" height="107.767" filterUnits="userSpaceOnUse">
      <feOffset dy="3" input="SourceAlpha"/>
      <feGaussianBlur stdDeviation="3" result="blur-2"/>
      <feFlood flood-opacity="0.161"/>
      <feComposite operator="in" in2="blur-2"/>
      <feComposite in="SourceGraphic"/>
    </filter>
  </defs>
  <g id="Grupo_1101341" data-name="Grupo 1101341" transform="translate(2039.051 -1313)">
    <g id="Enmascarar_grupo_1098790" data-name="Enmascarar grupo 1098790" transform="translate(-872.946 11453.5)" clip-path="url(#clip-path)">
      <path id="Trazado_963902" data-name="Trazado 963902" d="M14.759,0h995.853c8.151,0,14.759,3.993,14.759,8.919V229.081c0,4.926-6.608,8.919-14.759,8.919H14.759C6.608,238,0,234.007,0,229.081V8.919C0,3.993,6.608,0,14.759,0Z" transform="translate(-1166.105 -10140.5)" fill="#f6f6f6"/>
      <g id="Grupo_1101095" data-name="Grupo 1101095" transform="matrix(-0.927, 0.375, -0.375, -0.927, 384.203, -9905.911)" opacity="0.49" style="isolation: isolate">
        <g id="Grupo_1101092" data-name="Grupo 1101092" transform="translate(0 0)">
          <g id="Grupo_1101091" data-name="Grupo 1101091" clip-path="url(#clip-path-2)">
            <path id="Trazado_963903" data-name="Trazado 963903" d="M723.356,180.5c24.792-12.289,13.23-43.587-20.157-71.543s-84.34-52.011-133.37-67.46S473.166,18.253,428.15,13.082C266.635-5.464,126.833,8.148,43.877,55.778,22.754,67.909,5.036,82.555,2.238,103.078s11.224,47.8,44.982,72.787c43.57,32.254,107.444,52.95,173.99,74.368-17.681.631-20.835,12.67-10.23,25.351,22.659,27.094,76.445,43.431,119.317,52.1,142.889,28.884,260.878,18.552,357.143-3.86,50.575-11.776,97.289-27.034,126.114-52.16,18.946-16.51,28.674-44.6-19.245-74.375-22.1-13.73-54.849-22.941-70.954-16.788" transform="translate(138.217 152.499)" fill="#fff"/>
          </g>
        </g>
        <g id="Grupo_1101094" data-name="Grupo 1101094" transform="translate(138.217 152.501)">
          <g id="Grupo_1101093" data-name="Grupo 1101093" transform="translate(0 0)" clip-path="url(#clip-path-3)">
            <path id="Trazado_963905" data-name="Trazado 963905" d="M2.089,120.149S467.281,264.8,292,4.9" transform="translate(-39.356 -27.415)" fill="#fff"/>
            <path id="Trazado_963906" data-name="Trazado 963906" d="M3.294,189.416s427.5,159.476,438.44-182" transform="translate(-3.149 -2.304)" fill="#fff"/>
            <path id="Trazado_963907" data-name="Trazado 963907" d="M5.622,323.275S269.98,394.747,351.66,246.488,391.149,6.565,391.149,6.565" transform="translate(181.727 -2.219)" fill="#fff"/>
            <path id="Trazado_963908" data-name="Trazado 963908" d="M222.88,3.741S274.155,163.8,3.556,204.52" transform="translate(543.615 153.842)" fill="#fff"/>
          </g>
        </g>
      </g>
      <ellipse id="Elipse_11630" data-name="Elipse 11630" cx="258.41" cy="109.504" rx="258.41" ry="109.504" transform="translate(-1151.221 -10210.169)" fill="#e8e8e8" opacity="0.37" style="mix-blend-mode: multiply;isolation: isolate"/>
      <ellipse id="Elipse_11631" data-name="Elipse 11631" cx="258.581" cy="109.752" rx="258.581" ry="109.752" transform="translate(-1409.948 -10058.503)" fill="#fff" opacity="0.65"/>
      <ellipse id="Elipse_11632" data-name="Elipse 11632" cx="258.581" cy="109.752" rx="258.581" ry="109.752" transform="translate(-473.032 -10198.813)" fill="#fff" opacity="0.65"/>
      <g id="Grupo_1101100" data-name="Grupo 1101100" transform="translate(-567.153 -9689.177) rotate(-165)" opacity="0.3" style="isolation: isolate">
        <g id="Grupo_1101097" data-name="Grupo 1101097" transform="translate(0 0)">
          <g id="Grupo_1101096" data-name="Grupo 1101096" clip-path="url(#clip-path-4)">
            <path id="Trazado_963910" data-name="Trazado 963910" d="M826.947,80.38c39.447-22.808,49.359-51.811,30.259-68.739S794.732-11.2,747.109-8.649,647.705,4.1,597.092,16.094C415.485,59.125,235.615,128.127,98.647,211.414,63.768,232.624,31.093,255.2,12.014,278.26s-22.937,46.8-1.118,60.406c28.158,17.565,89.762,14.851,154.054,11.87-21.915,7.559-34.941,21.675-31.781,31.122,6.754,20.182,59.464,16.73,104.806,9.316,151.125-24.712,302.048-81.711,435.87-143.182,70.309-32.3,138.6-66.818,192.747-104.939,35.588-25.05,68.852-58.907,33.529-72.126-16.3-6.093-48.949-3.2-73.175,9.653" transform="translate(82.455 67.363)" fill="#fff"/>
          </g>
        </g>
        <g id="Grupo_1101099" data-name="Grupo 1101099" transform="translate(82.454 67.362)">
          <g id="Grupo_1101098" data-name="Grupo 1101098" transform="translate(0 0)" clip-path="url(#clip-path-5)">
            <path id="Trazado_963912" data-name="Trazado 963912" d="M-2.9,230.992S450.411,204.722,436.627-5.256" transform="translate(-25.065 51.579)" fill="#fff"/>
            <path id="Trazado_963913" data-name="Trazado 963913" d="M-4.491,357.517S391.8,361.795,666.109-8.019" transform="translate(-50.275 11.519)" fill="#fff"/>
            <path id="Trazado_963914" data-name="Trazado 963914" d="M-6.039,480.673s265.811-26.414,478.16-216.927S703.4-8.468,703.4-8.468" transform="translate(75.8 -41.134)" fill="#fff"/>
            <path id="Trazado_963915" data-name="Trazado 963915" d="M415.638-5S355.43,146.379-3.71,295.323" transform="translate(481.12 44.058)" fill="#fff"/>
          </g>
        </g>
      </g>
      <g id="Grupo_1101101" data-name="Grupo 1101101" transform="translate(-1292.112 -10343.361)">
        <path id="Trazado_963917" data-name="Trazado 963917" d="M582.6,453.726S386.037,122.364,0,0" transform="translate(514.337 486.396) rotate(-43)" fill="none" stroke="#e8e8e8" stroke-linecap="round" stroke-linejoin="round" stroke-width="1"/>
        <path id="Trazado_963918" data-name="Trazado 963918" d="M28.065.687S-56.288,46.025,73.877,156.541" transform="translate(1016.261 295.014) rotate(-43)" fill="none" stroke="#e8e8e8" stroke-linecap="round" stroke-linejoin="round" stroke-width="1"/>
        <path id="Trazado_963919" data-name="Trazado 963919" d="M400.266,131.57c28.8,96.331-2.035,93.343-71.122,70.738S302.7,255.616,167.615,160.436,0,0,0,0" transform="translate(0 270.082) rotate(-43)" fill="none" stroke="#e8e8e8" stroke-linecap="round" stroke-linejoin="round" stroke-width="1"/>
        <path id="Trazado_963920" data-name="Trazado 963920" d="M104.083,7.131s98.909,93.836,67.279,110.37S0,0,0,0" transform="translate(103.065 229.092) rotate(-43)" fill="none" stroke="#e8e8e8" stroke-linecap="round" stroke-linejoin="round" stroke-width="1"/>
        <path id="Trazado_963921" data-name="Trazado 963921" d="M232.5,175.809C205.66,100.539,78.96-10.627.029,1.2" transform="translate(673.085 469.693) rotate(-43)" fill="none" stroke="#e8e8e8" stroke-linecap="round" stroke-linejoin="round" stroke-width="1"/>
        <path id="Trazado_963922" data-name="Trazado 963922" d="M192.687,5.2c-23.7-3.33-40.061,5.268-36.977,26.11s28.912,54.29,53.27,71.3c-33.27-19.819-66.83-39.793-99.072-54.541S46.413,24,25.271,27.334-5.329,48.269,6.482,75.6c13.71,31.727,51.037,68.368,86.6,100.243,103.8,93.034,217.627,177.713,330.243,243.534,35.775,20.909,74.66,40.89,98.4,38.455,22.688-2.325,25.325-25.814,13.184-53.926s-36.873-60.042-63.971-90.365-57.034-59.9-84.717-89c16.943,7.057,34.078,14.178,49.194,17.566s28.241,2.712,33.166-5.192c5.877-9.434-.877-28.141-13.865-47.018s-31.518-37.934-50.774-55.692C364.2,97.568,319.7,64.586,275.968,39.37c-16.983-9.793-34.11-18.508-50.1-24.784C214.01,9.931,202.78,6.619,192.687,5.2" transform="translate(457.395 392.645) rotate(-43)" fill="none"/>
      </g>
    </g>
    <g id="Grupo_16896" data-name="Grupo 16896" transform="translate(-1937.989 1340.671) rotate(90)">
      <g id="Grupo_16895" data-name="Grupo 16895" transform="translate(0)">
        <g transform="matrix(0, -1, 1, 0, -27.67, 101.06)" filter="url(#Trazado_26514)">
          <path id="Trazado_26514-3" data-name="Trazado 26514" d="M28.727-89.529,14.278-111.288v4.585H-66.686L-55.28-89.529-66.686-72.354H14.278v4.583Z" transform="translate(-10.23 94.36) rotate(90)" fill="#a0c9f6" stroke="#fff" stroke-width="2"/>
        </g>
      </g>
    </g>
    <g id="Grupo_16915" data-name="Grupo 16915" transform="translate(-1936.198 1436.083) rotate(90)">
      <g id="Grupo_16895-2" data-name="Grupo 16895" transform="translate(0)">
        <g transform="matrix(0, -1, 1, 0, -123.08, 102.85)" filter="url(#Trazado_26514-2)">
          <path id="Trazado_26514-4" data-name="Trazado 26514" d="M20.231-87.738,7.069-111.288v4.962H-66.686L-56.3-87.738l-10.39,18.59H7.069v4.96Z" transform="translate(-8.43 189.77) rotate(90)" fill="#b7d1c2" stroke="#fff" stroke-width="2"/>
        </g>
      </g>
    </g>
    <path id="Trazado_964692" data-name="Trazado 964692" d="M8.188,11.383h1.5a4.784,4.784,0,0,1-.617,1.93A3.581,3.581,0,0,1,7.656,14.66a4.739,4.739,0,0,1-2.281.5,4.3,4.3,0,0,1-1.816-.375,4.014,4.014,0,0,1-1.4-1.066,4.871,4.871,0,0,1-.9-1.664A6.984,6.984,0,0,1,.938,9.883V8.75a6.984,6.984,0,0,1,.316-2.168,4.8,4.8,0,0,1,.914-1.668,4.041,4.041,0,0,1,1.441-1.07,4.626,4.626,0,0,1,1.9-.375,4.51,4.51,0,0,1,2.18.484,3.5,3.5,0,0,1,1.387,1.34,4.915,4.915,0,0,1,.613,1.98h-1.5A4.225,4.225,0,0,0,7.781,5.9a2.117,2.117,0,0,0-.844-.887A2.865,2.865,0,0,0,5.508,4.7a2.925,2.925,0,0,0-1.332.289,2.647,2.647,0,0,0-.961.82,3.771,3.771,0,0,0-.582,1.273,6.476,6.476,0,0,0-.2,1.648V9.883a6.731,6.731,0,0,0,.176,1.57,4.11,4.11,0,0,0,.535,1.289,2.633,2.633,0,0,0,.914.871,2.605,2.605,0,0,0,1.313.316,3.263,3.263,0,0,0,1.531-.3,2.015,2.015,0,0,0,.863-.875A4.518,4.518,0,0,0,8.188,11.383ZM16.5,13.555V9.2a1.815,1.815,0,0,0-.2-.871,1.357,1.357,0,0,0-.6-.574,2.152,2.152,0,0,0-.984-.2,2.282,2.282,0,0,0-.957.188,1.635,1.635,0,0,0-.641.492,1.067,1.067,0,0,0-.23.656H11.445a1.912,1.912,0,0,1,.234-.9,2.649,2.649,0,0,1,.676-.809,3.405,3.405,0,0,1,1.063-.578A4.223,4.223,0,0,1,14.8,6.391a4,4,0,0,1,1.629.313,2.469,2.469,0,0,1,1.109.941,2.867,2.867,0,0,1,.4,1.574v3.938a5.852,5.852,0,0,0,.074.9,3.394,3.394,0,0,0,.223.82V15H16.734a2.7,2.7,0,0,1-.172-.668A5.278,5.278,0,0,1,16.5,13.555Zm.25-3.68.016,1.016H15.3a5.606,5.606,0,0,0-1.1.1,2.582,2.582,0,0,0-.812.293,1.385,1.385,0,0,0-.5.488,1.326,1.326,0,0,0-.172.684,1.488,1.488,0,0,0,.18.727,1.278,1.278,0,0,0,.543.52,1.9,1.9,0,0,0,.895.191,2.379,2.379,0,0,0,1.172-.281,2.481,2.481,0,0,0,.809-.687,1.493,1.493,0,0,0,.324-.789l.617.7a2.1,2.1,0,0,1-.3.727,3.491,3.491,0,0,1-1.6,1.363,3.089,3.089,0,0,1-1.238.238,3.21,3.21,0,0,1-1.5-.336,2.531,2.531,0,0,1-1-.9,2.339,2.339,0,0,1-.355-1.27,2.6,2.6,0,0,1,.266-1.2,2.347,2.347,0,0,1,.766-.867,3.688,3.688,0,0,1,1.2-.527,6.347,6.347,0,0,1,1.57-.18Zm4.914-1.7V18.25H20.211V6.547h1.328Zm5.7,2.531v.164a6.342,6.342,0,0,1-.219,1.707,4.251,4.251,0,0,1-.637,1.363,2.866,2.866,0,0,1-2.426,1.219,3.569,3.569,0,0,1-1.422-.266,2.8,2.8,0,0,1-1.047-.773,3.891,3.891,0,0,1-.684-1.219,6.911,6.911,0,0,1-.348-1.6v-.875a7.35,7.35,0,0,1,.352-1.68,4.188,4.188,0,0,1,.684-1.27,2.811,2.811,0,0,1,1.035-.8,3.363,3.363,0,0,1,1.406-.277,3.12,3.12,0,0,1,1.414.309,2.882,2.882,0,0,1,1.039.879,4.046,4.046,0,0,1,.637,1.363A6.732,6.732,0,0,1,27.359,10.7Zm-1.453.164V10.7a5.139,5.139,0,0,0-.133-1.191,3.1,3.1,0,0,0-.41-.984,2.052,2.052,0,0,0-.707-.672,2.026,2.026,0,0,0-1.023-.246,2.229,2.229,0,0,0-.949.188A2.075,2.075,0,0,0,22,8.3a2.7,2.7,0,0,0-.457.719,4.062,4.062,0,0,0-.262.832v2.023a4.438,4.438,0,0,0,.438,1.027,2.222,2.222,0,0,0,.75.773,2.189,2.189,0,0,0,1.18.293,1.988,1.988,0,0,0,1.012-.246,2.051,2.051,0,0,0,.7-.676,3.15,3.15,0,0,0,.41-.988A5.139,5.139,0,0,0,25.906,10.867Zm8.281,2.688V9.2a1.815,1.815,0,0,0-.2-.871,1.357,1.357,0,0,0-.6-.574,2.152,2.152,0,0,0-.984-.2,2.282,2.282,0,0,0-.957.188,1.635,1.635,0,0,0-.641.492,1.067,1.067,0,0,0-.23.656H29.133a1.912,1.912,0,0,1,.234-.9,2.649,2.649,0,0,1,.676-.809,3.405,3.405,0,0,1,1.063-.578,4.223,4.223,0,0,1,1.387-.215,4,4,0,0,1,1.629.313,2.469,2.469,0,0,1,1.109.941,2.867,2.867,0,0,1,.4,1.574v3.938a5.852,5.852,0,0,0,.074.9,3.394,3.394,0,0,0,.223.82V15H34.422a2.7,2.7,0,0,1-.172-.668A5.277,5.277,0,0,1,34.188,13.555Zm.25-3.68.016,1.016H32.992a5.606,5.606,0,0,0-1.1.1,2.582,2.582,0,0,0-.812.293,1.385,1.385,0,0,0-.5.488,1.326,1.326,0,0,0-.172.684,1.488,1.488,0,0,0,.18.727,1.278,1.278,0,0,0,.543.52,1.9,1.9,0,0,0,.895.191,2.379,2.379,0,0,0,1.172-.281A2.481,2.481,0,0,0,34,12.922a1.493,1.493,0,0,0,.324-.789l.617.7a2.1,2.1,0,0,1-.3.727,3.491,3.491,0,0,1-1.6,1.363,3.089,3.089,0,0,1-1.238.238,3.21,3.21,0,0,1-1.5-.336,2.531,2.531,0,0,1-1-.9,2.339,2.339,0,0,1-.355-1.27,2.6,2.6,0,0,1,.266-1.2,2.347,2.347,0,0,1,.766-.867,3.688,3.688,0,0,1,1.2-.527,6.347,6.347,0,0,1,1.57-.18Zm6.852,4.094a2.166,2.166,0,0,0,.953-.211,1.947,1.947,0,0,0,.719-.582,1.589,1.589,0,0,0,.32-.848h1.375a2.574,2.574,0,0,1-.5,1.395,3.45,3.45,0,0,1-1.215,1.039,3.486,3.486,0,0,1-1.648.395,3.832,3.832,0,0,1-1.66-.336,3.253,3.253,0,0,1-1.172-.922,4.015,4.015,0,0,1-.7-1.348,5.542,5.542,0,0,1-.23-1.613v-.328A5.542,5.542,0,0,1,37.762,9a4.015,4.015,0,0,1,.7-1.348,3.253,3.253,0,0,1,1.172-.922,3.832,3.832,0,0,1,1.66-.336,3.584,3.584,0,0,1,1.734.4,3.049,3.049,0,0,1,1.168,1.094,3.208,3.208,0,0,1,.465,1.566H43.281a2.11,2.11,0,0,0-.293-.945,1.921,1.921,0,0,0-.687-.676,1.965,1.965,0,0,0-1.012-.254,2.181,2.181,0,0,0-1.113.262,1.958,1.958,0,0,0-.711.7,3.2,3.2,0,0,0-.375.977,5.248,5.248,0,0,0-.113,1.09v.328a5.486,5.486,0,0,0,.109,1.094,3.079,3.079,0,0,0,.371.977,1.968,1.968,0,0,0,.711.7A2.2,2.2,0,0,0,41.289,13.969Zm6.563-7.422V15H46.4V6.547ZM46.289,4.3a.863.863,0,0,1,.215-.594.807.807,0,0,1,.637-.242.822.822,0,0,1,.637.242A.845.845,0,0,1,48,4.3a.811.811,0,0,1-.223.574.829.829,0,0,1-.637.238.814.814,0,0,1-.637-.238A.828.828,0,0,1,46.289,4.3ZM55.5,13.359V3h1.453V15H55.625Zm-5.687-2.492V10.7a6.108,6.108,0,0,1,.238-1.762,4.157,4.157,0,0,1,.68-1.363A3.068,3.068,0,0,1,51.785,6.7a3.007,3.007,0,0,1,1.371-.309,3.283,3.283,0,0,1,1.395.277,2.768,2.768,0,0,1,1.016.8,4.04,4.04,0,0,1,.66,1.27,7.985,7.985,0,0,1,.336,1.68v.719a7.512,7.512,0,0,1-.332,1.672,4.049,4.049,0,0,1-.664,1.266,2.776,2.776,0,0,1-1.02.8,3.329,3.329,0,0,1-1.406.277,2.883,2.883,0,0,1-1.355-.32,3.157,3.157,0,0,1-1.055-.9,4.262,4.262,0,0,1-.68-1.363A5.854,5.854,0,0,1,49.813,10.867Zm1.453-.164v.164a5.236,5.236,0,0,0,.129,1.188,3.048,3.048,0,0,0,.4.977,1.982,1.982,0,0,0,.7.66,2.017,2.017,0,0,0,1.008.238,2.119,2.119,0,0,0,1.184-.3,2.285,2.285,0,0,0,.746-.8,4.646,4.646,0,0,0,.438-1.086V9.852a4.434,4.434,0,0,0-.27-.832,2.756,2.756,0,0,0-.453-.719,2.033,2.033,0,0,0-.68-.5,2.229,2.229,0,0,0-.949-.187,2,2,0,0,0-1.02.246,2.029,2.029,0,0,0-.7.672,3.092,3.092,0,0,0-.4.984A5.288,5.288,0,0,0,51.266,10.7ZM64.18,13.555V9.2a1.815,1.815,0,0,0-.2-.871,1.357,1.357,0,0,0-.6-.574,2.152,2.152,0,0,0-.984-.2,2.282,2.282,0,0,0-.957.188,1.635,1.635,0,0,0-.641.492,1.067,1.067,0,0,0-.23.656H59.125a1.912,1.912,0,0,1,.234-.9,2.649,2.649,0,0,1,.676-.809A3.405,3.405,0,0,1,61.1,6.605a4.223,4.223,0,0,1,1.387-.215,4,4,0,0,1,1.629.313,2.469,2.469,0,0,1,1.109.941,2.867,2.867,0,0,1,.4,1.574v3.938a5.852,5.852,0,0,0,.074.9,3.394,3.394,0,0,0,.223.82V15H64.414a2.7,2.7,0,0,1-.172-.668A5.278,5.278,0,0,1,64.18,13.555Zm.25-3.68.016,1.016H62.984a5.606,5.606,0,0,0-1.1.1,2.582,2.582,0,0,0-.812.293,1.385,1.385,0,0,0-.5.488,1.326,1.326,0,0,0-.172.684,1.488,1.488,0,0,0,.18.727,1.278,1.278,0,0,0,.543.52,1.9,1.9,0,0,0,.895.191,2.379,2.379,0,0,0,1.172-.281A2.481,2.481,0,0,0,64,12.922a1.493,1.493,0,0,0,.324-.789l.617.7a2.1,2.1,0,0,1-.3.727,3.491,3.491,0,0,1-1.6,1.363,3.089,3.089,0,0,1-1.238.238,3.21,3.21,0,0,1-1.5-.336,2.531,2.531,0,0,1-1-.9,2.339,2.339,0,0,1-.355-1.27,2.6,2.6,0,0,1,.266-1.2,2.347,2.347,0,0,1,.766-.867,3.688,3.688,0,0,1,1.2-.527,6.347,6.347,0,0,1,1.57-.18Zm8.8,3.484V3H74.68V15H73.352Zm-5.687-2.492V10.7a6.108,6.108,0,0,1,.238-1.762,4.157,4.157,0,0,1,.68-1.363A3.068,3.068,0,0,1,69.512,6.7a3.007,3.007,0,0,1,1.371-.309,3.283,3.283,0,0,1,1.395.277,2.768,2.768,0,0,1,1.016.8,4.04,4.04,0,0,1,.66,1.27,7.984,7.984,0,0,1,.336,1.68v.719a7.512,7.512,0,0,1-.332,1.672,4.049,4.049,0,0,1-.664,1.266,2.776,2.776,0,0,1-1.02.8,3.329,3.329,0,0,1-1.406.277,2.883,2.883,0,0,1-1.355-.32,3.157,3.157,0,0,1-1.055-.9,4.262,4.262,0,0,1-.68-1.363A5.854,5.854,0,0,1,67.539,10.867Zm1.453-.164v.164a5.236,5.236,0,0,0,.129,1.188,3.048,3.048,0,0,0,.4.977,1.982,1.982,0,0,0,.7.66,2.017,2.017,0,0,0,1.008.238,2.119,2.119,0,0,0,1.184-.3,2.285,2.285,0,0,0,.746-.8,4.646,4.646,0,0,0,.438-1.086V9.852a4.434,4.434,0,0,0-.27-.832,2.756,2.756,0,0,0-.453-.719,2.033,2.033,0,0,0-.68-.5,2.229,2.229,0,0,0-.949-.187,2,2,0,0,0-1.02.246,2.029,2.029,0,0,0-.7.672,3.092,3.092,0,0,0-.4.984A5.288,5.288,0,0,0,68.992,10.7ZM82.461,3V15H81.008V3Zm3.891,3.547V15H84.9V6.547ZM84.789,4.3A.863.863,0,0,1,85,3.711a.807.807,0,0,1,.637-.242.822.822,0,0,1,.637.242A.845.845,0,0,1,86.5,4.3a.811.811,0,0,1-.223.574.829.829,0,0,1-.637.238A.814.814,0,0,1,85,4.879.828.828,0,0,1,84.789,4.3Zm5.32,3.922V15H88.656V6.547h1.375Zm-.3,2.227-.672-.023a5.817,5.817,0,0,1,.227-1.605,3.805,3.805,0,0,1,.648-1.285,2.918,2.918,0,0,1,1.07-.848,3.457,3.457,0,0,1,1.484-.3,3.416,3.416,0,0,1,1.094.168,2.244,2.244,0,0,1,.867.527,2.412,2.412,0,0,1,.57.922,4.019,4.019,0,0,1,.2,1.359V15H93.859V9.438a2.177,2.177,0,0,0-.223-1.062,1.335,1.335,0,0,0-.629-.582,2.605,2.605,0,0,0-2.023.043,1.808,1.808,0,0,0-.687.625,2.756,2.756,0,0,0-.371.91A5,5,0,0,0,89.813,10.453Zm5.477-.8-.969.3a4.185,4.185,0,0,1,.23-1.336A3.528,3.528,0,0,1,95.2,7.477a3.073,3.073,0,0,1,1.051-.793,3.331,3.331,0,0,1,1.43-.293,3.736,3.736,0,0,1,1.207.18,2.232,2.232,0,0,1,.891.551,2.381,2.381,0,0,1,.551.949,4.477,4.477,0,0,1,.188,1.375V15H99.063V9.43a2.269,2.269,0,0,0-.223-1.105,1.222,1.222,0,0,0-.625-.555,2.584,2.584,0,0,0-.957-.16,2.049,2.049,0,0,0-.844.164,1.766,1.766,0,0,0-.617.449,1.968,1.968,0,0,0-.379.652A2.342,2.342,0,0,0,95.289,9.656Zm8.984-3.109V15H102.82V6.547ZM102.711,4.3a.863.863,0,0,1,.215-.594.807.807,0,0,1,.637-.242.822.822,0,0,1,.637.242.845.845,0,0,1,.223.594.811.811,0,0,1-.223.574.829.829,0,0,1-.637.238.814.814,0,0,1-.637-.238A.828.828,0,0,1,102.711,4.3Zm7.422,2.242V7.656h-4.57V6.547Zm-3.023-2.055h1.445v8.414a1.269,1.269,0,0,0,.133.648.635.635,0,0,0,.344.289,1.424,1.424,0,0,0,.453.07,2.183,2.183,0,0,0,.379-.035q.2-.035.3-.059l.008,1.18a3.66,3.66,0,0,1-1.117.156,2.252,2.252,0,0,1-.977-.211,1.548,1.548,0,0,1-.707-.707,2.889,2.889,0,0,1-.262-1.34Zm9.7,9.063V9.2a1.815,1.815,0,0,0-.2-.871,1.357,1.357,0,0,0-.6-.574,2.152,2.152,0,0,0-.984-.2,2.282,2.282,0,0,0-.957.188,1.635,1.635,0,0,0-.641.492,1.067,1.067,0,0,0-.23.656h-1.445a1.912,1.912,0,0,1,.234-.9,2.649,2.649,0,0,1,.676-.809,3.405,3.405,0,0,1,1.063-.578,4.223,4.223,0,0,1,1.387-.215,4,4,0,0,1,1.629.313,2.469,2.469,0,0,1,1.109.941,2.867,2.867,0,0,1,.4,1.574v3.938a5.852,5.852,0,0,0,.074.9,3.394,3.394,0,0,0,.223.82V15h-1.508a2.7,2.7,0,0,1-.172-.668A5.278,5.278,0,0,1,116.813,13.555Zm.25-3.68.016,1.016h-1.461a5.606,5.606,0,0,0-1.1.1,2.582,2.582,0,0,0-.812.293,1.385,1.385,0,0,0-.5.488,1.326,1.326,0,0,0-.172.684,1.488,1.488,0,0,0,.18.727,1.278,1.278,0,0,0,.543.52,1.9,1.9,0,0,0,.895.191,2.379,2.379,0,0,0,1.172-.281,2.482,2.482,0,0,0,.809-.687,1.493,1.493,0,0,0,.324-.789l.617.7a2.1,2.1,0,0,1-.3.727,3.491,3.491,0,0,1-1.6,1.363,3.089,3.089,0,0,1-1.238.238,3.21,3.21,0,0,1-1.5-.336,2.531,2.531,0,0,1-1-.9,2.339,2.339,0,0,1-.355-1.27,2.6,2.6,0,0,1,.266-1.2,2.347,2.347,0,0,1,.766-.867,3.688,3.688,0,0,1,1.2-.527,6.347,6.347,0,0,1,1.57-.18Zm8.8,3.484V3h1.453V15h-1.328Zm-5.687-2.492V10.7a6.108,6.108,0,0,1,.238-1.762,4.157,4.157,0,0,1,.68-1.363,3.068,3.068,0,0,1,1.055-.879,3.007,3.007,0,0,1,1.371-.309,3.283,3.283,0,0,1,1.395.277,2.768,2.768,0,0,1,1.016.8,4.04,4.04,0,0,1,.66,1.27,7.984,7.984,0,0,1,.336,1.68v.719a7.512,7.512,0,0,1-.332,1.672,4.049,4.049,0,0,1-.664,1.266,2.776,2.776,0,0,1-1.02.8,3.329,3.329,0,0,1-1.406.277,2.883,2.883,0,0,1-1.355-.32,3.157,3.157,0,0,1-1.055-.9,4.262,4.262,0,0,1-.68-1.363A5.854,5.854,0,0,1,120.172,10.867Zm1.453-.164v.164a5.236,5.236,0,0,0,.129,1.188,3.048,3.048,0,0,0,.4.977,1.982,1.982,0,0,0,.7.66,2.017,2.017,0,0,0,1.008.238,2.119,2.119,0,0,0,1.184-.3,2.285,2.285,0,0,0,.746-.8,4.646,4.646,0,0,0,.438-1.086V9.852a4.434,4.434,0,0,0-.27-.832A2.756,2.756,0,0,0,125.5,8.3a2.033,2.033,0,0,0-.68-.5,2.229,2.229,0,0,0-.949-.187,2,2,0,0,0-1.02.246,2.029,2.029,0,0,0-.7.672,3.092,3.092,0,0,0-.4.984A5.288,5.288,0,0,0,121.625,10.7Zm12.914,2.852V9.2a1.815,1.815,0,0,0-.2-.871,1.357,1.357,0,0,0-.6-.574,2.152,2.152,0,0,0-.984-.2,2.282,2.282,0,0,0-.957.188,1.635,1.635,0,0,0-.641.492,1.067,1.067,0,0,0-.23.656h-1.445a1.912,1.912,0,0,1,.234-.9,2.649,2.649,0,0,1,.676-.809,3.405,3.405,0,0,1,1.063-.578,4.223,4.223,0,0,1,1.387-.215,4,4,0,0,1,1.629.313,2.469,2.469,0,0,1,1.109.941,2.867,2.867,0,0,1,.4,1.574v3.938a5.851,5.851,0,0,0,.074.9,3.4,3.4,0,0,0,.223.82V15h-1.508a2.7,2.7,0,0,1-.172-.668A5.277,5.277,0,0,1,134.539,13.555Zm.25-3.68.016,1.016h-1.461a5.606,5.606,0,0,0-1.1.1,2.582,2.582,0,0,0-.812.293,1.385,1.385,0,0,0-.5.488,1.326,1.326,0,0,0-.172.684,1.488,1.488,0,0,0,.18.727,1.278,1.278,0,0,0,.543.52,1.9,1.9,0,0,0,.895.191,2.379,2.379,0,0,0,1.172-.281,2.481,2.481,0,0,0,.809-.687,1.493,1.493,0,0,0,.324-.789l.617.7a2.1,2.1,0,0,1-.3.727,3.491,3.491,0,0,1-1.6,1.363,3.089,3.089,0,0,1-1.238.238,3.209,3.209,0,0,1-1.5-.336,2.531,2.531,0,0,1-1-.9,2.339,2.339,0,0,1-.355-1.27,2.6,2.6,0,0,1,.266-1.2,2.347,2.347,0,0,1,.766-.867,3.688,3.688,0,0,1,1.2-.527,6.347,6.347,0,0,1,1.57-.18ZM6.43,33.359V23H7.883V35H6.555ZM.742,30.867V30.7A6.108,6.108,0,0,1,.98,28.941a4.157,4.157,0,0,1,.68-1.363A3.068,3.068,0,0,1,2.715,26.7a3.007,3.007,0,0,1,1.371-.309,3.283,3.283,0,0,1,1.395.277,2.768,2.768,0,0,1,1.016.8,4.04,4.04,0,0,1,.66,1.27,7.985,7.985,0,0,1,.336,1.68v.719a7.512,7.512,0,0,1-.332,1.672A4.049,4.049,0,0,1,6.5,34.078a2.776,2.776,0,0,1-1.02.8,3.329,3.329,0,0,1-1.406.277,2.883,2.883,0,0,1-1.355-.32,3.157,3.157,0,0,1-1.055-.9,4.262,4.262,0,0,1-.68-1.363A5.854,5.854,0,0,1,.742,30.867ZM2.2,30.7v.164a5.236,5.236,0,0,0,.129,1.188,3.048,3.048,0,0,0,.4.977,1.982,1.982,0,0,0,.7.66,2.017,2.017,0,0,0,1.008.238,2.119,2.119,0,0,0,1.184-.3,2.285,2.285,0,0,0,.746-.8A4.646,4.646,0,0,0,6.8,31.734V29.852a4.434,4.434,0,0,0-.27-.832,2.756,2.756,0,0,0-.453-.719,2.033,2.033,0,0,0-.68-.5,2.229,2.229,0,0,0-.949-.187,2,2,0,0,0-1.02.246,2.029,2.029,0,0,0-.7.672,3.092,3.092,0,0,0-.4.984A5.288,5.288,0,0,0,2.2,30.7Zm11.438,4.453a4.082,4.082,0,0,1-1.6-.3,3.535,3.535,0,0,1-1.227-.848,3.756,3.756,0,0,1-.785-1.3A4.756,4.756,0,0,1,9.75,31.07v-.328a5.192,5.192,0,0,1,.3-1.84,4.115,4.115,0,0,1,.828-1.371,3.547,3.547,0,0,1,1.188-.852,3.411,3.411,0,0,1,1.375-.289,3.63,3.63,0,0,1,1.566.313,2.871,2.871,0,0,1,1.082.871,3.786,3.786,0,0,1,.625,1.313,6.308,6.308,0,0,1,.2,1.645v.648H10.609V30h4.867v-.109a3.679,3.679,0,0,0-.23-1.094,2,2,0,0,0-.629-.875,1.825,1.825,0,0,0-1.172-.344,2,2,0,0,0-.906.207,1.966,1.966,0,0,0-.711.613,3.068,3.068,0,0,0-.461.992,5.029,5.029,0,0,0-.164,1.352v.328a3.7,3.7,0,0,0,.168,1.129,2.793,2.793,0,0,0,.492.926,2.309,2.309,0,0,0,.789.625,2.386,2.386,0,0,0,1.059.227,2.517,2.517,0,0,0,1.3-.312,3.211,3.211,0,0,0,.93-.836l.875.7a4.044,4.044,0,0,1-.7.789,3.327,3.327,0,0,1-1.035.609A4.055,4.055,0,0,1,13.633,35.156Zm10.922-6.8V35H22.3V26.547h2.109Zm-.328,2.125h-.609a5.516,5.516,0,0,1,.242-1.691,3.894,3.894,0,0,1,.68-1.289,2.968,2.968,0,0,1,1.043-.82,3.142,3.142,0,0,1,1.355-.285,3.275,3.275,0,0,1,1.086.172,2.109,2.109,0,0,1,.848.547,2.487,2.487,0,0,1,.547.992,5.144,5.144,0,0,1,.191,1.508V35H27.344V29.6a1.993,1.993,0,0,0-.156-.875.9.9,0,0,0-.457-.441,1.875,1.875,0,0,0-.738-.129,1.626,1.626,0,0,0-.785.18,1.537,1.537,0,0,0-.547.5,2.354,2.354,0,0,0-.324.738A3.6,3.6,0,0,0,24.227,30.477Zm10.984,4.68a4.669,4.669,0,0,1-1.766-.316,3.791,3.791,0,0,1-1.324-.879,3.883,3.883,0,0,1-.832-1.309A4.362,4.362,0,0,1,31,31.063V30.75a5.387,5.387,0,0,1,.273-1.758,4.1,4.1,0,0,1,.785-1.383,3.436,3.436,0,0,1,1.246-.9,4.147,4.147,0,0,1,1.656-.316,4.027,4.027,0,0,1,1.594.3,3.158,3.158,0,0,1,1.168.844,3.678,3.678,0,0,1,.715,1.309,5.564,5.564,0,0,1,.242,1.691v.938H31.961v-1.5h4.508V29.8a2.015,2.015,0,0,0-.168-.84,1.356,1.356,0,0,0-.5-.59,1.547,1.547,0,0,0-.859-.219,1.443,1.443,0,0,0-.766.2,1.48,1.48,0,0,0-.52.547,2.821,2.821,0,0,0-.3.824,5.121,5.121,0,0,0-.1,1.035v.313A2.924,2.924,0,0,0,33.4,32a2.192,2.192,0,0,0,.414.742,1.843,1.843,0,0,0,.656.484,2.143,2.143,0,0,0,.879.172,2.728,2.728,0,0,0,1.137-.238,2.424,2.424,0,0,0,.91-.723l1.094,1.188a3.362,3.362,0,0,1-.723.734,3.868,3.868,0,0,1-1.1.574A4.438,4.438,0,0,1,35.211,35.156Zm10.1-8.609h2.039v8.172a3.6,3.6,0,0,1-.512,1.965,3.236,3.236,0,0,1-1.426,1.227,5.064,5.064,0,0,1-2.125.418,4.838,4.838,0,0,1-1.121-.141,4.424,4.424,0,0,1-1.125-.437,2.957,2.957,0,0,1-.895-.75l.992-1.328a2.852,2.852,0,0,0,.906.707,2.547,2.547,0,0,0,1.141.254,2.187,2.187,0,0,0,1.031-.223,1.528,1.528,0,0,0,.648-.648,2.161,2.161,0,0,0,.227-1.027V28.5Zm-5.687,4.328v-.164a6.108,6.108,0,0,1,.238-1.762,4.157,4.157,0,0,1,.68-1.363,3.054,3.054,0,0,1,1.074-.883,3.186,3.186,0,0,1,1.43-.312,2.912,2.912,0,0,1,1.414.313,2.566,2.566,0,0,1,.938.887,4.773,4.773,0,0,1,.574,1.352,12.97,12.97,0,0,1,.324,1.7V31a10.008,10.008,0,0,1-.352,1.641,4.975,4.975,0,0,1-.617,1.324,2.608,2.608,0,0,1-2.3,1.191,3.062,3.062,0,0,1-1.41-.32,3.147,3.147,0,0,1-1.074-.9,4.222,4.222,0,0,1-.684-1.359A5.815,5.815,0,0,1,39.625,30.875Zm2.25-.164v.164a4.46,4.46,0,0,0,.1.977,2.587,2.587,0,0,0,.316.8,1.57,1.57,0,0,0,.539.539,1.487,1.487,0,0,0,.77.191,1.777,1.777,0,0,0,1.008-.262A1.6,1.6,0,0,0,45.2,32.4a3.126,3.126,0,0,0,.227-1.062V30.313a3.505,3.505,0,0,0-.133-.887,2.122,2.122,0,0,0-.328-.676,1.418,1.418,0,0,0-.547-.437,1.875,1.875,0,0,0-.8-.156,1.441,1.441,0,0,0-.77.2,1.653,1.653,0,0,0-.539.543,2.668,2.668,0,0,0-.324.809A4.377,4.377,0,0,0,41.875,30.711Zm6.867.148V30.7a5.321,5.321,0,0,1,.266-1.715,3.965,3.965,0,0,1,.773-1.363,3.506,3.506,0,0,1,1.25-.9,4.218,4.218,0,0,1,1.7-.324,4.275,4.275,0,0,1,1.711.324,3.528,3.528,0,0,1,1.262.9,3.931,3.931,0,0,1,.777,1.363A5.321,5.321,0,0,1,56.75,30.7v.164a5.3,5.3,0,0,1-.266,1.707,3.973,3.973,0,0,1-.777,1.367,3.481,3.481,0,0,1-1.254.9,4.7,4.7,0,0,1-3.41,0,3.474,3.474,0,0,1-1.258-.9,3.973,3.973,0,0,1-.777-1.367A5.3,5.3,0,0,1,48.742,30.859Zm2.25-.164v.164a4.977,4.977,0,0,0,.094.992,2.569,2.569,0,0,0,.3.809,1.507,1.507,0,0,0,.543.543,1.607,1.607,0,0,0,.82.2,1.574,1.574,0,0,0,.8-.2,1.477,1.477,0,0,0,.539-.543,2.7,2.7,0,0,0,.3-.809,4.784,4.784,0,0,0,.1-.992V30.7a4.648,4.648,0,0,0-.1-.973,2.741,2.741,0,0,0-.3-.812,1.476,1.476,0,0,0-1.355-.762,1.521,1.521,0,0,0-.809.2,1.563,1.563,0,0,0-.539.559,2.667,2.667,0,0,0-.3.813A4.835,4.835,0,0,0,50.992,30.7Zm10.633,2.7a1.621,1.621,0,0,0,.734-.16,1.231,1.231,0,0,0,.5-.453,1.326,1.326,0,0,0,.191-.691h2.117a2.8,2.8,0,0,1-.477,1.582,3.235,3.235,0,0,1-1.258,1.086,3.893,3.893,0,0,1-1.766.395,4.154,4.154,0,0,1-1.715-.328,3.328,3.328,0,0,1-1.215-.91,3.923,3.923,0,0,1-.727-1.359,5.579,5.579,0,0,1-.242-1.668v-.227a5.606,5.606,0,0,1,.242-1.676,3.923,3.923,0,0,1,.727-1.359,3.335,3.335,0,0,1,1.211-.91,4.106,4.106,0,0,1,1.7-.328,3.979,3.979,0,0,1,1.824.4,3.008,3.008,0,0,1,1.234,1.137,3.345,3.345,0,0,1,.457,1.746H63.055a1.8,1.8,0,0,0-.176-.766,1.358,1.358,0,0,0-.484-.551,1.39,1.39,0,0,0-.777-.207,1.431,1.431,0,0,0-.8.207,1.38,1.38,0,0,0-.484.563,2.769,2.769,0,0,0-.238.8,6.436,6.436,0,0,0-.066.941v.227a6.916,6.916,0,0,0,.063.945,2.575,2.575,0,0,0,.238.8,1.385,1.385,0,0,0,.488.555A1.468,1.468,0,0,0,61.625,33.4Zm7.219-6.852V35H66.586V26.547Zm-2.4-2.2a1.062,1.062,0,0,1,.344-.812,1.481,1.481,0,0,1,1.84,0,1.123,1.123,0,0,1,0,1.625,1.481,1.481,0,0,1-1.84,0A1.062,1.062,0,0,1,66.445,24.344Zm8.82,8.75V29.328a1.683,1.683,0,0,0-.133-.7,1,1,0,0,0-.41-.457,1.39,1.39,0,0,0-.715-.164,1.508,1.508,0,0,0-.648.129.971.971,0,0,0-.422.367,1.035,1.035,0,0,0-.148.559h-2.25a2.2,2.2,0,0,1,.25-1.023,2.589,2.589,0,0,1,.727-.855,3.628,3.628,0,0,1,1.137-.582,4.852,4.852,0,0,1,1.48-.211,4.406,4.406,0,0,1,1.75.328,2.7,2.7,0,0,1,1.207.984,2.876,2.876,0,0,1,.441,1.641v3.617a6.139,6.139,0,0,0,.086,1.137,3,3,0,0,0,.25.77V35H75.594a3.166,3.166,0,0,1-.246-.863A6.677,6.677,0,0,1,75.266,33.094Zm.3-3.242.016,1.273H74.32a2.627,2.627,0,0,0-.773.1,1.472,1.472,0,0,0-.539.285,1.112,1.112,0,0,0-.309.426,1.408,1.408,0,0,0-.1.531,1.022,1.022,0,0,0,.133.52.913.913,0,0,0,.383.359,1.262,1.262,0,0,0,.586.129,1.826,1.826,0,0,0,.883-.2,1.65,1.65,0,0,0,.582-.5,1.051,1.051,0,0,0,.215-.562l.594.953a4.017,4.017,0,0,1-.34.664,3.119,3.119,0,0,1-.543.645,2.67,2.67,0,0,1-.789.492,2.842,2.842,0,0,1-1.094.191,3.228,3.228,0,0,1-1.457-.324,2.586,2.586,0,0,1-1.031-.9,2.322,2.322,0,0,1-.379-1.309,2.671,2.671,0,0,1,.25-1.18,2.32,2.32,0,0,1,.738-.871,3.5,3.5,0,0,1,1.223-.539,7.064,7.064,0,0,1,1.7-.184Zm7.2,3.547a1.621,1.621,0,0,0,.734-.16,1.231,1.231,0,0,0,.5-.453,1.326,1.326,0,0,0,.191-.691H86.3a2.8,2.8,0,0,1-.477,1.582,3.235,3.235,0,0,1-1.258,1.086,3.893,3.893,0,0,1-1.766.395,4.154,4.154,0,0,1-1.715-.328,3.328,3.328,0,0,1-1.215-.91,3.923,3.923,0,0,1-.727-1.359,5.578,5.578,0,0,1-.242-1.668v-.227a5.606,5.606,0,0,1,.242-1.676,3.923,3.923,0,0,1,.727-1.359,3.335,3.335,0,0,1,1.211-.91,4.106,4.106,0,0,1,1.7-.328,3.979,3.979,0,0,1,1.824.4,3.008,3.008,0,0,1,1.234,1.137,3.345,3.345,0,0,1,.457,1.746H84.188a1.8,1.8,0,0,0-.176-.766,1.358,1.358,0,0,0-.484-.551,1.39,1.39,0,0,0-.777-.207,1.431,1.431,0,0,0-.8.207,1.38,1.38,0,0,0-.484.563,2.769,2.769,0,0,0-.238.8,6.435,6.435,0,0,0-.066.941v.227a6.916,6.916,0,0,0,.063.945,2.575,2.575,0,0,0,.238.8,1.385,1.385,0,0,0,.488.555A1.468,1.468,0,0,0,82.758,33.4Zm7.219-6.852V35H87.719V26.547Zm-2.4-2.2a1.062,1.062,0,0,1,.344-.812,1.481,1.481,0,0,1,1.84,0,1.123,1.123,0,0,1,0,1.625,1.481,1.481,0,0,1-1.84,0A1.062,1.062,0,0,1,87.578,24.344Zm3.9,6.516V30.7a5.321,5.321,0,0,1,.266-1.715,3.965,3.965,0,0,1,.773-1.363,3.506,3.506,0,0,1,1.25-.9,4.218,4.218,0,0,1,1.7-.324,4.275,4.275,0,0,1,1.711.324,3.528,3.528,0,0,1,1.262.9,3.931,3.931,0,0,1,.777,1.363,5.321,5.321,0,0,1,.266,1.715v.164a5.3,5.3,0,0,1-.266,1.707,3.973,3.973,0,0,1-.777,1.367,3.481,3.481,0,0,1-1.254.9,4.7,4.7,0,0,1-3.41,0,3.474,3.474,0,0,1-1.258-.9,3.973,3.973,0,0,1-.777-1.367A5.3,5.3,0,0,1,91.477,30.859Zm2.25-.164v.164a4.977,4.977,0,0,0,.094.992,2.569,2.569,0,0,0,.3.809,1.507,1.507,0,0,0,.543.543,1.607,1.607,0,0,0,.82.2,1.574,1.574,0,0,0,.8-.2,1.477,1.477,0,0,0,.539-.543,2.7,2.7,0,0,0,.3-.809,4.784,4.784,0,0,0,.1-.992V30.7a4.648,4.648,0,0,0-.1-.973,2.741,2.741,0,0,0-.3-.812,1.476,1.476,0,0,0-1.355-.762,1.521,1.521,0,0,0-.809.2,1.564,1.564,0,0,0-.539.559,2.667,2.667,0,0,0-.3.813A4.835,4.835,0,0,0,93.727,30.7Zm.664-5.289L95.922,23h2.445l-2.148,2.406Zm8.68,2.945V35h-2.25V26.547h2.109Zm-.328,2.125h-.609a5.516,5.516,0,0,1,.242-1.691,3.894,3.894,0,0,1,.68-1.289,2.968,2.968,0,0,1,1.043-.82,3.142,3.142,0,0,1,1.355-.285,3.275,3.275,0,0,1,1.086.172,2.109,2.109,0,0,1,.848.547,2.487,2.487,0,0,1,.547.992,5.144,5.144,0,0,1,.191,1.508V35h-2.266V29.6a1.993,1.993,0,0,0-.156-.875.9.9,0,0,0-.457-.441,1.875,1.875,0,0,0-.738-.129,1.626,1.626,0,0,0-.785.18,1.537,1.537,0,0,0-.547.5,2.354,2.354,0,0,0-.324.738A3.6,3.6,0,0,0,102.742,30.477Zm16.063,2.68V23h2.266V35h-2.039Zm-5.344-2.281v-.164a6.619,6.619,0,0,1,.219-1.762,4.1,4.1,0,0,1,.641-1.363,2.919,2.919,0,0,1,1.039-.883,3.07,3.07,0,0,1,1.406-.312,2.62,2.62,0,0,1,1.3.313,2.83,2.83,0,0,1,.953.887,4.994,4.994,0,0,1,.637,1.352,9.457,9.457,0,0,1,.352,1.7V31a9.032,9.032,0,0,1-.352,1.641,4.923,4.923,0,0,1-.637,1.324,2.845,2.845,0,0,1-.957.879,2.659,2.659,0,0,1-1.312.313,2.985,2.985,0,0,1-1.4-.32,2.939,2.939,0,0,1-1.031-.9,4.255,4.255,0,0,1-.637-1.359A6.3,6.3,0,0,1,113.461,30.875Zm2.25-.164v.164a5.485,5.485,0,0,0,.082.977,2.616,2.616,0,0,0,.273.8,1.43,1.43,0,0,0,.5.539,1.4,1.4,0,0,0,.754.191,1.628,1.628,0,0,0,.953-.262,1.66,1.66,0,0,0,.574-.723,3.065,3.065,0,0,0,.23-1.062V30.313a3.887,3.887,0,0,0-.137-.887,2.018,2.018,0,0,0-.328-.676,1.491,1.491,0,0,0-.531-.437,1.667,1.667,0,0,0-.746-.156,1.366,1.366,0,0,0-.75.2,1.49,1.49,0,0,0-.5.543,2.712,2.712,0,0,0-.281.809A5.292,5.292,0,0,0,115.711,30.711Zm11,4.445a4.669,4.669,0,0,1-1.766-.316,3.791,3.791,0,0,1-1.324-.879,3.883,3.883,0,0,1-.832-1.309,4.362,4.362,0,0,1-.289-1.59V30.75a5.387,5.387,0,0,1,.273-1.758,4.1,4.1,0,0,1,.785-1.383,3.436,3.436,0,0,1,1.246-.9,4.147,4.147,0,0,1,1.656-.316,4.027,4.027,0,0,1,1.594.3,3.158,3.158,0,0,1,1.168.844,3.677,3.677,0,0,1,.715,1.309,5.564,5.564,0,0,1,.242,1.691v.938h-6.719v-1.5h4.508V29.8a2.015,2.015,0,0,0-.168-.84,1.356,1.356,0,0,0-.5-.59,1.547,1.547,0,0,0-.859-.219,1.443,1.443,0,0,0-.766.2,1.48,1.48,0,0,0-.52.547,2.821,2.821,0,0,0-.3.824,5.122,5.122,0,0,0-.1,1.035v.313A2.924,2.924,0,0,0,124.9,32a2.192,2.192,0,0,0,.414.742,1.843,1.843,0,0,0,.656.484,2.143,2.143,0,0,0,.879.172,2.728,2.728,0,0,0,1.137-.238,2.424,2.424,0,0,0,.91-.723l1.094,1.188a3.362,3.362,0,0,1-.723.734,3.868,3.868,0,0,1-1.1.574A4.438,4.438,0,0,1,126.711,35.156ZM.875,43h2.25V53.063L2.9,55H.875Zm7.6,7.688v.164a7.08,7.08,0,0,1-.2,1.734,3.964,3.964,0,0,1-.613,1.363,2.882,2.882,0,0,1-1.027.891,3.1,3.1,0,0,1-1.441.316,2.6,2.6,0,0,1-2.289-1.2,5.017,5.017,0,0,1-.617-1.336,10.168,10.168,0,0,1-.352-1.672v-.359a10.168,10.168,0,0,1,.352-1.672,5.017,5.017,0,0,1,.617-1.336,2.727,2.727,0,0,1,.945-.883,2.692,2.692,0,0,1,1.328-.312,3.17,3.17,0,0,1,1.457.316,2.829,2.829,0,0,1,1.031.891,4.01,4.01,0,0,1,.609,1.359A7.033,7.033,0,0,1,8.477,50.688Zm-2.25.164v-.164a6.069,6.069,0,0,0-.074-.973,2.679,2.679,0,0,0-.254-.8,1.432,1.432,0,0,0-.488-.551,1.417,1.417,0,0,0-.793-.2,1.77,1.77,0,0,0-.781.156,1.414,1.414,0,0,0-.527.438A1.949,1.949,0,0,0,3,49.418a4.171,4.171,0,0,0-.125.848v1.023a3.353,3.353,0,0,0,.207,1.09,1.592,1.592,0,0,0,.563.742,1.668,1.668,0,0,0,.988.27,1.513,1.513,0,0,0,.789-.187,1.287,1.287,0,0,0,.488-.531,2.634,2.634,0,0,0,.246-.809A6.781,6.781,0,0,0,6.227,50.852Zm6.023-4.3V55H9.992V46.547Zm-2.4-2.2a1.062,1.062,0,0,1,.344-.812,1.3,1.3,0,0,1,.922-.32,1.3,1.3,0,0,1,.918.32,1.123,1.123,0,0,1,0,1.625,1.3,1.3,0,0,1-.918.32,1.3,1.3,0,0,1-.922-.32A1.062,1.062,0,0,1,9.852,44.344ZM18,55.156a4.669,4.669,0,0,1-1.766-.316,3.791,3.791,0,0,1-1.324-.879,3.883,3.883,0,0,1-.832-1.309,4.362,4.362,0,0,1-.289-1.59V50.75a5.387,5.387,0,0,1,.273-1.758,4.1,4.1,0,0,1,.785-1.383,3.436,3.436,0,0,1,1.246-.9,4.147,4.147,0,0,1,1.656-.316,4.027,4.027,0,0,1,1.594.3,3.158,3.158,0,0,1,1.168.844,3.678,3.678,0,0,1,.715,1.309,5.564,5.564,0,0,1,.242,1.691v.938H14.75v-1.5h4.508V49.8a2.015,2.015,0,0,0-.168-.84,1.356,1.356,0,0,0-.5-.59,1.547,1.547,0,0,0-.859-.219,1.443,1.443,0,0,0-.766.2,1.48,1.48,0,0,0-.52.547,2.821,2.821,0,0,0-.3.824,5.121,5.121,0,0,0-.1,1.035v.313a2.924,2.924,0,0,0,.145.938,2.192,2.192,0,0,0,.414.742,1.843,1.843,0,0,0,.656.484,2.143,2.143,0,0,0,.879.172,2.728,2.728,0,0,0,1.137-.238,2.424,2.424,0,0,0,.91-.723l1.094,1.188a3.362,3.362,0,0,1-.723.734,3.868,3.868,0,0,1-1.1.574A4.438,4.438,0,0,1,18,55.156Zm6.953-6.8V55H22.7V46.547h2.109Zm-.328,2.125h-.609a5.516,5.516,0,0,1,.242-1.691,3.894,3.894,0,0,1,.68-1.289,2.968,2.968,0,0,1,1.043-.82,3.142,3.142,0,0,1,1.355-.285,3.275,3.275,0,0,1,1.086.172,2.109,2.109,0,0,1,.848.547,2.487,2.487,0,0,1,.547.992,5.144,5.144,0,0,1,.191,1.508V55H27.742V49.6a1.993,1.993,0,0,0-.156-.875.9.9,0,0,0-.457-.441,1.875,1.875,0,0,0-.738-.129,1.626,1.626,0,0,0-.785.18,1.537,1.537,0,0,0-.547.5,2.354,2.354,0,0,0-.324.738A3.6,3.6,0,0,0,24.625,50.477Zm10.984,4.68a4.669,4.669,0,0,1-1.766-.316,3.791,3.791,0,0,1-1.324-.879,3.883,3.883,0,0,1-.832-1.309,4.362,4.362,0,0,1-.289-1.59V50.75a5.387,5.387,0,0,1,.273-1.758,4.1,4.1,0,0,1,.785-1.383,3.436,3.436,0,0,1,1.246-.9,4.147,4.147,0,0,1,1.656-.316,4.027,4.027,0,0,1,1.594.3,3.158,3.158,0,0,1,1.168.844,3.678,3.678,0,0,1,.715,1.309,5.564,5.564,0,0,1,.242,1.691v.938H32.359v-1.5h4.508V49.8a2.015,2.015,0,0,0-.168-.84,1.356,1.356,0,0,0-.5-.59,1.547,1.547,0,0,0-.859-.219,1.443,1.443,0,0,0-.766.2,1.48,1.48,0,0,0-.52.547,2.821,2.821,0,0,0-.3.824,5.121,5.121,0,0,0-.1,1.035v.313A2.924,2.924,0,0,0,33.8,52a2.192,2.192,0,0,0,.414.742,1.843,1.843,0,0,0,.656.484,2.143,2.143,0,0,0,.879.172,2.728,2.728,0,0,0,1.137-.238,2.424,2.424,0,0,0,.91-.723l1.094,1.188a3.362,3.362,0,0,1-.723.734,3.868,3.868,0,0,1-1.1.574A4.438,4.438,0,0,1,35.609,55.156Zm9.32-2.492a.731.731,0,0,0-.141-.437,1.259,1.259,0,0,0-.52-.363,5.4,5.4,0,0,0-1.09-.309,7.99,7.99,0,0,1-1.191-.355,3.942,3.942,0,0,1-.953-.52,2.243,2.243,0,0,1-.629-.723A1.976,1.976,0,0,1,40.18,49a2.236,2.236,0,0,1,.23-1,2.55,2.55,0,0,1,.664-.832,3.184,3.184,0,0,1,1.063-.57,4.523,4.523,0,0,1,1.418-.207,4.651,4.651,0,0,1,1.895.352,2.839,2.839,0,0,1,1.219.965,2.386,2.386,0,0,1,.426,1.395h-2.25a1.255,1.255,0,0,0-.137-.59.982.982,0,0,0-.422-.414,1.562,1.562,0,0,0-.738-.152,1.508,1.508,0,0,0-.648.129,1,1,0,0,0-.418.344.829.829,0,0,0-.145.473.722.722,0,0,0,.082.348.8.8,0,0,0,.27.277,2.2,2.2,0,0,0,.488.23,5.375,5.375,0,0,0,.746.191,8.831,8.831,0,0,1,1.633.488,2.888,2.888,0,0,1,1.141.813,2.038,2.038,0,0,1,.422,1.34,2.157,2.157,0,0,1-.25,1.031,2.451,2.451,0,0,1-.719.816,3.533,3.533,0,0,1-1.121.539,5.2,5.2,0,0,1-1.465.191,4.309,4.309,0,0,1-2-.422,3.123,3.123,0,0,1-1.234-1.074,2.454,2.454,0,0,1-.418-1.34h2.133a1.231,1.231,0,0,0,.238.742,1.252,1.252,0,0,0,.57.406,2.212,2.212,0,0,0,.754.125,1.89,1.89,0,0,0,.727-.121,1.021,1.021,0,0,0,.441-.328A.789.789,0,0,0,44.93,52.664Zm10.133,1.383,2.242-7.5h2.414l-3.4,9.727a5.589,5.589,0,0,1-.293.688,3,3,0,0,1-.492.7,2.385,2.385,0,0,1-.773.543,2.743,2.743,0,0,1-1.137.211,2.861,2.861,0,0,1-.523-.039q-.2-.039-.484-.109V56.617q.086,0,.18,0t.18,0a2.176,2.176,0,0,0,.727-.1,1.028,1.028,0,0,0,.453-.309,1.543,1.543,0,0,0,.273-.535Zm-.937-7.5,1.836,6.125.32,2.383-1.531.164-3.039-8.672Zm11.344-2.922L61.3,55.977H59.625L63.8,43.625Zm.719,7.234V50.7a5.321,5.321,0,0,1,.266-1.715,3.965,3.965,0,0,1,.773-1.363,3.506,3.506,0,0,1,1.25-.9,4.218,4.218,0,0,1,1.7-.324,4.275,4.275,0,0,1,1.711.324,3.528,3.528,0,0,1,1.262.9,3.931,3.931,0,0,1,.777,1.363A5.321,5.321,0,0,1,74.2,50.7v.164a5.3,5.3,0,0,1-.266,1.707,3.973,3.973,0,0,1-.777,1.367,3.481,3.481,0,0,1-1.254.9,4.7,4.7,0,0,1-3.41,0,3.474,3.474,0,0,1-1.258-.9,3.973,3.973,0,0,1-.777-1.367A5.3,5.3,0,0,1,66.188,50.859Zm2.25-.164v.164a4.977,4.977,0,0,0,.094.992,2.569,2.569,0,0,0,.3.809,1.507,1.507,0,0,0,.543.543,1.607,1.607,0,0,0,.82.2,1.574,1.574,0,0,0,.8-.2,1.477,1.477,0,0,0,.539-.543,2.7,2.7,0,0,0,.3-.809,4.784,4.784,0,0,0,.1-.992V50.7a4.648,4.648,0,0,0-.1-.973,2.741,2.741,0,0,0-.3-.812,1.476,1.476,0,0,0-1.355-.762,1.521,1.521,0,0,0-.809.2,1.564,1.564,0,0,0-.539.559,2.667,2.667,0,0,0-.3.813A4.835,4.835,0,0,0,68.438,50.7Zm15.688,1.969a.731.731,0,0,0-.141-.437,1.259,1.259,0,0,0-.52-.363,5.4,5.4,0,0,0-1.09-.309,7.99,7.99,0,0,1-1.191-.355,3.942,3.942,0,0,1-.953-.52,2.243,2.243,0,0,1-.629-.723A1.976,1.976,0,0,1,79.375,49a2.236,2.236,0,0,1,.23-1,2.55,2.55,0,0,1,.664-.832,3.184,3.184,0,0,1,1.063-.57,4.523,4.523,0,0,1,1.418-.207,4.651,4.651,0,0,1,1.895.352,2.839,2.839,0,0,1,1.219.965,2.386,2.386,0,0,1,.426,1.395h-2.25a1.255,1.255,0,0,0-.137-.59.982.982,0,0,0-.422-.414,1.562,1.562,0,0,0-.738-.152,1.508,1.508,0,0,0-.648.129,1,1,0,0,0-.418.344.829.829,0,0,0-.145.473.722.722,0,0,0,.082.348.8.8,0,0,0,.27.277,2.2,2.2,0,0,0,.488.23,5.375,5.375,0,0,0,.746.191,8.831,8.831,0,0,1,1.633.488,2.888,2.888,0,0,1,1.141.813,2.038,2.038,0,0,1,.422,1.34,2.157,2.157,0,0,1-.25,1.031,2.451,2.451,0,0,1-.719.816,3.533,3.533,0,0,1-1.121.539,5.2,5.2,0,0,1-1.465.191,4.309,4.309,0,0,1-2-.422,3.123,3.123,0,0,1-1.234-1.074,2.454,2.454,0,0,1-.418-1.34h2.133a1.231,1.231,0,0,0,.238.742,1.252,1.252,0,0,0,.57.406,2.212,2.212,0,0,0,.754.125,1.89,1.89,0,0,0,.727-.121,1.021,1.021,0,0,0,.441-.328A.789.789,0,0,0,84.125,52.664Zm7.539,2.492A4.669,4.669,0,0,1,89.9,54.84a3.791,3.791,0,0,1-1.324-.879,3.883,3.883,0,0,1-.832-1.309,4.362,4.362,0,0,1-.289-1.59V50.75a5.387,5.387,0,0,1,.273-1.758,4.1,4.1,0,0,1,.785-1.383,3.436,3.436,0,0,1,1.246-.9,4.147,4.147,0,0,1,1.656-.316,4.027,4.027,0,0,1,1.594.3,3.158,3.158,0,0,1,1.168.844,3.678,3.678,0,0,1,.715,1.309,5.564,5.564,0,0,1,.242,1.691v.938H88.414v-1.5h4.508V49.8a2.015,2.015,0,0,0-.168-.84,1.356,1.356,0,0,0-.5-.59,1.547,1.547,0,0,0-.859-.219,1.443,1.443,0,0,0-.766.2,1.48,1.48,0,0,0-.52.547,2.821,2.821,0,0,0-.3.824,5.122,5.122,0,0,0-.1,1.035v.313a2.924,2.924,0,0,0,.145.938,2.192,2.192,0,0,0,.414.742,1.843,1.843,0,0,0,.656.484,2.143,2.143,0,0,0,.879.172,2.728,2.728,0,0,0,1.137-.238,2.424,2.424,0,0,0,.91-.723l1.094,1.188a3.362,3.362,0,0,1-.723.734,3.868,3.868,0,0,1-1.1.574A4.438,4.438,0,0,1,91.664,55.156Zm7-6.766V55h-2.25V46.547h2.117Zm2.547-1.9-.039,2.086q-.164-.023-.395-.043t-.418-.02a2.511,2.511,0,0,0-.824.121,1.423,1.423,0,0,0-.922.926,2.7,2.7,0,0,0-.129.766l-.453-.141a6.545,6.545,0,0,1,.164-1.512,4.1,4.1,0,0,1,.48-1.207,2.351,2.351,0,0,1,.777-.8,1.984,1.984,0,0,1,1.055-.281,2.759,2.759,0,0,1,.383.027A1.539,1.539,0,0,1,101.211,46.492Zm4.078,6.867,1.875-6.812h2.352L106.664,55h-1.422ZM104,46.547l1.883,6.82L105.922,55h-1.43l-2.852-8.453Zm8.891,0V55h-2.258V46.547Zm-2.4-2.2a1.062,1.062,0,0,1,.344-.812,1.481,1.481,0,0,1,1.84,0,1.123,1.123,0,0,1,0,1.625,1.481,1.481,0,0,1-1.84,0A1.062,1.062,0,0,1,110.492,44.344Zm7.75,9.055a1.621,1.621,0,0,0,.734-.16,1.231,1.231,0,0,0,.5-.453,1.326,1.326,0,0,0,.191-.691h2.117a2.8,2.8,0,0,1-.477,1.582,3.235,3.235,0,0,1-1.258,1.086,3.893,3.893,0,0,1-1.766.395,4.154,4.154,0,0,1-1.715-.328,3.328,3.328,0,0,1-1.215-.91,3.923,3.923,0,0,1-.727-1.359,5.578,5.578,0,0,1-.242-1.668v-.227a5.606,5.606,0,0,1,.242-1.676,3.923,3.923,0,0,1,.727-1.359,3.335,3.335,0,0,1,1.211-.91,4.106,4.106,0,0,1,1.7-.328,3.979,3.979,0,0,1,1.824.4,3.008,3.008,0,0,1,1.234,1.137,3.345,3.345,0,0,1,.457,1.746h-2.117a1.8,1.8,0,0,0-.176-.766,1.358,1.358,0,0,0-.484-.551,1.39,1.39,0,0,0-.777-.207,1.431,1.431,0,0,0-.8.207,1.38,1.38,0,0,0-.484.563,2.769,2.769,0,0,0-.238.8,6.435,6.435,0,0,0-.066.941v.227a6.916,6.916,0,0,0,.063.945,2.575,2.575,0,0,0,.238.8,1.385,1.385,0,0,0,.488.555A1.468,1.468,0,0,0,118.242,53.4Zm7.219-6.852V55H123.2V46.547Zm-2.4-2.2a1.062,1.062,0,0,1,.344-.812,1.481,1.481,0,0,1,1.84,0,1.123,1.123,0,0,1,0,1.625,1.481,1.481,0,0,1-1.84,0A1.062,1.062,0,0,1,123.063,44.344Zm3.9,6.516V50.7a5.321,5.321,0,0,1,.266-1.715A3.965,3.965,0,0,1,128,47.617a3.506,3.506,0,0,1,1.25-.9,4.218,4.218,0,0,1,1.7-.324,4.275,4.275,0,0,1,1.711.324,3.528,3.528,0,0,1,1.262.9,3.931,3.931,0,0,1,.777,1.363,5.321,5.321,0,0,1,.266,1.715v.164a5.3,5.3,0,0,1-.266,1.707,3.973,3.973,0,0,1-.777,1.367,3.481,3.481,0,0,1-1.254.9,4.7,4.7,0,0,1-3.41,0,3.474,3.474,0,0,1-1.258-.9,3.973,3.973,0,0,1-.777-1.367A5.3,5.3,0,0,1,126.961,50.859Zm2.25-.164v.164a4.977,4.977,0,0,0,.094.992,2.569,2.569,0,0,0,.3.809,1.507,1.507,0,0,0,.543.543,1.607,1.607,0,0,0,.82.2,1.574,1.574,0,0,0,.8-.2,1.477,1.477,0,0,0,.539-.543,2.7,2.7,0,0,0,.3-.809,4.784,4.784,0,0,0,.1-.992V50.7a4.648,4.648,0,0,0-.1-.973,2.741,2.741,0,0,0-.3-.812,1.476,1.476,0,0,0-1.355-.762,1.521,1.521,0,0,0-.809.2,1.563,1.563,0,0,0-.539.559,2.668,2.668,0,0,0-.3.813A4.835,4.835,0,0,0,129.211,50.7Zm11.711,1.969a.731.731,0,0,0-.141-.437,1.259,1.259,0,0,0-.52-.363,5.4,5.4,0,0,0-1.09-.309,7.991,7.991,0,0,1-1.191-.355,3.942,3.942,0,0,1-.953-.52,2.243,2.243,0,0,1-.629-.723,1.976,1.976,0,0,1-.227-.957,2.237,2.237,0,0,1,.23-1,2.55,2.55,0,0,1,.664-.832,3.184,3.184,0,0,1,1.063-.57,4.523,4.523,0,0,1,1.418-.207,4.651,4.651,0,0,1,1.895.352,2.839,2.839,0,0,1,1.219.965,2.386,2.386,0,0,1,.426,1.395h-2.25a1.255,1.255,0,0,0-.137-.59.982.982,0,0,0-.422-.414,1.562,1.562,0,0,0-.738-.152,1.508,1.508,0,0,0-.648.129,1,1,0,0,0-.418.344.829.829,0,0,0-.145.473.722.722,0,0,0,.082.348.8.8,0,0,0,.27.277,2.2,2.2,0,0,0,.488.23,5.375,5.375,0,0,0,.746.191,8.831,8.831,0,0,1,1.633.488,2.888,2.888,0,0,1,1.141.813,2.038,2.038,0,0,1,.422,1.34,2.157,2.157,0,0,1-.25,1.031,2.452,2.452,0,0,1-.719.816,3.533,3.533,0,0,1-1.121.539,5.2,5.2,0,0,1-1.465.191,4.309,4.309,0,0,1-2-.422,3.123,3.123,0,0,1-1.234-1.074,2.454,2.454,0,0,1-.418-1.34h2.133a1.231,1.231,0,0,0,.238.742,1.252,1.252,0,0,0,.57.406,2.212,2.212,0,0,0,.754.125,1.89,1.89,0,0,0,.727-.121,1.021,1.021,0,0,0,.441-.328A.789.789,0,0,0,140.922,52.664Zm3.758,1.25a1.115,1.115,0,0,1,.348-.836,1.444,1.444,0,0,1,1.852,0,1.179,1.179,0,0,1,0,1.672,1.444,1.444,0,0,1-1.852,0A1.115,1.115,0,0,1,144.68,53.914Z" transform="translate(-1917.497 1453)" fill="#12263f"/>
    <path id="Trazado_964693" data-name="Trazado 964693" d="M4.4,15H2.023l.016-1.227H4.4a3.744,3.744,0,0,0,2.031-.512,3.169,3.169,0,0,0,1.223-1.437,5.314,5.314,0,0,0,.41-2.168v-.7a5.911,5.911,0,0,0-.234-1.738,3.552,3.552,0,0,0-.687-1.289,2.929,2.929,0,0,0-1.105-.8,3.842,3.842,0,0,0-1.5-.273H1.977V3.625H4.539A5.414,5.414,0,0,1,6.578,4a4.488,4.488,0,0,1,1.59,1.07A4.765,4.765,0,0,1,9.2,6.754a6.471,6.471,0,0,1,.359,2.223v.68A6.471,6.471,0,0,1,9.2,11.879,4.668,4.668,0,0,1,8.16,13.563a4.538,4.538,0,0,1-1.625,1.066A5.829,5.829,0,0,1,4.4,15ZM2.828,3.625V15H1.32V3.625ZM15.109,15.156a4.082,4.082,0,0,1-1.6-.3,3.535,3.535,0,0,1-1.227-.848,3.756,3.756,0,0,1-.785-1.3,4.756,4.756,0,0,1-.273-1.641v-.328a5.192,5.192,0,0,1,.3-1.84,4.115,4.115,0,0,1,.828-1.371,3.547,3.547,0,0,1,1.188-.852,3.411,3.411,0,0,1,1.375-.289,3.63,3.63,0,0,1,1.566.313,2.871,2.871,0,0,1,1.082.871A3.786,3.786,0,0,1,18.2,8.887a6.308,6.308,0,0,1,.2,1.645v.648H12.086V10h4.867V9.891a3.679,3.679,0,0,0-.23-1.094,2,2,0,0,0-.629-.875,1.825,1.825,0,0,0-1.172-.344,2,2,0,0,0-.906.207A1.966,1.966,0,0,0,13.3,8.4a3.068,3.068,0,0,0-.461.992,5.029,5.029,0,0,0-.164,1.352v.328a3.7,3.7,0,0,0,.168,1.129,2.793,2.793,0,0,0,.492.926,2.309,2.309,0,0,0,.789.625,2.386,2.386,0,0,0,1.059.227,2.517,2.517,0,0,0,1.3-.312,3.211,3.211,0,0,0,.93-.836l.875.7a4.044,4.044,0,0,1-.7.789,3.327,3.327,0,0,1-1.035.609A4.055,4.055,0,0,1,15.109,15.156Zm9.9-2.4a1.268,1.268,0,0,0-.137-.582,1.25,1.25,0,0,0-.555-.492,4.726,4.726,0,0,0-1.254-.387,9.72,9.72,0,0,1-1.27-.352,3.773,3.773,0,0,1-.961-.492,2.049,2.049,0,0,1-.605-.68,1.9,1.9,0,0,1-.211-.914,2.086,2.086,0,0,1,.223-.945,2.463,2.463,0,0,1,.633-.789,3.03,3.03,0,0,1,.988-.539,4.011,4.011,0,0,1,1.289-.2,3.844,3.844,0,0,1,1.734.359,2.708,2.708,0,0,1,1.1.957,2.4,2.4,0,0,1,.383,1.324H24.922a1.276,1.276,0,0,0-.207-.684,1.607,1.607,0,0,0-.6-.551,1.965,1.965,0,0,0-.965-.219,2.2,2.2,0,0,0-.973.184,1.247,1.247,0,0,0-.539.465,1.14,1.14,0,0,0-.168.594,1.015,1.015,0,0,0,.082.418.855.855,0,0,0,.293.336,2.34,2.34,0,0,0,.594.285,9.164,9.164,0,0,0,.977.266,7.924,7.924,0,0,1,1.711.563,2.518,2.518,0,0,1,1,.8,1.989,1.989,0,0,1,.328,1.156,2.239,2.239,0,0,1-.23,1.016,2.272,2.272,0,0,1-.664.793,3.246,3.246,0,0,1-1.031.516,4.554,4.554,0,0,1-1.34.184,4.092,4.092,0,0,1-1.891-.4,2.924,2.924,0,0,1-1.172-1.031,2.467,2.467,0,0,1-.4-1.336H21.18a1.478,1.478,0,0,0,.344.941,1.708,1.708,0,0,0,.766.492,2.944,2.944,0,0,0,.9.145,2.767,2.767,0,0,0,1-.156,1.383,1.383,0,0,0,.613-.43A1,1,0,0,0,25.008,12.758Zm6.719,1.211a2.166,2.166,0,0,0,.953-.211,1.947,1.947,0,0,0,.719-.582,1.589,1.589,0,0,0,.32-.848h1.375a2.574,2.574,0,0,1-.5,1.395,3.45,3.45,0,0,1-1.215,1.039,3.486,3.486,0,0,1-1.648.395,3.832,3.832,0,0,1-1.66-.336,3.253,3.253,0,0,1-1.172-.922,4.015,4.015,0,0,1-.7-1.348,5.542,5.542,0,0,1-.23-1.613v-.328A5.542,5.542,0,0,1,28.2,9a4.015,4.015,0,0,1,.7-1.348,3.253,3.253,0,0,1,1.172-.922,3.832,3.832,0,0,1,1.66-.336,3.584,3.584,0,0,1,1.734.4,3.049,3.049,0,0,1,1.168,1.094,3.208,3.208,0,0,1,.465,1.566H33.719a2.11,2.11,0,0,0-.293-.945,1.921,1.921,0,0,0-.687-.676,1.965,1.965,0,0,0-1.012-.254,2.181,2.181,0,0,0-1.113.262,1.958,1.958,0,0,0-.711.7,3.2,3.2,0,0,0-.375.977,5.248,5.248,0,0,0-.113,1.09v.328a5.487,5.487,0,0,0,.109,1.094,3.079,3.079,0,0,0,.371.977,1.968,1.968,0,0,0,.711.7A2.2,2.2,0,0,0,31.727,13.969Zm4.609-3.1v-.18a5.27,5.27,0,0,1,.266-1.7,4.078,4.078,0,0,1,.766-1.367,3.479,3.479,0,0,1,1.211-.906,3.8,3.8,0,0,1,1.594-.324,3.844,3.844,0,0,1,1.605.324A3.508,3.508,0,0,1,43,7.621a4.042,4.042,0,0,1,.77,1.367,5.27,5.27,0,0,1,.266,1.7v.18a5.235,5.235,0,0,1-.266,1.7A4.049,4.049,0,0,1,43,13.926a3.527,3.527,0,0,1-1.211.906,4.108,4.108,0,0,1-3.2,0,3.517,3.517,0,0,1-1.215-.906,4.049,4.049,0,0,1-.77-1.363A5.235,5.235,0,0,1,36.336,10.867Zm1.445-.18v.18a4.623,4.623,0,0,0,.148,1.191,3.091,3.091,0,0,0,.449.988,2.111,2.111,0,0,0,1.809.922,2.083,2.083,0,0,0,1.789-.922,3.207,3.207,0,0,0,.449-.988,4.511,4.511,0,0,0,.152-1.191v-.18A4.48,4.48,0,0,0,42.426,9.5a3.2,3.2,0,0,0-.453-.992,2.214,2.214,0,0,0-.75-.684,2.317,2.317,0,0,0-2.094,0,2.214,2.214,0,0,0-.75.684,3.138,3.138,0,0,0-.449.992A4.592,4.592,0,0,0,37.781,10.688Zm9.508-2.336V15H45.844V6.547h1.367Zm-.344,2.1-.6-.023A5.122,5.122,0,0,1,46.6,8.824a4,4,0,0,1,.7-1.285,3.124,3.124,0,0,1,2.477-1.148,3.521,3.521,0,0,1,1.125.168,2.1,2.1,0,0,1,.855.535,2.4,2.4,0,0,1,.543.949,4.666,4.666,0,0,1,.188,1.418V15H51.039V9.445a2.461,2.461,0,0,0-.2-1.066,1.223,1.223,0,0,0-.57-.586,2.085,2.085,0,0,0-.922-.184,2.115,2.115,0,0,0-.98.227,2.3,2.3,0,0,0-.758.625,3.036,3.036,0,0,0-.492.91A3.307,3.307,0,0,0,46.945,10.453Zm7.352.414v-.18a5.27,5.27,0,0,1,.266-1.7,4.078,4.078,0,0,1,.766-1.367,3.479,3.479,0,0,1,1.211-.906,3.8,3.8,0,0,1,1.594-.324,3.844,3.844,0,0,1,1.605.324,3.508,3.508,0,0,1,1.219.906,4.042,4.042,0,0,1,.77,1.367,5.27,5.27,0,0,1,.266,1.7v.18a5.235,5.235,0,0,1-.266,1.7,4.049,4.049,0,0,1-.77,1.363,3.527,3.527,0,0,1-1.211.906,4.108,4.108,0,0,1-3.2,0,3.517,3.517,0,0,1-1.215-.906,4.049,4.049,0,0,1-.77-1.363A5.235,5.235,0,0,1,54.3,10.867Zm1.445-.18v.18a4.623,4.623,0,0,0,.148,1.191,3.091,3.091,0,0,0,.449.988,2.111,2.111,0,0,0,1.809.922,2.083,2.083,0,0,0,1.789-.922,3.207,3.207,0,0,0,.449-.988,4.511,4.511,0,0,0,.152-1.191v-.18A4.48,4.48,0,0,0,60.387,9.5a3.2,3.2,0,0,0-.453-.992,2.214,2.214,0,0,0-.75-.684,2.317,2.317,0,0,0-2.094,0,2.214,2.214,0,0,0-.75.684,3.138,3.138,0,0,0-.449.992A4.592,4.592,0,0,0,55.742,10.688Zm11.445,3.281a2.166,2.166,0,0,0,.953-.211,1.947,1.947,0,0,0,.719-.582,1.589,1.589,0,0,0,.32-.848h1.375a2.574,2.574,0,0,1-.5,1.395,3.45,3.45,0,0,1-1.215,1.039,3.486,3.486,0,0,1-1.648.395,3.832,3.832,0,0,1-1.66-.336,3.253,3.253,0,0,1-1.172-.922,4.015,4.015,0,0,1-.7-1.348,5.542,5.542,0,0,1-.23-1.613v-.328A5.542,5.542,0,0,1,63.66,9a4.015,4.015,0,0,1,.7-1.348,3.253,3.253,0,0,1,1.172-.922,3.832,3.832,0,0,1,1.66-.336,3.584,3.584,0,0,1,1.734.4A3.049,3.049,0,0,1,70.09,7.887a3.208,3.208,0,0,1,.465,1.566H69.18a2.11,2.11,0,0,0-.293-.945,1.922,1.922,0,0,0-.687-.676,1.965,1.965,0,0,0-1.012-.254,2.181,2.181,0,0,0-1.113.262,1.958,1.958,0,0,0-.711.7,3.2,3.2,0,0,0-.375.977,5.248,5.248,0,0,0-.113,1.09v.328a5.487,5.487,0,0,0,.109,1.094,3.079,3.079,0,0,0,.371.977,1.968,1.968,0,0,0,.711.7A2.2,2.2,0,0,0,67.188,13.969ZM73.75,6.547V15H72.3V6.547ZM72.188,4.3a.863.863,0,0,1,.215-.594.807.807,0,0,1,.637-.242.822.822,0,0,1,.637.242A.845.845,0,0,1,73.9,4.3a.811.811,0,0,1-.223.574.829.829,0,0,1-.637.238.814.814,0,0,1-.637-.238A.828.828,0,0,1,72.188,4.3Zm5.32,3.922V15H76.055V6.547H77.43Zm-.3,2.227-.672-.023a5.817,5.817,0,0,1,.227-1.605,3.805,3.805,0,0,1,.648-1.285,2.918,2.918,0,0,1,1.07-.848,3.457,3.457,0,0,1,1.484-.3,3.416,3.416,0,0,1,1.094.168,2.244,2.244,0,0,1,.867.527,2.412,2.412,0,0,1,.57.922,4.019,4.019,0,0,1,.2,1.359V15H81.258V9.438a2.177,2.177,0,0,0-.223-1.062,1.335,1.335,0,0,0-.629-.582,2.605,2.605,0,0,0-2.023.043,1.808,1.808,0,0,0-.687.625,2.756,2.756,0,0,0-.371.91A5,5,0,0,0,77.211,10.453Zm5.477-.8-.969.3a4.185,4.185,0,0,1,.23-1.336A3.528,3.528,0,0,1,82.6,7.477a3.073,3.073,0,0,1,1.051-.793,3.331,3.331,0,0,1,1.43-.293,3.736,3.736,0,0,1,1.207.18,2.232,2.232,0,0,1,.891.551,2.381,2.381,0,0,1,.551.949,4.477,4.477,0,0,1,.188,1.375V15H86.461V9.43a2.269,2.269,0,0,0-.223-1.105,1.222,1.222,0,0,0-.625-.555,2.584,2.584,0,0,0-.957-.16,2.049,2.049,0,0,0-.844.164,1.766,1.766,0,0,0-.617.449,1.968,1.968,0,0,0-.379.652A2.342,2.342,0,0,0,82.688,9.656Zm8.984-3.109V15H90.219V6.547ZM90.109,4.3a.863.863,0,0,1,.215-.594.807.807,0,0,1,.637-.242.822.822,0,0,1,.637.242.845.845,0,0,1,.223.594.811.811,0,0,1-.223.574.829.829,0,0,1-.637.238.814.814,0,0,1-.637-.238A.828.828,0,0,1,90.109,4.3ZM97.5,15.156a4.082,4.082,0,0,1-1.6-.3,3.535,3.535,0,0,1-1.227-.848,3.756,3.756,0,0,1-.785-1.3,4.756,4.756,0,0,1-.273-1.641v-.328a5.192,5.192,0,0,1,.3-1.84,4.115,4.115,0,0,1,.828-1.371,3.547,3.547,0,0,1,1.188-.852,3.411,3.411,0,0,1,1.375-.289,3.63,3.63,0,0,1,1.566.313,2.871,2.871,0,0,1,1.082.871,3.786,3.786,0,0,1,.625,1.313,6.308,6.308,0,0,1,.2,1.645v.648H94.477V10h4.867V9.891a3.679,3.679,0,0,0-.23-1.094,2,2,0,0,0-.629-.875,1.825,1.825,0,0,0-1.172-.344,2,2,0,0,0-.906.207A1.966,1.966,0,0,0,95.7,8.4a3.068,3.068,0,0,0-.461.992,5.029,5.029,0,0,0-.164,1.352v.328a3.7,3.7,0,0,0,.168,1.129,2.793,2.793,0,0,0,.492.926,2.309,2.309,0,0,0,.789.625,2.386,2.386,0,0,0,1.059.227,2.517,2.517,0,0,0,1.3-.312,3.211,3.211,0,0,0,.93-.836l.875.7a4.044,4.044,0,0,1-.7.789,3.327,3.327,0,0,1-1.035.609A4.055,4.055,0,0,1,97.5,15.156Zm6.422-6.8V15h-1.445V6.547h1.367Zm-.344,2.1-.6-.023a5.122,5.122,0,0,1,.258-1.605,4,4,0,0,1,.7-1.285,3.124,3.124,0,0,1,2.477-1.148,3.521,3.521,0,0,1,1.125.168,2.1,2.1,0,0,1,.855.535,2.4,2.4,0,0,1,.543.949,4.666,4.666,0,0,1,.188,1.418V15h-1.453V9.445a2.461,2.461,0,0,0-.2-1.066,1.223,1.223,0,0,0-.57-.586,2.085,2.085,0,0,0-.922-.184,2.115,2.115,0,0,0-.98.227,2.3,2.3,0,0,0-.758.625,3.036,3.036,0,0,0-.492.91A3.307,3.307,0,0,0,103.578,10.453Zm11.273-3.906V7.656h-4.57V6.547Zm-3.023-2.055h1.445v8.414a1.269,1.269,0,0,0,.133.648.635.635,0,0,0,.344.289,1.424,1.424,0,0,0,.453.07,2.183,2.183,0,0,0,.379-.035q.2-.035.3-.059l.008,1.18a3.66,3.66,0,0,1-1.117.156,2.252,2.252,0,0,1-.977-.211,1.548,1.548,0,0,1-.707-.707,2.889,2.889,0,0,1-.262-1.34Zm4.18,6.375v-.18a5.27,5.27,0,0,1,.266-1.7,4.078,4.078,0,0,1,.766-1.367,3.479,3.479,0,0,1,1.211-.906,3.8,3.8,0,0,1,1.594-.324,3.844,3.844,0,0,1,1.605.324,3.508,3.508,0,0,1,1.219.906,4.042,4.042,0,0,1,.77,1.367,5.27,5.27,0,0,1,.266,1.7v.18a5.235,5.235,0,0,1-.266,1.7,4.049,4.049,0,0,1-.77,1.363,3.527,3.527,0,0,1-1.211.906,4.108,4.108,0,0,1-3.2,0,3.517,3.517,0,0,1-1.215-.906,4.049,4.049,0,0,1-.77-1.363A5.235,5.235,0,0,1,116.008,10.867Zm1.445-.18v.18a4.623,4.623,0,0,0,.148,1.191,3.091,3.091,0,0,0,.449.988,2.111,2.111,0,0,0,1.809.922,2.083,2.083,0,0,0,1.789-.922,3.208,3.208,0,0,0,.449-.988,4.511,4.511,0,0,0,.152-1.191v-.18A4.48,4.48,0,0,0,122.1,9.5a3.2,3.2,0,0,0-.453-.992,2.214,2.214,0,0,0-.75-.684,2.317,2.317,0,0,0-2.094,0,2.214,2.214,0,0,0-.75.684,3.138,3.138,0,0,0-.449.992A4.591,4.591,0,0,0,117.453,10.688Zm17.359,2.672V3h1.453V15h-1.328Zm-5.687-2.492V10.7a6.108,6.108,0,0,1,.238-1.762,4.157,4.157,0,0,1,.68-1.363A3.068,3.068,0,0,1,131.1,6.7a3.007,3.007,0,0,1,1.371-.309,3.283,3.283,0,0,1,1.395.277,2.768,2.768,0,0,1,1.016.8,4.04,4.04,0,0,1,.66,1.27,7.985,7.985,0,0,1,.336,1.68v.719a7.513,7.513,0,0,1-.332,1.672,4.049,4.049,0,0,1-.664,1.266,2.776,2.776,0,0,1-1.02.8,3.329,3.329,0,0,1-1.406.277,2.883,2.883,0,0,1-1.355-.32,3.157,3.157,0,0,1-1.055-.9,4.263,4.263,0,0,1-.68-1.363A5.854,5.854,0,0,1,129.125,10.867Zm1.453-.164v.164a5.236,5.236,0,0,0,.129,1.188,3.048,3.048,0,0,0,.4.977,1.982,1.982,0,0,0,.7.66,2.017,2.017,0,0,0,1.008.238,2.119,2.119,0,0,0,1.184-.3,2.285,2.285,0,0,0,.746-.8,4.647,4.647,0,0,0,.438-1.086V9.852a4.434,4.434,0,0,0-.27-.832,2.756,2.756,0,0,0-.453-.719,2.033,2.033,0,0,0-.68-.5,2.229,2.229,0,0,0-.949-.187,2,2,0,0,0-1.02.246,2.029,2.029,0,0,0-.7.672,3.092,3.092,0,0,0-.4.984A5.288,5.288,0,0,0,130.578,10.7Zm11.438,4.453a4.082,4.082,0,0,1-1.6-.3,3.535,3.535,0,0,1-1.227-.848,3.756,3.756,0,0,1-.785-1.3,4.756,4.756,0,0,1-.273-1.641v-.328a5.192,5.192,0,0,1,.3-1.84,4.115,4.115,0,0,1,.828-1.371,3.547,3.547,0,0,1,1.188-.852,3.411,3.411,0,0,1,1.375-.289,3.63,3.63,0,0,1,1.566.313,2.871,2.871,0,0,1,1.082.871,3.786,3.786,0,0,1,.625,1.313,6.308,6.308,0,0,1,.2,1.645v.648h-6.312V10h4.867V9.891a3.679,3.679,0,0,0-.23-1.094A2,2,0,0,0,143,7.922a1.825,1.825,0,0,0-1.172-.344,2,2,0,0,0-.906.207,1.966,1.966,0,0,0-.711.613,3.068,3.068,0,0,0-.461.992,5.029,5.029,0,0,0-.164,1.352v.328a3.7,3.7,0,0,0,.168,1.129,2.793,2.793,0,0,0,.492.926,2.309,2.309,0,0,0,.789.625,2.386,2.386,0,0,0,1.059.227,2.517,2.517,0,0,0,1.3-.312,3.211,3.211,0,0,0,.93-.836l.875.7a4.044,4.044,0,0,1-.7.789,3.327,3.327,0,0,1-1.035.609A4.055,4.055,0,0,1,142.016,15.156ZM2.672,23V35H1.219V23Zm7.3,10.555V29.2a1.815,1.815,0,0,0-.2-.871,1.357,1.357,0,0,0-.6-.574,2.152,2.152,0,0,0-.984-.2,2.282,2.282,0,0,0-.957.188,1.635,1.635,0,0,0-.641.492,1.067,1.067,0,0,0-.23.656H4.922a1.912,1.912,0,0,1,.234-.9,2.649,2.649,0,0,1,.676-.809,3.405,3.405,0,0,1,1.063-.578,4.223,4.223,0,0,1,1.387-.215A4,4,0,0,1,9.91,26.7a2.469,2.469,0,0,1,1.109.941,2.867,2.867,0,0,1,.4,1.574v3.938a5.852,5.852,0,0,0,.074.9,3.394,3.394,0,0,0,.223.82V35H10.211a2.7,2.7,0,0,1-.172-.668A5.277,5.277,0,0,1,9.977,33.555Zm.25-3.68.016,1.016H8.781a5.606,5.606,0,0,0-1.1.1,2.582,2.582,0,0,0-.812.293,1.385,1.385,0,0,0-.5.488,1.326,1.326,0,0,0-.172.684,1.488,1.488,0,0,0,.18.727,1.278,1.278,0,0,0,.543.52,1.9,1.9,0,0,0,.895.191,2.379,2.379,0,0,0,1.172-.281,2.481,2.481,0,0,0,.809-.687,1.493,1.493,0,0,0,.324-.789l.617.7a2.1,2.1,0,0,1-.3.727,3.491,3.491,0,0,1-1.6,1.363,3.089,3.089,0,0,1-1.238.238,3.21,3.21,0,0,1-1.5-.336,2.531,2.531,0,0,1-1-.9,2.339,2.339,0,0,1-.355-1.27,2.6,2.6,0,0,1,.266-1.2,2.348,2.348,0,0,1,.766-.867,3.688,3.688,0,0,1,1.2-.527,6.347,6.347,0,0,1,1.57-.18Zm8.391,2.883a1.268,1.268,0,0,0-.137-.582,1.25,1.25,0,0,0-.555-.492,4.726,4.726,0,0,0-1.254-.387,9.72,9.72,0,0,1-1.27-.352,3.773,3.773,0,0,1-.961-.492,2.049,2.049,0,0,1-.605-.68,1.9,1.9,0,0,1-.211-.914,2.086,2.086,0,0,1,.223-.945,2.463,2.463,0,0,1,.633-.789,3.03,3.03,0,0,1,.988-.539,4.011,4.011,0,0,1,1.289-.2,3.844,3.844,0,0,1,1.734.359,2.708,2.708,0,0,1,1.1.957,2.4,2.4,0,0,1,.383,1.324H18.531a1.276,1.276,0,0,0-.207-.684,1.607,1.607,0,0,0-.6-.551,1.965,1.965,0,0,0-.965-.219,2.2,2.2,0,0,0-.973.184,1.247,1.247,0,0,0-.539.465,1.14,1.14,0,0,0-.168.594,1.015,1.015,0,0,0,.082.418.855.855,0,0,0,.293.336,2.34,2.34,0,0,0,.594.285,9.164,9.164,0,0,0,.977.266,7.924,7.924,0,0,1,1.711.563,2.518,2.518,0,0,1,1,.8,1.989,1.989,0,0,1,.328,1.156,2.239,2.239,0,0,1-.23,1.016,2.272,2.272,0,0,1-.664.793,3.246,3.246,0,0,1-1.031.516,4.554,4.554,0,0,1-1.34.184,4.092,4.092,0,0,1-1.891-.4,2.924,2.924,0,0,1-1.172-1.031,2.467,2.467,0,0,1-.4-1.336h1.453a1.478,1.478,0,0,0,.344.941,1.708,1.708,0,0,0,.766.492,2.944,2.944,0,0,0,.9.145,2.767,2.767,0,0,0,1-.156,1.383,1.383,0,0,0,.613-.43A1,1,0,0,0,18.617,32.758ZM28.078,35H26.633V25.656a3.273,3.273,0,0,1,.332-1.543,2.211,2.211,0,0,1,.957-.953,3.185,3.185,0,0,1,1.484-.324,4.123,4.123,0,0,1,.5.031,3.88,3.88,0,0,1,.5.094l-.078,1.18a2.386,2.386,0,0,0-.371-.055q-.207-.016-.41-.016a1.615,1.615,0,0,0-.793.184,1.2,1.2,0,0,0-.5.535,1.964,1.964,0,0,0-.172.867Zm1.8-8.453v1.109H25.3V26.547Zm6.781,6.5v-6.5h1.453V35H36.727Zm.273-1.781.6-.016a6.52,6.52,0,0,1-.176,1.559,3.4,3.4,0,0,1-.566,1.238,2.628,2.628,0,0,1-1.023.816,3.647,3.647,0,0,1-1.539.293,3.388,3.388,0,0,1-1.129-.18,2.259,2.259,0,0,1-.879-.555,2.487,2.487,0,0,1-.566-.977,4.624,4.624,0,0,1-.2-1.445V26.547H32.9v5.469a2.911,2.911,0,0,0,.129.941,1.467,1.467,0,0,0,.352.586,1.245,1.245,0,0,0,.5.3,1.929,1.929,0,0,0,.574.086,2.625,2.625,0,0,0,1.461-.355,2,2,0,0,0,.777-.961A3.652,3.652,0,0,0,36.93,31.266Zm6.883,3.891a4.082,4.082,0,0,1-1.6-.3,3.535,3.535,0,0,1-1.227-.848,3.756,3.756,0,0,1-.785-1.3,4.756,4.756,0,0,1-.273-1.641v-.328a5.192,5.192,0,0,1,.3-1.84,4.115,4.115,0,0,1,.828-1.371,3.547,3.547,0,0,1,1.188-.852,3.411,3.411,0,0,1,1.375-.289,3.63,3.63,0,0,1,1.566.313,2.871,2.871,0,0,1,1.082.871,3.786,3.786,0,0,1,.625,1.313,6.308,6.308,0,0,1,.2,1.645v.648H40.789V30h4.867v-.109a3.679,3.679,0,0,0-.23-1.094,2,2,0,0,0-.629-.875,1.825,1.825,0,0,0-1.172-.344,2,2,0,0,0-.906.207,1.966,1.966,0,0,0-.711.613,3.068,3.068,0,0,0-.461.992,5.029,5.029,0,0,0-.164,1.352v.328a3.7,3.7,0,0,0,.168,1.129,2.793,2.793,0,0,0,.492.926,2.309,2.309,0,0,0,.789.625,2.386,2.386,0,0,0,1.059.227,2.517,2.517,0,0,0,1.3-.312,3.211,3.211,0,0,0,.93-.836l.875.7a4.044,4.044,0,0,1-.7.789,3.327,3.327,0,0,1-1.035.609A4.055,4.055,0,0,1,43.813,35.156Zm6.422-6.8V35H48.789V26.547h1.367Zm-.344,2.1-.6-.023a5.122,5.122,0,0,1,.258-1.605,4,4,0,0,1,.7-1.285,3.124,3.124,0,0,1,2.477-1.148,3.521,3.521,0,0,1,1.125.168,2.1,2.1,0,0,1,.855.535,2.4,2.4,0,0,1,.543.949,4.666,4.666,0,0,1,.188,1.418V35H53.984V29.445a2.461,2.461,0,0,0-.2-1.066,1.223,1.223,0,0,0-.57-.586,2.085,2.085,0,0,0-.922-.184,2.115,2.115,0,0,0-.98.227,2.3,2.3,0,0,0-.758.625,3.036,3.036,0,0,0-.492.91A3.307,3.307,0,0,0,49.891,30.453Zm11.273-3.906v1.109h-4.57V26.547Zm-3.023-2.055h1.445v8.414a1.269,1.269,0,0,0,.133.648.635.635,0,0,0,.344.289,1.424,1.424,0,0,0,.453.07,2.183,2.183,0,0,0,.379-.035q.2-.035.3-.059L61.2,35a3.66,3.66,0,0,1-1.117.156,2.252,2.252,0,0,1-.977-.211,1.548,1.548,0,0,1-.707-.707,2.889,2.889,0,0,1-.262-1.34Zm8.227,10.664a4.082,4.082,0,0,1-1.6-.3,3.535,3.535,0,0,1-1.227-.848,3.756,3.756,0,0,1-.785-1.3,4.756,4.756,0,0,1-.273-1.641v-.328a5.192,5.192,0,0,1,.3-1.84,4.115,4.115,0,0,1,.828-1.371A3.547,3.547,0,0,1,64.8,26.68a3.411,3.411,0,0,1,1.375-.289,3.63,3.63,0,0,1,1.566.313,2.871,2.871,0,0,1,1.082.871,3.786,3.786,0,0,1,.625,1.313,6.308,6.308,0,0,1,.2,1.645v.648H63.344V30h4.867v-.109a3.679,3.679,0,0,0-.23-1.094,2,2,0,0,0-.629-.875,1.825,1.825,0,0,0-1.172-.344,2,2,0,0,0-.906.207,1.966,1.966,0,0,0-.711.613,3.068,3.068,0,0,0-.461.992,5.029,5.029,0,0,0-.164,1.352v.328a3.7,3.7,0,0,0,.168,1.129,2.793,2.793,0,0,0,.492.926,2.309,2.309,0,0,0,.789.625,2.386,2.386,0,0,0,1.059.227,2.517,2.517,0,0,0,1.3-.312,3.211,3.211,0,0,0,.93-.836l.875.7a4.044,4.044,0,0,1-.7.789,3.327,3.327,0,0,1-1.035.609A4.055,4.055,0,0,1,66.367,35.156Zm9.9-2.4a1.268,1.268,0,0,0-.137-.582,1.25,1.25,0,0,0-.555-.492A4.727,4.727,0,0,0,74.32,31.3a9.72,9.72,0,0,1-1.27-.352,3.773,3.773,0,0,1-.961-.492,2.049,2.049,0,0,1-.605-.68,1.9,1.9,0,0,1-.211-.914,2.086,2.086,0,0,1,.223-.945,2.463,2.463,0,0,1,.633-.789,3.03,3.03,0,0,1,.988-.539,4.011,4.011,0,0,1,1.289-.2,3.844,3.844,0,0,1,1.734.359,2.708,2.708,0,0,1,1.1.957,2.4,2.4,0,0,1,.383,1.324H76.18a1.276,1.276,0,0,0-.207-.684,1.607,1.607,0,0,0-.6-.551,1.965,1.965,0,0,0-.965-.219,2.2,2.2,0,0,0-.973.184,1.247,1.247,0,0,0-.539.465,1.14,1.14,0,0,0-.168.594,1.015,1.015,0,0,0,.082.418.855.855,0,0,0,.293.336,2.34,2.34,0,0,0,.594.285,9.164,9.164,0,0,0,.977.266,7.924,7.924,0,0,1,1.711.563,2.518,2.518,0,0,1,1,.8,1.989,1.989,0,0,1,.328,1.156,2.239,2.239,0,0,1-.23,1.016,2.272,2.272,0,0,1-.664.793,3.246,3.246,0,0,1-1.031.516,4.555,4.555,0,0,1-1.34.184,4.092,4.092,0,0,1-1.891-.4,2.924,2.924,0,0,1-1.172-1.031,2.467,2.467,0,0,1-.4-1.336h1.453a1.478,1.478,0,0,0,.344.941,1.708,1.708,0,0,0,.766.492,2.944,2.944,0,0,0,.9.145,2.767,2.767,0,0,0,1-.156,1.383,1.383,0,0,0,.613-.43A1,1,0,0,0,76.266,32.758Zm12.633.6V23h1.453V35H89.023Zm-5.687-2.492V30.7a6.108,6.108,0,0,1,.238-1.762,4.157,4.157,0,0,1,.68-1.363,3.068,3.068,0,0,1,1.055-.879,3.007,3.007,0,0,1,1.371-.309,3.283,3.283,0,0,1,1.395.277,2.768,2.768,0,0,1,1.016.8,4.04,4.04,0,0,1,.66,1.27,7.984,7.984,0,0,1,.336,1.68v.719a7.512,7.512,0,0,1-.332,1.672,4.049,4.049,0,0,1-.664,1.266,2.776,2.776,0,0,1-1.02.8,3.329,3.329,0,0,1-1.406.277,2.883,2.883,0,0,1-1.355-.32,3.157,3.157,0,0,1-1.055-.9,4.262,4.262,0,0,1-.68-1.363A5.854,5.854,0,0,1,83.211,30.867Zm1.453-.164v.164a5.236,5.236,0,0,0,.129,1.188,3.048,3.048,0,0,0,.4.977,1.982,1.982,0,0,0,.7.66,2.017,2.017,0,0,0,1.008.238,2.119,2.119,0,0,0,1.184-.3,2.285,2.285,0,0,0,.746-.8,4.646,4.646,0,0,0,.438-1.086V29.852A4.434,4.434,0,0,0,89,29.02a2.756,2.756,0,0,0-.453-.719,2.033,2.033,0,0,0-.68-.5,2.229,2.229,0,0,0-.949-.187,2,2,0,0,0-1.02.246,2.029,2.029,0,0,0-.7.672,3.092,3.092,0,0,0-.4.984A5.288,5.288,0,0,0,84.664,30.7ZM96.1,35.156a4.082,4.082,0,0,1-1.6-.3,3.535,3.535,0,0,1-1.227-.848,3.756,3.756,0,0,1-.785-1.3,4.756,4.756,0,0,1-.273-1.641v-.328a5.192,5.192,0,0,1,.3-1.84,4.115,4.115,0,0,1,.828-1.371,3.547,3.547,0,0,1,1.188-.852,3.411,3.411,0,0,1,1.375-.289,3.63,3.63,0,0,1,1.566.313,2.871,2.871,0,0,1,1.082.871,3.786,3.786,0,0,1,.625,1.313,6.308,6.308,0,0,1,.2,1.645v.648H93.078V30h4.867v-.109a3.679,3.679,0,0,0-.23-1.094,2,2,0,0,0-.629-.875,1.825,1.825,0,0,0-1.172-.344,2,2,0,0,0-.906.207,1.966,1.966,0,0,0-.711.613,3.068,3.068,0,0,0-.461.992,5.029,5.029,0,0,0-.164,1.352v.328A3.7,3.7,0,0,0,93.84,32.2a2.793,2.793,0,0,0,.492.926,2.309,2.309,0,0,0,.789.625,2.386,2.386,0,0,0,1.059.227,2.517,2.517,0,0,0,1.3-.312,3.211,3.211,0,0,0,.93-.836l.875.7a4.044,4.044,0,0,1-.7.789,3.327,3.327,0,0,1-1.035.609A4.055,4.055,0,0,1,96.1,35.156ZM3.25,46.547V55H.992V46.547Zm-2.4-2.2a1.062,1.062,0,0,1,.344-.812,1.3,1.3,0,0,1,.922-.32,1.3,1.3,0,0,1,.918.32,1.123,1.123,0,0,1,0,1.625,1.3,1.3,0,0,1-.918.32,1.3,1.3,0,0,1-.922-.32A1.062,1.062,0,0,1,.852,44.344Zm6.461,4.008V55H5.063V46.547H7.172Zm-.328,2.125H6.375a5.516,5.516,0,0,1,.242-1.691A3.894,3.894,0,0,1,7.3,47.5a2.969,2.969,0,0,1,1.043-.82A3.142,3.142,0,0,1,9.7,46.391a3.275,3.275,0,0,1,1.086.172,2.109,2.109,0,0,1,.848.547,2.487,2.487,0,0,1,.547.992,5.144,5.144,0,0,1,.191,1.508V55H10.1V49.6a1.993,1.993,0,0,0-.156-.875.9.9,0,0,0-.457-.441,1.875,1.875,0,0,0-.738-.129,1.626,1.626,0,0,0-.785.18,1.537,1.537,0,0,0-.547.5,2.354,2.354,0,0,0-.324.738A3.6,3.6,0,0,0,6.984,50.477ZM16.945,55H14.68V45.8a3.211,3.211,0,0,1,.379-1.621,2.454,2.454,0,0,1,1.07-1,3.692,3.692,0,0,1,1.645-.34,4.089,4.089,0,0,1,.6.043q.289.043.563.105l-.023,1.7a1.955,1.955,0,0,0-.312-.055q-.164-.016-.383-.016a1.589,1.589,0,0,0-.691.137.956.956,0,0,0-.434.4,1.312,1.312,0,0,0-.148.648Zm1.688-8.453v1.594H13.422V46.547Zm.813,4.313V50.7a5.321,5.321,0,0,1,.266-1.715,3.965,3.965,0,0,1,.773-1.363,3.506,3.506,0,0,1,1.25-.9,4.218,4.218,0,0,1,1.7-.324,4.275,4.275,0,0,1,1.711.324,3.528,3.528,0,0,1,1.262.9,3.931,3.931,0,0,1,.777,1.363,5.321,5.321,0,0,1,.266,1.715v.164a5.3,5.3,0,0,1-.266,1.707,3.973,3.973,0,0,1-.777,1.367,3.481,3.481,0,0,1-1.254.9,4.7,4.7,0,0,1-3.41,0,3.474,3.474,0,0,1-1.258-.9,3.973,3.973,0,0,1-.777-1.367A5.3,5.3,0,0,1,19.445,50.859ZM21.7,50.7v.164a4.977,4.977,0,0,0,.094.992,2.569,2.569,0,0,0,.3.809,1.507,1.507,0,0,0,.543.543,1.607,1.607,0,0,0,.82.2,1.574,1.574,0,0,0,.8-.2,1.477,1.477,0,0,0,.539-.543,2.7,2.7,0,0,0,.3-.809,4.784,4.784,0,0,0,.1-.992V50.7a4.648,4.648,0,0,0-.1-.973,2.741,2.741,0,0,0-.3-.812,1.476,1.476,0,0,0-1.355-.762,1.521,1.521,0,0,0-.809.2,1.564,1.564,0,0,0-.539.559,2.667,2.667,0,0,0-.3.813A4.835,4.835,0,0,0,21.7,50.7Zm9.391-2.3V55h-2.25V46.547h2.117Zm2.547-1.9-.039,2.086q-.164-.023-.395-.043t-.418-.02a2.511,2.511,0,0,0-.824.121,1.423,1.423,0,0,0-.922.926,2.7,2.7,0,0,0-.129.766l-.453-.141a6.545,6.545,0,0,1,.164-1.512,4.1,4.1,0,0,1,.48-1.207,2.351,2.351,0,0,1,.777-.8,1.984,1.984,0,0,1,1.055-.281,2.759,2.759,0,0,1,.383.027A1.539,1.539,0,0,1,33.633,46.492Zm3.313,1.8V55H34.688V46.547H36.8Zm-.312,2.18h-.625a5.869,5.869,0,0,1,.215-1.629,3.912,3.912,0,0,1,.633-1.3,2.888,2.888,0,0,1,1.035-.855,3.191,3.191,0,0,1,1.43-.3,3.038,3.038,0,0,1,1.031.168,2.068,2.068,0,0,1,.809.523,2.4,2.4,0,0,1,.527.922,4.335,4.335,0,0,1,.188,1.355V55h-2.25V49.609a2.037,2.037,0,0,0-.156-.891.89.89,0,0,0-.441-.437,1.7,1.7,0,0,0-.684-.125,1.547,1.547,0,0,0-.762.18,1.524,1.524,0,0,0-.535.5,2.281,2.281,0,0,0-.312.738A3.864,3.864,0,0,0,36.633,50.477Zm5.031-.258-.8.1a5.484,5.484,0,0,1,.207-1.539,3.793,3.793,0,0,1,.617-1.25,2.848,2.848,0,0,1,1.02-.84,3.138,3.138,0,0,1,1.406-.3,3.327,3.327,0,0,1,1.109.176,2.118,2.118,0,0,1,.855.555,2.525,2.525,0,0,1,.547.988,5.032,5.032,0,0,1,.191,1.492V55H44.555V49.6a2.079,2.079,0,0,0-.152-.895.857.857,0,0,0-.437-.43,1.721,1.721,0,0,0-.676-.121,1.507,1.507,0,0,0-.711.16,1.452,1.452,0,0,0-.508.441,2.008,2.008,0,0,0-.3.652A3.056,3.056,0,0,0,41.664,50.219Zm11.453,2.875V49.328a1.683,1.683,0,0,0-.133-.7,1,1,0,0,0-.41-.457,1.39,1.39,0,0,0-.715-.164,1.508,1.508,0,0,0-.648.129.971.971,0,0,0-.422.367,1.035,1.035,0,0,0-.148.559h-2.25a2.2,2.2,0,0,1,.25-1.023,2.589,2.589,0,0,1,.727-.855A3.628,3.628,0,0,1,50.5,46.6a4.852,4.852,0,0,1,1.48-.211,4.406,4.406,0,0,1,1.75.328,2.7,2.7,0,0,1,1.207.984,2.876,2.876,0,0,1,.441,1.641v3.617a6.139,6.139,0,0,0,.086,1.137,3,3,0,0,0,.25.77V55H53.445a3.166,3.166,0,0,1-.246-.863A6.677,6.677,0,0,1,53.117,53.094Zm.3-3.242.016,1.273H52.172a2.627,2.627,0,0,0-.773.1,1.472,1.472,0,0,0-.539.285,1.112,1.112,0,0,0-.309.426,1.408,1.408,0,0,0-.1.531,1.022,1.022,0,0,0,.133.52.913.913,0,0,0,.383.359,1.262,1.262,0,0,0,.586.129,1.826,1.826,0,0,0,.883-.2,1.65,1.65,0,0,0,.582-.5,1.051,1.051,0,0,0,.215-.562l.594.953a4.016,4.016,0,0,1-.34.664,3.119,3.119,0,0,1-.543.645,2.67,2.67,0,0,1-.789.492,2.842,2.842,0,0,1-1.094.191,3.228,3.228,0,0,1-1.457-.324,2.586,2.586,0,0,1-1.031-.9,2.322,2.322,0,0,1-.379-1.309,2.671,2.671,0,0,1,.25-1.18,2.32,2.32,0,0,1,.738-.871,3.5,3.5,0,0,1,1.223-.539,7.064,7.064,0,0,1,1.7-.184Zm7.2,3.547a1.621,1.621,0,0,0,.734-.16,1.231,1.231,0,0,0,.5-.453,1.326,1.326,0,0,0,.191-.691h2.117a2.8,2.8,0,0,1-.477,1.582,3.235,3.235,0,0,1-1.258,1.086,3.893,3.893,0,0,1-1.766.395,4.154,4.154,0,0,1-1.715-.328,3.328,3.328,0,0,1-1.215-.91A3.923,3.923,0,0,1,57,52.559a5.579,5.579,0,0,1-.242-1.668v-.227A5.606,5.606,0,0,1,57,48.988a3.923,3.923,0,0,1,.727-1.359,3.336,3.336,0,0,1,1.211-.91,4.106,4.106,0,0,1,1.7-.328,3.979,3.979,0,0,1,1.824.4A3.008,3.008,0,0,1,63.7,47.926a3.345,3.345,0,0,1,.457,1.746H62.039a1.8,1.8,0,0,0-.176-.766,1.358,1.358,0,0,0-.484-.551,1.39,1.39,0,0,0-.777-.207,1.431,1.431,0,0,0-.8.207,1.38,1.38,0,0,0-.484.563,2.769,2.769,0,0,0-.238.8,6.436,6.436,0,0,0-.066.941v.227a6.916,6.916,0,0,0,.063.945,2.575,2.575,0,0,0,.238.8,1.385,1.385,0,0,0,.488.555A1.468,1.468,0,0,0,60.609,53.4Zm7.219-6.852V55H65.57V46.547Zm-2.4-2.2a1.062,1.062,0,0,1,.344-.812,1.481,1.481,0,0,1,1.84,0,1.123,1.123,0,0,1,0,1.625,1.481,1.481,0,0,1-1.84,0A1.062,1.062,0,0,1,65.43,44.344Zm3.9,6.516V50.7a5.321,5.321,0,0,1,.266-1.715,3.965,3.965,0,0,1,.773-1.363,3.506,3.506,0,0,1,1.25-.9,4.218,4.218,0,0,1,1.7-.324,4.275,4.275,0,0,1,1.711.324,3.528,3.528,0,0,1,1.262.9,3.931,3.931,0,0,1,.777,1.363,5.321,5.321,0,0,1,.266,1.715v.164a5.3,5.3,0,0,1-.266,1.707,3.973,3.973,0,0,1-.777,1.367,3.481,3.481,0,0,1-1.254.9,4.7,4.7,0,0,1-3.41,0,3.474,3.474,0,0,1-1.258-.9,3.973,3.973,0,0,1-.777-1.367A5.3,5.3,0,0,1,69.328,50.859Zm2.25-.164v.164a4.977,4.977,0,0,0,.094.992,2.569,2.569,0,0,0,.3.809,1.507,1.507,0,0,0,.543.543,1.607,1.607,0,0,0,.82.2,1.574,1.574,0,0,0,.8-.2,1.477,1.477,0,0,0,.539-.543,2.7,2.7,0,0,0,.3-.809,4.784,4.784,0,0,0,.1-.992V50.7a4.648,4.648,0,0,0-.1-.973,2.741,2.741,0,0,0-.3-.812,1.476,1.476,0,0,0-1.355-.762,1.521,1.521,0,0,0-.809.2,1.564,1.564,0,0,0-.539.559,2.667,2.667,0,0,0-.3.813A4.835,4.835,0,0,0,71.578,50.7Zm.664-5.289L73.773,43h2.445L74.07,45.406Zm8.68,2.945V55h-2.25V46.547h2.109Zm-.328,2.125h-.609a5.516,5.516,0,0,1,.242-1.691,3.894,3.894,0,0,1,.68-1.289,2.968,2.968,0,0,1,1.043-.82,3.142,3.142,0,0,1,1.355-.285,3.275,3.275,0,0,1,1.086.172,2.109,2.109,0,0,1,.848.547,2.487,2.487,0,0,1,.547.992,5.144,5.144,0,0,1,.191,1.508V55H83.711V49.6a1.993,1.993,0,0,0-.156-.875.9.9,0,0,0-.457-.441,1.875,1.875,0,0,0-.738-.129,1.626,1.626,0,0,0-.785.18,1.537,1.537,0,0,0-.547.5,2.354,2.354,0,0,0-.324.738A3.6,3.6,0,0,0,80.594,50.477Zm16.063,2.68V43h2.266V55H96.883Zm-5.344-2.281v-.164a6.619,6.619,0,0,1,.219-1.762,4.1,4.1,0,0,1,.641-1.363,2.919,2.919,0,0,1,1.039-.883,3.07,3.07,0,0,1,1.406-.312,2.62,2.62,0,0,1,1.3.313,2.83,2.83,0,0,1,.953.887,4.994,4.994,0,0,1,.637,1.352,9.457,9.457,0,0,1,.352,1.7V51a9.032,9.032,0,0,1-.352,1.641,4.923,4.923,0,0,1-.637,1.324,2.845,2.845,0,0,1-.957.879,2.659,2.659,0,0,1-1.312.313,2.985,2.985,0,0,1-1.4-.32,2.939,2.939,0,0,1-1.031-.9,4.255,4.255,0,0,1-.637-1.359A6.3,6.3,0,0,1,91.313,50.875Zm2.25-.164v.164a5.485,5.485,0,0,0,.082.977,2.616,2.616,0,0,0,.273.8,1.43,1.43,0,0,0,.5.539,1.4,1.4,0,0,0,.754.191,1.628,1.628,0,0,0,.953-.262A1.66,1.66,0,0,0,96.7,52.4a3.065,3.065,0,0,0,.23-1.062V50.313a3.887,3.887,0,0,0-.137-.887,2.018,2.018,0,0,0-.328-.676,1.491,1.491,0,0,0-.531-.437,1.667,1.667,0,0,0-.746-.156,1.366,1.366,0,0,0-.75.2,1.49,1.49,0,0,0-.5.543,2.712,2.712,0,0,0-.281.809A5.292,5.292,0,0,0,93.563,50.711Zm11,4.445a4.669,4.669,0,0,1-1.766-.316,3.791,3.791,0,0,1-1.324-.879,3.883,3.883,0,0,1-.832-1.309,4.362,4.362,0,0,1-.289-1.59V50.75a5.387,5.387,0,0,1,.273-1.758,4.1,4.1,0,0,1,.785-1.383,3.436,3.436,0,0,1,1.246-.9,4.147,4.147,0,0,1,1.656-.316,4.027,4.027,0,0,1,1.594.3,3.158,3.158,0,0,1,1.168.844,3.678,3.678,0,0,1,.715,1.309,5.564,5.564,0,0,1,.242,1.691v.938h-6.719v-1.5h4.508V49.8a2.015,2.015,0,0,0-.168-.84,1.356,1.356,0,0,0-.5-.59,1.547,1.547,0,0,0-.859-.219,1.443,1.443,0,0,0-.766.2,1.48,1.48,0,0,0-.52.547,2.821,2.821,0,0,0-.3.824,5.122,5.122,0,0,0-.1,1.035v.313a2.924,2.924,0,0,0,.145.938,2.192,2.192,0,0,0,.414.742,1.843,1.843,0,0,0,.656.484,2.143,2.143,0,0,0,.879.172,2.728,2.728,0,0,0,1.137-.238,2.424,2.424,0,0,0,.91-.723l1.094,1.188a3.362,3.362,0,0,1-.723.734,3.868,3.868,0,0,1-1.1.574A4.438,4.438,0,0,1,104.563,55.156ZM3.125,68.172V78.25H.875v-11.7H2.961ZM8.477,70.68v.164a6.5,6.5,0,0,1-.215,1.711,4.283,4.283,0,0,1-.629,1.371,2.927,2.927,0,0,1-1.027.906,2.972,2.972,0,0,1-1.41.324,2.754,2.754,0,0,1-1.344-.312,2.751,2.751,0,0,1-.957-.879,4.923,4.923,0,0,1-.621-1.316,10.422,10.422,0,0,1-.359-1.609v-.43a10.786,10.786,0,0,1,.359-1.691,4.87,4.87,0,0,1,.621-1.336,2.763,2.763,0,0,1,.953-.879,2.715,2.715,0,0,1,1.332-.312,3.148,3.148,0,0,1,1.418.3,2.821,2.821,0,0,1,1.031.875,4.1,4.1,0,0,1,.633,1.359A6.655,6.655,0,0,1,8.477,70.68Zm-2.258.164V70.68a5.169,5.169,0,0,0-.09-1,2.712,2.712,0,0,0-.281-.8,1.437,1.437,0,0,0-.5-.535,1.388,1.388,0,0,0-.746-.191,1.877,1.877,0,0,0-.785.148,1.312,1.312,0,0,0-.527.43,1.991,1.991,0,0,0-.3.672,4.34,4.34,0,0,0-.125.883v1.086a3.456,3.456,0,0,0,.219,1.035,1.562,1.562,0,0,0,.555.723,1.667,1.667,0,0,0,.984.266,1.342,1.342,0,0,0,.75-.2,1.5,1.5,0,0,0,.5-.551,2.665,2.665,0,0,0,.273-.812A5.666,5.666,0,0,0,6.219,70.844Zm5.906-2.453V75H9.875V66.547h2.117Zm2.547-1.9-.039,2.086q-.164-.023-.395-.043t-.418-.02a2.511,2.511,0,0,0-.824.121,1.423,1.423,0,0,0-.922.926,2.7,2.7,0,0,0-.129.766l-.453-.141a6.545,6.545,0,0,1,.164-1.512,4.1,4.1,0,0,1,.48-1.207,2.351,2.351,0,0,1,.777-.8,1.984,1.984,0,0,1,1.055-.281,2.76,2.76,0,0,1,.383.027A1.538,1.538,0,0,1,14.672,66.492Zm4.8,8.664a4.669,4.669,0,0,1-1.766-.316,3.791,3.791,0,0,1-1.324-.879,3.883,3.883,0,0,1-.832-1.309,4.362,4.362,0,0,1-.289-1.59V70.75a5.387,5.387,0,0,1,.273-1.758,4.1,4.1,0,0,1,.785-1.383,3.436,3.436,0,0,1,1.246-.9,4.147,4.147,0,0,1,1.656-.316,4.027,4.027,0,0,1,1.594.3,3.158,3.158,0,0,1,1.168.844A3.678,3.678,0,0,1,22.7,68.84a5.564,5.564,0,0,1,.242,1.691v.938H16.227v-1.5h4.508V69.8a2.015,2.015,0,0,0-.168-.84,1.356,1.356,0,0,0-.5-.59,1.547,1.547,0,0,0-.859-.219,1.443,1.443,0,0,0-.766.2,1.48,1.48,0,0,0-.52.547,2.821,2.821,0,0,0-.3.824,5.121,5.121,0,0,0-.1,1.035v.313a2.924,2.924,0,0,0,.145.938,2.192,2.192,0,0,0,.414.742,1.843,1.843,0,0,0,.656.484,2.143,2.143,0,0,0,.879.172,2.728,2.728,0,0,0,1.137-.238,2.424,2.424,0,0,0,.91-.723l1.094,1.188a3.362,3.362,0,0,1-.723.734,3.868,3.868,0,0,1-1.1.574A4.438,4.438,0,0,1,19.477,75.156ZM27.719,73.4a1.621,1.621,0,0,0,.734-.16,1.231,1.231,0,0,0,.5-.453,1.326,1.326,0,0,0,.191-.691h2.117a2.8,2.8,0,0,1-.477,1.582,3.235,3.235,0,0,1-1.258,1.086,3.893,3.893,0,0,1-1.766.395,4.154,4.154,0,0,1-1.715-.328,3.328,3.328,0,0,1-1.215-.91,3.923,3.923,0,0,1-.727-1.359,5.579,5.579,0,0,1-.242-1.668v-.227a5.606,5.606,0,0,1,.242-1.676,3.923,3.923,0,0,1,.727-1.359,3.335,3.335,0,0,1,1.211-.91,4.106,4.106,0,0,1,1.7-.328,3.979,3.979,0,0,1,1.824.4,3.008,3.008,0,0,1,1.234,1.137,3.345,3.345,0,0,1,.457,1.746H29.148a1.8,1.8,0,0,0-.176-.766,1.358,1.358,0,0,0-.484-.551,1.39,1.39,0,0,0-.777-.207,1.431,1.431,0,0,0-.8.207,1.38,1.38,0,0,0-.484.563,2.769,2.769,0,0,0-.238.8,6.435,6.435,0,0,0-.066.941v.227a6.916,6.916,0,0,0,.063.945,2.575,2.575,0,0,0,.238.8,1.385,1.385,0,0,0,.488.555A1.468,1.468,0,0,0,27.719,73.4Zm7.219-6.852V75H32.68V66.547Zm-2.4-2.2a1.062,1.062,0,0,1,.344-.812,1.481,1.481,0,0,1,1.84,0,1.123,1.123,0,0,1,0,1.625,1.481,1.481,0,0,1-1.84,0A1.062,1.062,0,0,1,32.539,64.344Zm3.9,6.516V70.7A5.321,5.321,0,0,1,36.7,68.98a3.965,3.965,0,0,1,.773-1.363,3.506,3.506,0,0,1,1.25-.9,4.218,4.218,0,0,1,1.7-.324,4.275,4.275,0,0,1,1.711.324,3.528,3.528,0,0,1,1.262.9,3.931,3.931,0,0,1,.777,1.363,5.321,5.321,0,0,1,.266,1.715v.164a5.3,5.3,0,0,1-.266,1.707,3.973,3.973,0,0,1-.777,1.367,3.481,3.481,0,0,1-1.254.9,4.7,4.7,0,0,1-3.41,0,3.474,3.474,0,0,1-1.258-.9,3.973,3.973,0,0,1-.777-1.367A5.3,5.3,0,0,1,36.438,70.859Zm2.25-.164v.164a4.977,4.977,0,0,0,.094.992,2.569,2.569,0,0,0,.3.809,1.507,1.507,0,0,0,.543.543,1.607,1.607,0,0,0,.82.2,1.574,1.574,0,0,0,.8-.2,1.477,1.477,0,0,0,.539-.543,2.7,2.7,0,0,0,.3-.809,4.784,4.784,0,0,0,.1-.992V70.7a4.648,4.648,0,0,0-.1-.973,2.741,2.741,0,0,0-.3-.812,1.476,1.476,0,0,0-1.355-.762,1.521,1.521,0,0,0-.809.2,1.563,1.563,0,0,0-.539.559,2.667,2.667,0,0,0-.3.813A4.835,4.835,0,0,0,38.688,70.7ZM50.4,72.664a.731.731,0,0,0-.141-.437,1.259,1.259,0,0,0-.52-.363,5.4,5.4,0,0,0-1.09-.309,7.991,7.991,0,0,1-1.191-.355,3.942,3.942,0,0,1-.953-.52,2.242,2.242,0,0,1-.629-.723A1.976,1.976,0,0,1,45.648,69a2.237,2.237,0,0,1,.23-1,2.55,2.55,0,0,1,.664-.832,3.184,3.184,0,0,1,1.063-.57,4.523,4.523,0,0,1,1.418-.207,4.651,4.651,0,0,1,1.895.352,2.839,2.839,0,0,1,1.219.965,2.386,2.386,0,0,1,.426,1.395h-2.25a1.255,1.255,0,0,0-.137-.59.982.982,0,0,0-.422-.414,1.562,1.562,0,0,0-.738-.152,1.508,1.508,0,0,0-.648.129,1,1,0,0,0-.418.344.829.829,0,0,0-.145.473.722.722,0,0,0,.082.348.8.8,0,0,0,.27.277,2.2,2.2,0,0,0,.488.23,5.375,5.375,0,0,0,.746.191,8.831,8.831,0,0,1,1.633.488,2.888,2.888,0,0,1,1.141.813,2.038,2.038,0,0,1,.422,1.34,2.157,2.157,0,0,1-.25,1.031,2.452,2.452,0,0,1-.719.816,3.533,3.533,0,0,1-1.121.539,5.2,5.2,0,0,1-1.465.191,4.309,4.309,0,0,1-2-.422A3.123,3.123,0,0,1,45.8,73.66a2.454,2.454,0,0,1-.418-1.34h2.133a1.231,1.231,0,0,0,.238.742,1.252,1.252,0,0,0,.57.406,2.212,2.212,0,0,0,.754.125,1.89,1.89,0,0,0,.727-.121,1.021,1.021,0,0,0,.441-.328A.789.789,0,0,0,50.4,72.664Zm12.617.492V63h2.266V75H63.242Zm-5.344-2.281v-.164a6.619,6.619,0,0,1,.219-1.762,4.1,4.1,0,0,1,.641-1.363A2.919,2.919,0,0,1,59.57,66.7a3.07,3.07,0,0,1,1.406-.312,2.62,2.62,0,0,1,1.3.313,2.83,2.83,0,0,1,.953.887,4.994,4.994,0,0,1,.637,1.352,9.457,9.457,0,0,1,.352,1.7V71a9.032,9.032,0,0,1-.352,1.641,4.922,4.922,0,0,1-.637,1.324,2.845,2.845,0,0,1-.957.879,2.659,2.659,0,0,1-1.312.313,2.985,2.985,0,0,1-1.4-.32,2.939,2.939,0,0,1-1.031-.9,4.255,4.255,0,0,1-.637-1.359A6.3,6.3,0,0,1,57.672,70.875Zm2.25-.164v.164a5.485,5.485,0,0,0,.082.977,2.615,2.615,0,0,0,.273.8,1.43,1.43,0,0,0,.5.539,1.4,1.4,0,0,0,.754.191,1.628,1.628,0,0,0,.953-.262,1.66,1.66,0,0,0,.574-.723,3.065,3.065,0,0,0,.23-1.062V70.313a3.887,3.887,0,0,0-.137-.887,2.018,2.018,0,0,0-.328-.676,1.491,1.491,0,0,0-.531-.437,1.667,1.667,0,0,0-.746-.156,1.366,1.366,0,0,0-.75.2,1.49,1.49,0,0,0-.5.543,2.711,2.711,0,0,0-.281.809A5.292,5.292,0,0,0,59.922,70.711Zm11,4.445a4.669,4.669,0,0,1-1.766-.316,3.791,3.791,0,0,1-1.324-.879A3.883,3.883,0,0,1,67,72.652a4.362,4.362,0,0,1-.289-1.59V70.75a5.387,5.387,0,0,1,.273-1.758,4.1,4.1,0,0,1,.785-1.383,3.436,3.436,0,0,1,1.246-.9,4.147,4.147,0,0,1,1.656-.316,4.027,4.027,0,0,1,1.594.3,3.158,3.158,0,0,1,1.168.844,3.678,3.678,0,0,1,.715,1.309,5.564,5.564,0,0,1,.242,1.691v.938H67.672v-1.5H72.18V69.8a2.015,2.015,0,0,0-.168-.84,1.356,1.356,0,0,0-.5-.59,1.547,1.547,0,0,0-.859-.219,1.443,1.443,0,0,0-.766.2,1.48,1.48,0,0,0-.52.547,2.821,2.821,0,0,0-.3.824,5.122,5.122,0,0,0-.1,1.035v.313a2.924,2.924,0,0,0,.145.938,2.192,2.192,0,0,0,.414.742,1.843,1.843,0,0,0,.656.484,2.143,2.143,0,0,0,.879.172A2.728,2.728,0,0,0,72.2,73.16a2.424,2.424,0,0,0,.91-.723L74.2,73.625a3.362,3.362,0,0,1-.723.734,3.868,3.868,0,0,1-1.1.574A4.438,4.438,0,0,1,70.922,75.156ZM81.9,68.3V75H79.641V66.547h2.117Zm-.312,2.18h-.625a5.869,5.869,0,0,1,.215-1.629,3.912,3.912,0,0,1,.633-1.3,2.888,2.888,0,0,1,1.035-.855,3.191,3.191,0,0,1,1.43-.3,3.038,3.038,0,0,1,1.031.168,2.068,2.068,0,0,1,.809.523,2.4,2.4,0,0,1,.527.922,4.335,4.335,0,0,1,.188,1.355V75h-2.25V69.609a2.038,2.038,0,0,0-.156-.891.89.89,0,0,0-.441-.437,1.7,1.7,0,0,0-.684-.125,1.547,1.547,0,0,0-.762.18,1.524,1.524,0,0,0-.535.5,2.281,2.281,0,0,0-.312.738A3.864,3.864,0,0,0,81.586,70.477Zm5.031-.258-.8.1a5.484,5.484,0,0,1,.207-1.539,3.793,3.793,0,0,1,.617-1.25,2.848,2.848,0,0,1,1.02-.84,3.138,3.138,0,0,1,1.406-.3,3.327,3.327,0,0,1,1.109.176,2.118,2.118,0,0,1,.855.555,2.525,2.525,0,0,1,.547.988,5.032,5.032,0,0,1,.191,1.492V75H89.508V69.6a2.079,2.079,0,0,0-.152-.895.857.857,0,0,0-.437-.43,1.721,1.721,0,0,0-.676-.121,1.507,1.507,0,0,0-.711.16,1.452,1.452,0,0,0-.508.441,2.008,2.008,0,0,0-.3.652A3.056,3.056,0,0,0,86.617,70.219ZM97.4,75.156a4.669,4.669,0,0,1-1.766-.316,3.791,3.791,0,0,1-1.324-.879,3.883,3.883,0,0,1-.832-1.309,4.362,4.362,0,0,1-.289-1.59V70.75a5.387,5.387,0,0,1,.273-1.758,4.1,4.1,0,0,1,.785-1.383,3.436,3.436,0,0,1,1.246-.9,4.147,4.147,0,0,1,1.656-.316,4.027,4.027,0,0,1,1.594.3,3.158,3.158,0,0,1,1.168.844,3.678,3.678,0,0,1,.715,1.309,5.564,5.564,0,0,1,.242,1.691v.938H94.148v-1.5h4.508V69.8a2.015,2.015,0,0,0-.168-.84,1.356,1.356,0,0,0-.5-.59,1.547,1.547,0,0,0-.859-.219,1.443,1.443,0,0,0-.766.2,1.48,1.48,0,0,0-.52.547,2.821,2.821,0,0,0-.3.824,5.122,5.122,0,0,0-.1,1.035v.313A2.924,2.924,0,0,0,95.59,72a2.192,2.192,0,0,0,.414.742,1.843,1.843,0,0,0,.656.484,2.143,2.143,0,0,0,.879.172,2.728,2.728,0,0,0,1.137-.238,2.424,2.424,0,0,0,.91-.723l1.094,1.188a3.362,3.362,0,0,1-.723.734,3.868,3.868,0,0,1-1.1.574A4.438,4.438,0,0,1,97.4,75.156Zm7-6.766V75h-2.25V66.547h2.117Zm2.547-1.9-.039,2.086q-.164-.023-.395-.043t-.418-.02a2.511,2.511,0,0,0-.824.121,1.423,1.423,0,0,0-.922.926,2.7,2.7,0,0,0-.129.766l-.453-.141a6.545,6.545,0,0,1,.164-1.512,4.1,4.1,0,0,1,.48-1.207,2.351,2.351,0,0,1,.777-.8,1.984,1.984,0,0,1,1.055-.281,2.76,2.76,0,0,1,.383.027A1.538,1.538,0,0,1,106.945,66.492Zm4.406,6.906a1.621,1.621,0,0,0,.734-.16,1.231,1.231,0,0,0,.5-.453,1.326,1.326,0,0,0,.191-.691H114.9a2.8,2.8,0,0,1-.477,1.582,3.235,3.235,0,0,1-1.258,1.086,3.893,3.893,0,0,1-1.766.395,4.154,4.154,0,0,1-1.715-.328,3.328,3.328,0,0,1-1.215-.91,3.923,3.923,0,0,1-.727-1.359,5.578,5.578,0,0,1-.242-1.668v-.227a5.606,5.606,0,0,1,.242-1.676,3.923,3.923,0,0,1,.727-1.359,3.335,3.335,0,0,1,1.211-.91,4.106,4.106,0,0,1,1.7-.328,3.979,3.979,0,0,1,1.824.4,3.008,3.008,0,0,1,1.234,1.137,3.345,3.345,0,0,1,.457,1.746h-2.117a1.8,1.8,0,0,0-.176-.766,1.358,1.358,0,0,0-.484-.551,1.39,1.39,0,0,0-.777-.207,1.431,1.431,0,0,0-.8.207,1.38,1.38,0,0,0-.484.563,2.769,2.769,0,0,0-.238.8,6.435,6.435,0,0,0-.066.941v.227a6.917,6.917,0,0,0,.063.945,2.575,2.575,0,0,0,.238.8,1.385,1.385,0,0,0,.488.555A1.468,1.468,0,0,0,111.352,73.4Zm9.406-.3V69.328a1.683,1.683,0,0,0-.133-.7,1,1,0,0,0-.41-.457,1.39,1.39,0,0,0-.715-.164,1.508,1.508,0,0,0-.648.129.971.971,0,0,0-.422.367,1.035,1.035,0,0,0-.148.559h-2.25a2.2,2.2,0,0,1,.25-1.023,2.589,2.589,0,0,1,.727-.855,3.628,3.628,0,0,1,1.137-.582,4.852,4.852,0,0,1,1.48-.211,4.406,4.406,0,0,1,1.75.328,2.7,2.7,0,0,1,1.207.984,2.876,2.876,0,0,1,.441,1.641v3.617a6.139,6.139,0,0,0,.086,1.137,3,3,0,0,0,.25.77V75h-2.273a3.166,3.166,0,0,1-.246-.863A6.677,6.677,0,0,1,120.758,73.094Zm.3-3.242.016,1.273h-1.258a2.627,2.627,0,0,0-.773.1,1.472,1.472,0,0,0-.539.285,1.112,1.112,0,0,0-.309.426,1.408,1.408,0,0,0-.1.531,1.022,1.022,0,0,0,.133.52.913.913,0,0,0,.383.359,1.262,1.262,0,0,0,.586.129,1.826,1.826,0,0,0,.883-.2,1.65,1.65,0,0,0,.582-.5,1.051,1.051,0,0,0,.215-.562l.594.953a4.017,4.017,0,0,1-.34.664,3.119,3.119,0,0,1-.543.645,2.67,2.67,0,0,1-.789.492,2.842,2.842,0,0,1-1.094.191,3.228,3.228,0,0,1-1.457-.324,2.586,2.586,0,0,1-1.031-.9,2.322,2.322,0,0,1-.379-1.309,2.671,2.671,0,0,1,.25-1.18,2.32,2.32,0,0,1,.738-.871,3.5,3.5,0,0,1,1.223-.539,7.064,7.064,0,0,1,1.7-.184Zm8.7,3.3V63h2.266V75h-2.039Zm-5.344-2.281v-.164a6.619,6.619,0,0,1,.219-1.762,4.1,4.1,0,0,1,.641-1.363A2.919,2.919,0,0,1,126.3,66.7a3.07,3.07,0,0,1,1.406-.312,2.62,2.62,0,0,1,1.3.313,2.83,2.83,0,0,1,.953.887,4.994,4.994,0,0,1,.637,1.352,9.459,9.459,0,0,1,.352,1.7V71a9.033,9.033,0,0,1-.352,1.641,4.922,4.922,0,0,1-.637,1.324,2.845,2.845,0,0,1-.957.879,2.659,2.659,0,0,1-1.312.313,2.985,2.985,0,0,1-1.4-.32,2.939,2.939,0,0,1-1.031-.9,4.255,4.255,0,0,1-.637-1.359A6.3,6.3,0,0,1,124.406,70.875Zm2.25-.164v.164a5.485,5.485,0,0,0,.082.977,2.616,2.616,0,0,0,.273.8,1.43,1.43,0,0,0,.5.539,1.4,1.4,0,0,0,.754.191,1.628,1.628,0,0,0,.953-.262,1.66,1.66,0,0,0,.574-.723,3.065,3.065,0,0,0,.23-1.062V70.313a3.887,3.887,0,0,0-.137-.887,2.018,2.018,0,0,0-.328-.676,1.491,1.491,0,0,0-.531-.437,1.667,1.667,0,0,0-.746-.156,1.366,1.366,0,0,0-.75.2,1.49,1.49,0,0,0-.5.543,2.711,2.711,0,0,0-.281.809A5.292,5.292,0,0,0,126.656,70.711Zm6.75.148V70.7a5.321,5.321,0,0,1,.266-1.715,3.964,3.964,0,0,1,.773-1.363,3.506,3.506,0,0,1,1.25-.9,4.218,4.218,0,0,1,1.7-.324,4.275,4.275,0,0,1,1.711.324,3.528,3.528,0,0,1,1.262.9,3.931,3.931,0,0,1,.777,1.363,5.321,5.321,0,0,1,.266,1.715v.164a5.3,5.3,0,0,1-.266,1.707,3.973,3.973,0,0,1-.777,1.367,3.481,3.481,0,0,1-1.254.9,4.7,4.7,0,0,1-3.41,0,3.474,3.474,0,0,1-1.258-.9,3.973,3.973,0,0,1-.777-1.367A5.3,5.3,0,0,1,133.406,70.859Zm2.25-.164v.164a4.977,4.977,0,0,0,.094.992,2.569,2.569,0,0,0,.3.809,1.507,1.507,0,0,0,.543.543,1.607,1.607,0,0,0,.82.2,1.574,1.574,0,0,0,.8-.2,1.477,1.477,0,0,0,.539-.543,2.7,2.7,0,0,0,.3-.809,4.784,4.784,0,0,0,.1-.992V70.7a4.648,4.648,0,0,0-.1-.973,2.741,2.741,0,0,0-.3-.812,1.476,1.476,0,0,0-1.355-.762,1.521,1.521,0,0,0-.809.2,1.563,1.563,0,0,0-.539.559,2.668,2.668,0,0,0-.3.813A4.835,4.835,0,0,0,135.656,70.7Zm7.25,3.219a1.115,1.115,0,0,1,.348-.836,1.444,1.444,0,0,1,1.852,0,1.179,1.179,0,0,1,0,1.672,1.444,1.444,0,0,1-1.852,0A1.115,1.115,0,0,1,142.906,73.914Z" transform="translate(-1917.497 1340.671)" fill="#12263f"/>
  </g>
</svg>
