<svg xmlns="http://www.w3.org/2000/svg" width="481" height="48.667" viewBox="0 0 481 48.667">
  <g id="Grupo_1101360" data-name="Grupo 1101360" transform="translate(-822 -4270)">
    <path id="Trazado_964801" data-name="Trazado 964801" d="M10,0H160a10,10,0,0,1,10,10V38.667a10,10,0,0,1-10,10H10a10,10,0,0,1-10-10V10A10,10,0,0,1,10,0Z" transform="translate(822 4270)" fill="#ffd75e"/>
    <path id="Trazado_964804" data-name="Trazado 964804" d="M10,0H110a10,10,0,0,1,10,10V38.667a10,10,0,0,1-10,10H10a10,10,0,0,1-10-10V10A10,10,0,0,1,10,0Z" transform="translate(1031 4270)" fill="#ffd75e"/>
    <path id="Trazado_964807" data-name="Trazado 964807" d="M10,0h90a10,10,0,0,1,10,10V38.667a10,10,0,0,1-10,10H10a10,10,0,0,1-10-10V10A10,10,0,0,1,10,0Z" transform="translate(1193 4270)" fill="#ffd75e"/>
    <path id="Trazado_964802" data-name="Trazado 964802" d="M17.2,6.4,12.855,19H9.639L5.35,6.4H8.408l2.628,8.771a6.282,6.282,0,0,1,.255,1.257h.053a7.1,7.1,0,0,1,.272-1.292L14.227,6.4Zm8.156,8.895H19.482q.141,1.96,2.47,1.96a4.822,4.822,0,0,0,2.61-.7v2a6.858,6.858,0,0,1-3.243.668,4.565,4.565,0,0,1-3.384-1.208,4.566,4.566,0,0,1-1.2-3.371,4.816,4.816,0,0,1,1.3-3.551,4.334,4.334,0,0,1,3.2-1.31,3.933,3.933,0,0,1,3.045,1.169,4.5,4.5,0,0,1,1.077,3.173Zm-2.575-1.705q0-1.934-1.564-1.934a1.494,1.494,0,0,0-1.156.554,2.513,2.513,0,0,0-.593,1.38Zm10.1-1.081a2.409,2.409,0,0,0-1.169-.272,1.684,1.684,0,0,0-1.415.664,2.9,2.9,0,0,0-.51,1.806V19H27.006V10h2.777v1.67h.035a2.4,2.4,0,0,1,2.373-1.828,1.788,1.788,0,0,1,.686.105Zm4.1,5.449h-.035V19H34.169V5.676h2.777v5.678h.035A3.3,3.3,0,0,1,39.908,9.78a3.211,3.211,0,0,1,2.681,1.2,5.155,5.155,0,0,1,.94,3.27,5.582,5.582,0,0,1-1.1,3.612A3.579,3.579,0,0,1,39.5,19.22,2.836,2.836,0,0,1,36.981,17.954Zm-.079-3.8v.923a2.107,2.107,0,0,0,.5,1.441,1.63,1.63,0,0,0,1.283.571,1.7,1.7,0,0,0,1.472-.734,3.543,3.543,0,0,0,.523-2.079,2.819,2.819,0,0,0-.479-1.745,1.616,1.616,0,0,0-1.367-.628,1.766,1.766,0,0,0-1.384.624A2.37,2.37,0,0,0,36.9,14.157ZM49.62,19.22a4.838,4.838,0,0,1-3.538-1.261,4.573,4.573,0,0,1-1.288-3.423,4.573,4.573,0,0,1,1.336-3.494A5.048,5.048,0,0,1,49.743,9.78a4.78,4.78,0,0,1,3.516,1.261,4.483,4.483,0,0,1,1.274,3.335,4.759,4.759,0,0,1-1.314,3.542A4.892,4.892,0,0,1,49.62,19.22Zm.07-7.312a1.852,1.852,0,0,0-1.529.677,2.984,2.984,0,0,0-.545,1.916q0,2.593,2.092,2.593,2,0,2-2.663Q51.7,11.907,49.69,11.907Zm16.937,9.958H64.359a11.026,11.026,0,0,1-2.839-7.69A11.731,11.731,0,0,1,64.359,6.4h2.25a12.632,12.632,0,0,0-2.663,7.778A12.216,12.216,0,0,0,66.627,21.865ZM71.057,19H68.218V6.4h2.839Zm11.285,0H79.573V14q0-2.092-1.494-2.092a1.483,1.483,0,0,0-1.187.554,2.109,2.109,0,0,0-.466,1.406V19H73.649V10h2.777v1.424h.035A3.183,3.183,0,0,1,79.354,9.78q2.988,0,2.988,3.709ZM90.41,7.8a2.806,2.806,0,0,0-1.028-.211q-1.336,0-1.336,1.45V10H90.1v2.048H88.046V19H85.277V12.048H83.766V10h1.512V8.884a3.24,3.24,0,0,1,1-2.479A3.821,3.821,0,0,1,89,5.465a4.785,4.785,0,0,1,1.406.176Zm2.435.773a1.622,1.622,0,0,1-1.151-.417,1.345,1.345,0,0,1-.448-1.024,1.3,1.3,0,0,1,.448-1.02,1.88,1.88,0,0,1,2.307,0,1.3,1.3,0,0,1,.444,1.02A1.34,1.34,0,0,1,94,8.172,1.65,1.65,0,0,1,92.845,8.576ZM94.216,19H91.438V10h2.777Zm11.03,0h-2.769V14q0-2.092-1.494-2.092a1.483,1.483,0,0,0-1.187.554,2.109,2.109,0,0,0-.466,1.406V19H96.554V10h2.777v1.424h.035a3.183,3.183,0,0,1,2.892-1.644q2.988,0,2.988,3.709Zm3.6-10.424a1.622,1.622,0,0,1-1.151-.417,1.345,1.345,0,0,1-.448-1.024,1.3,1.3,0,0,1,.448-1.02,1.88,1.88,0,0,1,2.307,0,1.3,1.3,0,0,1,.444,1.02,1.34,1.34,0,0,1-.444,1.037A1.65,1.65,0,0,1,108.85,8.576ZM110.221,19h-2.777V10h2.777ZM118,18.895a4.105,4.105,0,0,1-1.854.325q-2.936,0-2.936-3.05V12.048H111.75V10h1.459V8.058l2.769-.791V10H118v2.048h-2.021v3.639q0,1.406,1.116,1.406a1.882,1.882,0,0,0,.905-.255ZM120.97,8.576a1.622,1.622,0,0,1-1.151-.417,1.345,1.345,0,0,1-.448-1.024,1.3,1.3,0,0,1,.448-1.02,1.88,1.88,0,0,1,2.307,0,1.3,1.3,0,0,1,.444,1.02,1.34,1.34,0,0,1-.444,1.037A1.65,1.65,0,0,1,120.97,8.576ZM122.341,19h-2.777V10h2.777Zm10.907-9L129.9,19h-3.164l-3.19-9h2.971l1.564,5.546a8.1,8.1,0,0,1,.308,1.6h.035a9.078,9.078,0,0,1,.325-1.547l1.6-5.6Zm5.3,9.22a4.838,4.838,0,0,1-3.538-1.261,4.573,4.573,0,0,1-1.288-3.423,4.573,4.573,0,0,1,1.336-3.494,5.048,5.048,0,0,1,3.612-1.261,4.78,4.78,0,0,1,3.516,1.261,4.483,4.483,0,0,1,1.274,3.335,4.759,4.759,0,0,1-1.314,3.542A4.892,4.892,0,0,1,138.548,19.22Zm.07-7.312a1.852,1.852,0,0,0-1.529.677,2.984,2.984,0,0,0-.545,1.916q0,2.593,2.092,2.593,2,0,2-2.663Q140.631,11.907,138.618,11.907Zm7.884,9.958h-2.25a12.144,12.144,0,0,0,2.689-7.69A12.6,12.6,0,0,0,144.252,6.4h2.268a11.731,11.731,0,0,1,2.848,7.778A11.047,11.047,0,0,1,146.5,21.865Z" transform="translate(832 4282.212)" fill="#00223d"/>
    <path id="Trazado_964805" data-name="Trazado 964805" d="M25.966,19.22a5.867,5.867,0,0,1-4.412-1.762,6.327,6.327,0,0,1-1.705-4.592A6.779,6.779,0,0,1,21.58,8.031a6,6,0,0,1,4.588-1.846,5.721,5.721,0,0,1,4.364,1.767A6.513,6.513,0,0,1,32.2,12.61,6.671,6.671,0,0,1,30.47,17.4,5.928,5.928,0,0,1,25.966,19.22Zm.123-10.591A2.858,2.858,0,0,0,23.716,9.75a4.672,4.672,0,0,0-.879,2.966,4.586,4.586,0,0,0,.879,2.962,3.033,3.033,0,0,0,4.632.031,4.536,4.536,0,0,0,.861-2.94,4.915,4.915,0,0,0-.835-3.05A2.722,2.722,0,0,0,26.089,8.629Zm10.74,9.325h-.035V19H34.017V5.676h2.777v5.678h.035A3.3,3.3,0,0,1,39.756,9.78a3.211,3.211,0,0,1,2.681,1.2,5.155,5.155,0,0,1,.94,3.27,5.582,5.582,0,0,1-1.1,3.612,3.579,3.579,0,0,1-2.936,1.362A2.836,2.836,0,0,1,36.829,17.954Zm-.079-3.8v.923a2.107,2.107,0,0,0,.5,1.441,1.63,1.63,0,0,0,1.283.571,1.7,1.7,0,0,0,1.472-.734,3.543,3.543,0,0,0,.523-2.079,2.819,2.819,0,0,0-.479-1.745,1.616,1.616,0,0,0-1.367-.628,1.766,1.766,0,0,0-1.384.624A2.37,2.37,0,0,0,36.75,14.157Zm9.835-5.581a1.622,1.622,0,0,1-1.151-.417,1.345,1.345,0,0,1-.448-1.024,1.3,1.3,0,0,1,.448-1.02,1.88,1.88,0,0,1,2.307,0,1.3,1.3,0,0,1,.444,1.02,1.34,1.34,0,0,1-.444,1.037A1.65,1.65,0,0,1,46.585,8.576Zm1.371,10.266a4.892,4.892,0,0,1-.976,3.19,3.421,3.421,0,0,1-2.812,1.2,3.889,3.889,0,0,1-1.327-.264v-2.18a2.163,2.163,0,0,0,1.028.325q1.31,0,1.31-2.057V10h2.777ZM58.38,15.291H52.509q.141,1.96,2.47,1.96a4.822,4.822,0,0,0,2.61-.7v2a6.858,6.858,0,0,1-3.243.668,4.565,4.565,0,0,1-3.384-1.208,4.566,4.566,0,0,1-1.2-3.371,4.816,4.816,0,0,1,1.3-3.551,4.334,4.334,0,0,1,3.2-1.31A3.933,3.933,0,0,1,57.3,10.949a4.5,4.5,0,0,1,1.077,3.173ZM55.8,13.586q0-1.934-1.564-1.934a1.494,1.494,0,0,0-1.156.554,2.513,2.513,0,0,0-.593,1.38Zm9.668,5.309a4.105,4.105,0,0,1-1.854.325q-2.936,0-2.936-3.05V12.048H59.224V10h1.459V8.058l2.769-.791V10h2.021v2.048H63.451v3.639q0,1.406,1.116,1.406a1.882,1.882,0,0,0,.905-.255Zm5.783.325a4.838,4.838,0,0,1-3.538-1.261,4.573,4.573,0,0,1-1.288-3.423,4.573,4.573,0,0,1,1.336-3.494A5.048,5.048,0,0,1,71.379,9.78a4.78,4.78,0,0,1,3.516,1.261,4.483,4.483,0,0,1,1.274,3.335,4.759,4.759,0,0,1-1.314,3.542A4.892,4.892,0,0,1,71.256,19.22Zm.07-7.312a1.852,1.852,0,0,0-1.529.677,2.984,2.984,0,0,0-.545,1.916q0,2.593,2.092,2.593,2,0,2-2.663Q73.339,11.907,71.326,11.907Z" transform="translate(1043 4282.212)" fill="#00223d"/>
    <path id="Trazado_964806" data-name="Trazado 964806" d="M28.031,33.527h-7.52v7.52H16.566v-7.52H9.008V29.563h7.559V22h3.945v7.559h7.52Z" transform="translate(1155 4263)" fill="#4f647a"/>
    <path id="Trazado_964803" data-name="Trazado 964803" d="M28.031,33.527h-7.52v7.52H16.566v-7.52H9.008V29.563h7.559V22h3.945v7.559h7.52Z" transform="translate(992 4263)" fill="#4f647a"/>
    <path id="Trazado_964808" data-name="Trazado 964808" d="M22.964,18.552a8.311,8.311,0,0,1-3.6.668A6.074,6.074,0,0,1,14.8,17.515a6.233,6.233,0,0,1-1.661-4.544,6.659,6.659,0,0,1,1.868-4.9,6.533,6.533,0,0,1,4.847-1.881,9.065,9.065,0,0,1,3.111.466V9.385a5.513,5.513,0,0,0-2.883-.756,3.824,3.824,0,0,0-2.865,1.116,4.142,4.142,0,0,0-1.09,3.023,4.062,4.062,0,0,0,1.028,2.914,3.633,3.633,0,0,0,2.769,1.085,5.905,5.905,0,0,0,3.041-.809Zm6.214.668a4.838,4.838,0,0,1-3.538-1.261,4.573,4.573,0,0,1-1.288-3.423,4.573,4.573,0,0,1,1.336-3.494A5.048,5.048,0,0,1,29.3,9.78a4.78,4.78,0,0,1,3.516,1.261,4.483,4.483,0,0,1,1.274,3.335,4.759,4.759,0,0,1-1.314,3.542A4.892,4.892,0,0,1,29.178,19.22Zm.07-7.312a1.852,1.852,0,0,0-1.529.677,2.984,2.984,0,0,0-.545,1.916q0,2.593,2.092,2.593,2,0,2-2.663Q31.261,11.907,29.248,11.907ZM44.585,19H41.816V14q0-2.092-1.494-2.092a1.483,1.483,0,0,0-1.187.554,2.109,2.109,0,0,0-.466,1.406V19H35.893V10H38.67v1.424h.035A3.183,3.183,0,0,1,41.6,9.78q2.988,0,2.988,3.709Zm11,0H52.812V17.761h-.035A3.114,3.114,0,0,1,49.99,19.22a3.412,3.412,0,0,1-2.716-1.191A4.93,4.93,0,0,1,46.246,14.7a5.366,5.366,0,0,1,1.134-3.577A3.7,3.7,0,0,1,50.351,9.78a2.527,2.527,0,0,1,2.426,1.248h.035V5.676h2.777Zm-2.725-4.377v-.677a2.13,2.13,0,0,0-.51-1.459,1.8,1.8,0,0,0-2.769.145,3.367,3.367,0,0,0-.519,1.991,2.914,2.914,0,0,0,.5,1.828,1.779,1.779,0,0,0,2.764-.035A2.821,2.821,0,0,0,52.864,14.623Zm6.469-6.047a1.622,1.622,0,0,1-1.151-.417,1.345,1.345,0,0,1-.448-1.024,1.3,1.3,0,0,1,.448-1.02,1.88,1.88,0,0,1,2.307,0,1.3,1.3,0,0,1,.444,1.02,1.34,1.34,0,0,1-.444,1.037A1.65,1.65,0,0,1,59.333,8.576ZM60.7,19H57.927V10H60.7Zm9.158-.325a5.492,5.492,0,0,1-2.716.545,4.593,4.593,0,0,1-3.357-1.257,4.341,4.341,0,0,1-1.283-3.243A4.782,4.782,0,0,1,63.881,11.1,5.083,5.083,0,0,1,67.56,9.78a4.72,4.72,0,0,1,2.3.422v2.355a3.166,3.166,0,0,0-1.942-.65,2.559,2.559,0,0,0-1.894.7,2.607,2.607,0,0,0-.7,1.929A2.565,2.565,0,0,0,66,16.412a2.455,2.455,0,0,0,1.837.681,3.666,3.666,0,0,0,2.03-.65Zm3.226-10.1a1.622,1.622,0,0,1-1.151-.417,1.345,1.345,0,0,1-.448-1.024,1.3,1.3,0,0,1,.448-1.02,1.88,1.88,0,0,1,2.307,0,1.3,1.3,0,0,1,.444,1.02,1.34,1.34,0,0,1-.444,1.037A1.65,1.65,0,0,1,73.088,8.576ZM74.459,19H71.682V10h2.777Zm6.627.22a4.838,4.838,0,0,1-3.538-1.261,4.573,4.573,0,0,1-1.288-3.423A4.573,4.573,0,0,1,77.6,11.042,5.048,5.048,0,0,1,81.209,9.78a4.78,4.78,0,0,1,3.516,1.261A4.483,4.483,0,0,1,86,14.377a4.759,4.759,0,0,1-1.314,3.542A4.892,4.892,0,0,1,81.086,19.22Zm.07-7.312a1.852,1.852,0,0,0-1.529.677,2.984,2.984,0,0,0-.545,1.916q0,2.593,2.092,2.593,2,0,2-2.663Q83.169,11.907,81.156,11.907Zm2.979-6.17L81.385,8.576h-2l2.285-2.839ZM96.484,19H93.716V14q0-2.092-1.494-2.092a1.483,1.483,0,0,0-1.187.554,2.109,2.109,0,0,0-.466,1.406V19H87.792V10h2.777v1.424H90.6A3.183,3.183,0,0,1,93.5,9.78q2.988,0,2.988,3.709Z" transform="translate(1192 4282.212)" fill="#00223d"/>
  </g>
</svg>
