<svg xmlns="http://www.w3.org/2000/svg" xmlns:xlink="http://www.w3.org/1999/xlink" width="122.334" height="122.21" viewBox="0 0 122.334 122.21">
  <defs>
    <filter id="injertos_frutales" x="0" y="0" width="122.334" height="122.21" filterUnits="userSpaceOnUse">
      <feOffset dy="7" input="SourceAlpha"/>
      <feGaussianBlur stdDeviation="2.5" result="blur"/>
      <feFlood flood-opacity="0.102"/>
      <feComposite operator="in" in2="blur"/>
      <feComposite in="SourceGraphic"/>
    </filter>
  </defs>
  <g id="Grupo_1101226" data-name="Grupo 1101226" transform="translate(130.885 4612.105)">
    <g transform="matrix(1, 0, 0, 1, -130.88, -4612.11)" filter="url(#injertos_frutales)">
      <path id="injertos_frutales-2" data-name="injertos_frutales" d="M300.811,2198.513a53.347,53.347,0,1,0-53.348,53.35A53.137,53.137,0,0,0,300.811,2198.513Z" transform="translate(-186.98 -2145.15)" fill="#fff" stroke="#fff" stroke-width="2"/>
    </g>
    <g id="Grupo_16978" data-name="Grupo 16978" transform="translate(-834.024 -4172.561)">
      <path id="Trazado_26720" data-name="Trazado 26720" d="M790.687-377.721A28.323,28.323,0,0,1,762.364-349.4a28.212,28.212,0,0,1-10.831-2.146,28.35,28.35,0,0,1-17.224-22.283,28.314,28.314,0,0,1-.266-3.893,28.322,28.322,0,0,1,28.321-28.323A28.323,28.323,0,0,1,790.687-377.721Z" transform="translate(-0.649 -4.626)" fill="#ffd75e"/>
      <path id="Trazado_26721" data-name="Trazado 26721" d="M777.753-406.044a28.6,28.6,0,0,0-4.4.341,28.33,28.33,0,0,1,23.921,27.982,28.328,28.328,0,0,1-23.919,27.98,28.566,28.566,0,0,0,4.4.341,28.323,28.323,0,0,0,28.323-28.321A28.323,28.323,0,0,0,777.753-406.044Z" transform="translate(-16.037 -4.626)" fill="#d17334"/>
      <path id="Trazado_26722" data-name="Trazado 26722" d="M808.3-383.708,792.131-373a5.507,5.507,0,0,1-3.912.848,5.523,5.523,0,0,0-3.921.846l-2.164,1.434-12.121-17.867,2.974-12.847a13.406,13.406,0,0,0,.346-3.023,13.412,13.412,0,0,0-2.229-7.4,3.194,3.194,0,0,1-.532-1.768,3.2,3.2,0,0,1,1.435-2.675,3.2,3.2,0,0,1,4,.371l1.927,1.866a20.6,20.6,0,0,1,4.97,7.619l1.045,2.813,10.757-7.107a3.668,3.668,0,0,1,5.14,1.119,3.717,3.717,0,0,1-1.152,5.04.04.04,0,0,0-.015.05.042.042,0,0,0,.053.021,3.63,3.63,0,0,1,1.311-.243,3.691,3.691,0,0,1,2,.588,3.661,3.661,0,0,1,1.063,1.054,3.652,3.652,0,0,1,.539,2.737A3.75,3.75,0,0,1,802.1-397.2a.079.079,0,0,0-.02.109l0,0a.077.077,0,0,0,.1.02,3.767,3.767,0,0,1,.89-.1,3.865,3.865,0,0,1,2.069.6,3.6,3.6,0,0,1,1.07,1.05,3.668,3.668,0,0,1-1.034,5.084c-.041.028-.083.056-.125.083a.058.058,0,0,0-.019.072.036.036,0,0,0,.013.013.06.06,0,0,0,.073,0,3.591,3.591,0,0,1,3.112.4,3.718,3.718,0,0,1,1.1,1.086A3.669,3.669,0,0,1,808.3-383.708Z" transform="translate(-14.73 -0.733)" fill="#fdd7bd"/>
      <path id="Trazado_26723" data-name="Trazado 26723" d="M768.378-349.883l-6.822,4.518-9.851,6.523a28.352,28.352,0,0,1-17.224-22.283l11.431-7.57,6.959-4.608a1.74,1.74,0,0,1,2.413.492L768.869-352.3A1.742,1.742,0,0,1,768.378-349.883Z" transform="translate(-0.82 -17.33)" fill="#adecd1"/>
      <path id="Trazado_26724" data-name="Trazado 26724" d="M775.732-349.883l-6.822,4.518-15.644-23.33,6.959-4.608a1.74,1.74,0,0,1,2.413.492L776.223-352.3A1.742,1.742,0,0,1,775.732-349.883Z" transform="translate(-8.174 -17.33)" fill="#78a492"/>
      <g id="Grupo_16977" data-name="Grupo 16977" transform="translate(779.705 -404.64)">
        <path id="Trazado_26725" data-name="Trazado 26725" d="M817.753-395.547l-5.381,2.879a1.744,1.744,0,0,1-2.224-.5l4.243-2.746a.041.041,0,0,0,.053.021,3.632,3.632,0,0,1,1.311-.243A3.694,3.694,0,0,1,817.753-395.547Z" transform="translate(-810.148 396.135)" fill="#fac5aa"/>
        <path id="Trazado_26726" data-name="Trazado 26726" d="M822.939-384.476l-5.264,2.815a1.742,1.742,0,0,1-2.224-.5l4.243-2.745.183-.086a.077.077,0,0,0,.1.021,3.772,3.772,0,0,1,.89-.105A3.86,3.86,0,0,1,822.939-384.476Z" transform="translate(-812.224 391.806)" fill="#fac5aa"/>
        <path id="Trazado_26727" data-name="Trazado 26727" d="M828.422-373.461l-4.637,2.481a1.744,1.744,0,0,1-2.223-.5l3.675-2.378a.06.06,0,0,0,.073,0A3.592,3.592,0,0,1,828.422-373.461Z" transform="translate(-814.616 387.489)" fill="#fac5aa"/>
      </g>
      <path id="Trazado_26728" data-name="Trazado 26728" d="M795.447-390.082a4.64,4.64,0,0,0-2.876-1.979,4.681,4.681,0,0,0-.24-4.756,4.663,4.663,0,0,0-2.875-1.978,4.681,4.681,0,0,0,.442-1.244,4.646,4.646,0,0,0-.684-3.514,4.642,4.642,0,0,0-2.876-1.98,4.681,4.681,0,0,0-.24-4.756,4.682,4.682,0,0,0-6.481-1.317l-4.655,3.083a29.1,29.1,0,0,0-7.86-2.66,21.623,21.623,0,0,0-3-3.629l-1.926-1.867a4.239,4.239,0,0,0-5.26-.487,4.219,4.219,0,0,0-1.187,5.84c.05.077.1.154.149.231a29.337,29.337,0,0,0-16.325,9.537,29.321,29.321,0,0,0-7.167,19.212,29.434,29.434,0,0,0,.276,4.03A29.419,29.419,0,0,0,750.5-355.24a29.157,29.157,0,0,0,11.216,2.222,29.137,29.137,0,0,0,17.032-5.449,29.252,29.252,0,0,0,10.563-13.919,1.008,1.008,0,0,0-.605-1.291,1.008,1.008,0,0,0-1.291.606,27.245,27.245,0,0,1-9.839,12.963,27.129,27.129,0,0,1-15.86,5.073,27.186,27.186,0,0,1-8.623-1.39l8.2-5.432h0l6.818-4.515h0a2.734,2.734,0,0,0,1.176-1.745,2.731,2.731,0,0,0-.4-2.066l-.09-.136,1.324-.878a4.489,4.489,0,0,1,3.2-.691,6.5,6.5,0,0,0,4.633-1l10.984-7.274a27.222,27.222,0,0,1-.371,2.832,1.007,1.007,0,0,0,.807,1.175.96.96,0,0,0,.185.018,1.009,1.009,0,0,0,.99-.825,29.492,29.492,0,0,0,.481-4.586l3.1-2.05a4.643,4.643,0,0,0,2-2.968A4.644,4.644,0,0,0,795.447-390.082ZM773-407.227l-3.081,2.04-.606-1.634a21.72,21.72,0,0,0-.865-2A27.037,27.037,0,0,1,773-407.227Zm-31.927,6.989a27.322,27.322,0,0,1,15.767-8.99,12.458,12.458,0,0,1,.629,7.544l-2.458,10.62a2.723,2.723,0,0,0-1.453-.812,2.726,2.726,0,0,0-2.066.4l-6.963,4.611h0l-10.043,6.65c-.055-.709-.083-1.423-.083-2.136A27.307,27.307,0,0,1,741.076-400.238Zm26.24,31.717a.731.731,0,0,1-.315.466h0l-5.988,3.965L749.9-380.663a1.008,1.008,0,0,0-1.4-.276,1.008,1.008,0,0,0-.275,1.4l11.107,16.565-8.548,5.661a27.4,27.4,0,0,1-16.034-20.691l10.054-6.636,1.157,1.726a1.009,1.009,0,0,0,.839.447,1,1,0,0,0,.56-.17,1.008,1.008,0,0,0,.276-1.4l-1.149-1.714,6.119-4.039a.723.723,0,0,1,.55-.107.731.731,0,0,1,.466.314l13.586,20.515A.728.728,0,0,1,767.316-368.52Zm26.839-18.45a2.642,2.642,0,0,1-1.138,1.688l-3.539,2.344,0,0-12.63,8.365a4.489,4.489,0,0,1-3.2.691,6.506,6.506,0,0,0-4.633,1l-1.324.877-11.127-16.8,2.876-12.425a14.49,14.49,0,0,0-1.061-9.51.954.954,0,0,0-.043-.089,14.315,14.315,0,0,0-.922-1.613,2.2,2.2,0,0,1,.619-3.046,2.212,2.212,0,0,1,2.743.254l1.926,1.867a19.71,19.71,0,0,1,4.728,7.246l1.048,2.825.006.015.008.02a.375.375,0,0,0,.022.047.968.968,0,0,0,.069.125,1.008,1.008,0,0,0,1.4.284l10.754-7.121a2.662,2.662,0,0,1,3.686.749,2.664,2.664,0,0,1-.748,3.687l-.934.618h0l-2.082,1.379-.008.005-.033.024a1.007,1.007,0,0,0-.243,1.367,1.009,1.009,0,0,0,1.4.284l2.084-1.381a2.644,2.644,0,0,1,2-.388,2.642,2.642,0,0,1,1.688,1.139,2.64,2.64,0,0,1,.389,2,2.642,2.642,0,0,1-1.138,1.689l-3.016,2a1.007,1.007,0,0,0-.284,1.4,1.008,1.008,0,0,0,.842.451,1,1,0,0,0,.555-.168l.467-.309,1.616-1.07a2.663,2.663,0,0,1,3.686.749,2.663,2.663,0,0,1-.749,3.687l-1.507,1-.024.016-1.486.984a1.007,1.007,0,0,0-.284,1.4,1.006,1.006,0,0,0,.842.452,1,1,0,0,0,.556-.167l.467-.309h0l1.616-1.07a2.643,2.643,0,0,1,2-.389,2.643,2.643,0,0,1,1.689,1.138A2.645,2.645,0,0,1,794.155-386.97Z" transform="translate(0 0)" fill="#00223d"/>
    </g>
  </g>
</svg>
